<svg width="317" height="53" viewBox="0 0 317 53" fill="none" xmlns="http://www.w3.org/2000/svg">
<path d="M2.78998 2.68994H4.32001L3.66998 5.96994H6.60999L6.67999 7.04994H3.45001L1.65997 15.5799L2.38 15.7999L4.28998 14.1999L4.70001 14.6299C4.10001 15.6599 2.63999 17.0399 1.73999 17.0399C1.23999 17.0399 0.0399951 16.6799 0.119995 16.3699L1.97998 7.11994L0 7.01994L0.0700073 6.32994C0.0700073 6.32994 2.21997 5.63994 2.21997 5.65994L2.78998 2.68994Z" fill="black"/>
<path d="M13.9201 17.03C13.4201 17.03 12.2701 16.62 12.2701 16.27C12.2701 15.62 13.0101 13.35 13.5101 11.68C13.9601 10.22 14.4701 8.69 14.4701 8.14C14.4701 7.61 13.9001 7.09 13.3201 7.09C12.6001 7.09 10.9101 9.89001 8.9201 13.85L8.39008 16.79L6.62012 16.67L7.46008 13.16L9.63013 2.57C9.68013 2.31 9.63008 2.14 9.46008 2.09L7.81012 1.56001L7.88013 0.960007L11.7801 0L10.4401 5.59L8.84009 12.47H9.05011C10.5101 9.39 11.7701 7.28001 12.5901 6.42001C13.1201 5.87001 13.6401 5.61 14.2401 5.61C15.1001 5.61 16.0301 6.33001 16.0301 7.28001C16.0301 8.07001 15.5301 9.91 15.0301 11.61L13.8601 15.55L14.5501 15.77L16.4601 14.17L16.8401 14.6C16.2901 15.65 14.8301 17.03 13.9201 17.03Z" fill="black"/>
<path d="M20.2298 13.0401C20.2298 14.8301 21.2598 15.7601 22.3798 15.7601C23.0698 15.7601 24.0498 15.1401 25.2498 14.2301L25.5798 14.6601C24.4098 16.0201 23.1698 17.0301 21.7298 17.0301C19.9098 17.0301 18.5498 15.4301 18.5498 13.3301C18.5498 9.48014 21.2498 5.64014 24.0898 5.64014C25.6198 5.64014 26.5998 6.64014 26.5998 7.77014C26.5998 9.30014 25.1898 9.94014 20.2398 12.5201C20.2298 12.6801 20.2298 12.8701 20.2298 13.0401ZM20.3198 11.8201C24.1698 9.77014 25.0298 8.98014 25.0298 7.78014C25.0298 7.13014 23.8398 6.66014 23.2598 6.66014C22.7598 6.66014 22.3998 6.87014 22.1598 7.11014C21.5598 7.73014 20.6998 9.50014 20.2698 11.7901L20.3198 11.8201Z" fill="black"/>
<path d="M47.66 16.6697L47.73 15.8297L49.07 15.6597C49.55 15.5897 49.69 14.6597 49.55 10.9497L49.26 3.22973H49.09L44.45 16.1797H43.3L38.78 3.74973H38.49L38.18 10.8497C37.99 15.1997 37.99 15.5997 38.47 15.6497L39.83 15.8197L39.9 16.6597H34.71L34.78 15.8197L36.12 15.6497C36.6 15.5797 36.86 15.2197 37.1 10.8497L37.41 4.96973C37.48 3.60973 37.2 3.00973 36.45 2.81973L35.02 2.55973L34.95 1.71973H40.4L44.44 12.8997H44.56L48.48 1.71973H53.76L53.69 2.55973L52.07 2.69973C51.66 2.74973 51.5 3.07972 51.5 3.38972L51.79 10.9397C51.91 14.8597 52.1 15.5797 52.58 15.6497L53.92 15.8197L53.99 16.6597H47.66V16.6697Z" fill="black"/>
<path d="M65.8398 17.0502C61.4198 17.0502 58.0698 13.9002 58.0698 9.36018C58.0698 5.03018 61.5298 1.43018 65.9098 1.43018C70.3298 1.43018 73.6798 4.58018 73.6798 9.15018C73.6798 13.4702 70.2098 17.0502 65.8398 17.0502ZM65.8198 2.34018C62.9798 2.34018 60.6098 4.78018 60.6098 9.08018C60.6098 13.4802 63.0698 16.1802 65.9098 16.1802C68.7498 16.1802 71.1398 13.7402 71.1398 9.42018C71.1498 5.04018 68.6898 2.34018 65.8198 2.34018Z" fill="black"/>
<path d="M83.38 16.6701H78L78.07 15.8301L79.05 15.7101C79.67 15.6401 79.89 15.5001 79.89 15.2801V3.08011C79.89 2.86011 79.75 2.79011 79.05 2.70011L78.07 2.58011L78 1.74011L83.47 1.67011C88.82 1.60011 92.36 4.68011 92.36 8.84011C92.36 13.0901 89.35 16.6701 83.38 16.6701ZM82.88 2.65011H82.16V15.3901L83.88 15.7501C87.75 15.7501 89.9 13.0001 89.9 9.46012C89.9 5.39012 87.47 2.65011 82.88 2.65011Z" fill="black"/>
<path d="M108.37 16.6702H96.6602L96.7302 15.8302L97.7101 15.7102C98.3301 15.6402 98.5502 15.5002 98.5502 15.2802V3.08023C98.5502 2.86023 98.4101 2.79023 97.7101 2.70023L96.7302 2.58023L96.6602 1.74023H108.39V6.18023H107.24L106.67 3.86023C106.36 2.76023 106.12 2.67023 101.68 2.67023H100.82V8.62023H101.46C103.3 8.62023 103.63 8.57023 103.8 8.09023L104.35 6.49023H105.28L104.78 11.6302H103.87L103.68 10.1002C103.63 9.67024 103.47 9.53024 101.39 9.53024H100.82V15.7402H101.49C106.27 15.7402 106.58 15.6002 106.96 14.5402L107.53 12.3402H108.82L108.37 16.6702Z" fill="black"/>
<path d="M124.41 14.2802C125.22 15.4302 125.51 15.5702 125.96 15.6702L126.7 15.8402L126.8 16.6802H122.95L122.04 15.0302L119.17 10.0102L117.26 10.0802V15.3402C117.26 15.5502 117.43 15.6502 118.1 15.7202L119.27 15.8402L119.34 16.6802H113.1L113.17 15.8402L114.15 15.7202C114.77 15.6502 114.99 15.5102 114.99 15.2902V3.08023C114.99 2.86023 114.85 2.79023 114.15 2.70023L113.17 2.58023L113.1 1.74023H119.29C123.07 1.74023 124.76 3.22023 124.76 5.42023C124.76 7.48023 123.35 8.86023 121.34 9.55023L124.41 14.2802ZM118.79 2.72023C118.43 2.72023 117.26 2.77023 117.26 2.77023V9.03024L118.96 9.17023C120.97 9.00023 122.28 7.97023 122.28 5.87023C122.28 3.72023 121.11 2.57023 118.79 2.72023Z" fill="black"/>
<path d="M145.93 2.56995L144.81 2.75996C143.83 2.92996 143.73 3.18996 143.73 7.53996V16.88H142.51L133.07 3.99995H132.95V10.86C132.95 15.21 133.05 15.47 134 15.64L135.15 15.83L135.22 16.67H129.75L129.82 15.83L130.94 15.64C131.92 15.47 132.02 15.21 132.02 10.86V4.97996C132.02 3.61996 131.73 3.03996 130.99 2.72996L129.87 2.55996L129.8 1.71996H134.13L142.66 13.4H142.78V7.51996C142.78 3.16996 142.71 2.90996 141.73 2.73996L140.58 2.54996L140.51 1.70996H146.01L145.93 2.56995Z" fill="black"/>
<path d="M169.42 16.6702H157.71L157.78 15.8302L158.76 15.7102C159.38 15.6402 159.6 15.5002 159.6 15.2802V3.08023C159.6 2.86023 159.46 2.79023 158.76 2.70023L157.78 2.58023L157.71 1.74023H169.44V6.18023H168.29L167.72 3.86023C167.41 2.76023 167.17 2.67023 162.73 2.67023H161.87V8.62023H162.51C164.35 8.62023 164.68 8.57023 164.85 8.09023L165.4 6.49023H166.33L165.83 11.6302H164.92L164.73 10.1002C164.68 9.67024 164.52 9.53024 162.44 9.53024H161.87V15.7402H162.54C167.32 15.7402 167.63 15.6002 168.01 14.5402L168.58 12.3402H169.87L169.42 16.6702Z" fill="black"/>
<path d="M181.92 16.67L181.99 15.83L182.97 15.69C183.97 15.55 183.57 14.95 182.37 13.16L180.29 10.01H180.17L177.61 13.93C176.77 15.03 176.87 15.55 177.66 15.7L178.45 15.84L178.52 16.68H173.24L173.31 15.84L174.17 15.65C174.93 15.48 175.36 15 176.13 13.98L179.59 9.23L175.53 3.42001C175.34 3.16001 174.96 2.89001 174.69 2.85001L173.54 2.59L173.47 1.75H179.73L179.66 2.59L178.73 2.73C177.65 2.9 178.09 3.47 179.26 5.29L180.96 7.85001H181.08L183.28 4.5C184.02 3.4 184 2.88 183.23 2.73L182.42 2.59L182.35 1.75H187.58L187.51 2.59L186.67 2.78001C185.91 2.95001 185.4 3.43 184.66 4.45L181.67 8.63L186.14 15.01C186.33 15.27 186.69 15.51 186.98 15.58L188.1 15.84L188.17 16.68H181.92V16.67Z" fill="black"/>
<path d="M197.5 10.6502C196.83 10.6502 196.19 10.6002 195.54 10.5502V15.3302C195.54 15.5402 195.71 15.6402 196.38 15.7102L197.81 15.8302L197.88 16.6702H191.38L191.45 15.8302L192.43 15.7102C193.05 15.6402 193.27 15.5002 193.27 15.2802V3.08023C193.27 2.86023 193.13 2.79023 192.43 2.70023L191.45 2.58023L191.38 1.74023H197.52C201.41 1.74023 203.35 3.56023 203.35 5.73023C203.35 9.00023 200.7 10.6502 197.5 10.6502ZM197.47 2.67023H195.53V9.53024C196.1 9.67024 196.68 9.74023 197.35 9.74023C199.41 9.74023 200.91 8.43023 200.91 6.20023C200.91 4.03023 199.55 2.67023 197.47 2.67023Z" fill="black"/>
<path d="M218.62 14.2802C219.43 15.4302 219.72 15.5702 220.17 15.6702L220.91 15.8402L221.01 16.6802H217.16L216.25 15.0302L213.38 10.0102L211.47 10.0802V15.3402C211.47 15.5502 211.64 15.6502 212.31 15.7202L213.48 15.8402L213.55 16.6802H207.31L207.38 15.8402L208.36 15.7202C208.98 15.6502 209.2 15.5102 209.2 15.2902V3.08023C209.2 2.86023 209.06 2.79023 208.36 2.70023L207.38 2.58023L207.31 1.74023H213.5C217.28 1.74023 218.97 3.22023 218.97 5.42023C218.97 7.48023 217.56 8.86023 215.55 9.55023L218.62 14.2802ZM213 2.72023C212.64 2.72023 211.47 2.77023 211.47 2.77023V9.03024L213.17 9.17023C215.18 9.00023 216.49 7.97023 216.49 5.87023C216.49 3.72023 215.32 2.57023 213 2.72023Z" fill="black"/>
<path d="M235.73 16.6702H224.02L224.09 15.8302L225.07 15.7102C225.69 15.6402 225.91 15.5002 225.91 15.2802V3.08023C225.91 2.86023 225.77 2.79023 225.07 2.70023L224.09 2.58023L224.02 1.74023H235.75V6.18023H234.6L234.03 3.86023C233.72 2.76023 233.48 2.67023 229.04 2.67023H228.18V8.62023H228.82C230.66 8.62023 230.99 8.57023 231.16 8.09023L231.71 6.49023H232.64L232.14 11.6302H231.23L231.04 10.1002C230.99 9.67024 230.83 9.53024 228.75 9.53024H228.18V15.7402H228.85C233.63 15.7402 233.94 15.6002 234.32 14.5402L234.89 12.3402H236.18L235.73 16.6702Z" fill="black"/>
<path d="M245.17 17.0298C243.5 17.0498 242.21 16.7398 240.94 16.3098L240.61 12.0598H241.61L242.69 15.3298C243.48 15.7098 244.7 16.0498 245.61 16.0198C247.66 15.9998 248.72 14.6598 248.72 13.3398C248.72 11.2098 247 10.5898 245.04 9.84983C242.91 9.00983 240.91 8.12983 240.91 5.47983C240.91 3.49983 242.39 1.43982 245.88 1.38982C247.22 1.36982 247.98 1.50983 248.75 1.64983L249.99 1.31982V6.07983H248.99L248.25 3.01983C247.37 2.63983 246.36 2.44983 245.55 2.44983C243.76 2.44983 242.9 3.56983 242.9 4.73983C242.9 6.71983 244.62 7.29983 246.48 8.03983C248.7 8.89983 250.78 9.80983 250.78 12.5798C250.76 14.8298 248.7 16.9798 245.17 17.0298Z" fill="black"/>
<path d="M259.53 17.0298C257.86 17.0498 256.57 16.7398 255.3 16.3098L254.97 12.0598H255.97L257.05 15.3298C257.84 15.7098 259.06 16.0498 259.97 16.0198C262.02 15.9998 263.08 14.6598 263.08 13.3398C263.08 11.2098 261.36 10.5898 259.4 9.84983C257.27 9.00983 255.27 8.12983 255.27 5.47983C255.27 3.49983 256.75 1.43982 260.24 1.38982C261.58 1.36982 262.34 1.50983 263.11 1.64983L264.35 1.31982V6.07983H263.35L262.61 3.01983C261.73 2.63983 260.72 2.44983 259.91 2.44983C258.12 2.44983 257.26 3.56983 257.26 4.73983C257.26 6.71983 258.98 7.29983 260.84 8.03983C263.06 8.89983 265.14 9.80983 265.14 12.5798C265.12 14.8298 263.06 16.9798 259.53 17.0298Z" fill="black"/>
<path d="M269.49 16.6702L269.56 15.8302L270.78 15.7102C271.4 15.6402 271.62 15.5002 271.62 15.2802V3.08023C271.62 2.86023 271.48 2.79023 270.78 2.70023L269.56 2.58023L269.49 1.74023H276.01L275.94 2.58023L274.72 2.70023C274.1 2.77023 273.88 2.91023 273.88 3.13023V15.3402C273.88 15.5502 274.05 15.6502 274.72 15.7202L275.94 15.8402L276.01 16.6802H269.49V16.6702Z" fill="black"/>
<path d="M288.15 17.0502C283.73 17.0502 280.38 13.9002 280.38 9.36018C280.38 5.03018 283.84 1.43018 288.22 1.43018C292.64 1.43018 295.99 4.58018 295.99 9.15018C295.99 13.4702 292.52 17.0502 288.15 17.0502ZM288.13 2.34018C285.29 2.34018 282.92 4.78018 282.92 9.08018C282.92 13.4802 285.38 16.1802 288.22 16.1802C291.06 16.1802 293.45 13.7402 293.45 9.42018C293.46 5.04018 290.99 2.34018 288.13 2.34018Z" fill="black"/>
<path d="M316.44 2.56995L315.32 2.75996C314.34 2.92996 314.24 3.18996 314.24 7.53996V16.88H313.02L303.58 3.99995H303.46V10.86C303.46 15.21 303.56 15.47 304.51 15.64L305.66 15.83L305.73 16.67H300.26L300.33 15.83L301.45 15.64C302.43 15.47 302.53 15.21 302.53 10.86V4.97996C302.53 3.61996 302.24 3.03996 301.5 2.72996L300.38 2.55996L300.31 1.71996H304.64L313.17 13.4H313.29V7.51996C313.29 3.16996 313.22 2.90996 312.24 2.73996L311.09 2.54996L311.02 1.70996H316.52L316.44 2.56995Z" fill="black"/>
<path d="M3.54004 46.9C1.08004 46.9 0 44.82 0 42.31C0 39.2 2.22003 35.5 5.28003 35.5C7.72003 35.5 8.82001 37.58 8.82001 40.09C8.82001 43.19 6.58004 46.9 3.54004 46.9ZM5.21002 36.24C3.56002 36.24 2.37002 38.92 1.96002 40.4C1.75002 41.21 1.63 42.1 1.63 42.84C1.63 44.42 2.18003 46.16 3.59003 46.16C5.33003 46.16 6.48005 43.41 6.86005 41.88C7.05005 41.07 7.17004 40.16 7.17004 39.42C7.17004 37.84 6.62002 36.24 5.21002 36.24Z" fill="black"/>
<path d="M18.6199 32.8699C17.8799 32.8699 17.3999 32.2199 17.2299 31.3199L15.2899 31.7499C14.8399 32.7499 14.4498 34.1899 14.2098 35.8399H17.0499L17.1498 36.9199H14.0198L12.6599 44.4499C12.1299 47.4399 11.3698 50.2099 10.3198 51.3299C9.62982 52.0699 8.66986 52.4299 7.78986 52.4299C6.82986 52.4299 6.08984 51.8299 6.08984 51.0399C6.08984 50.3499 6.51986 49.8499 7.16986 49.8499C7.92986 49.8499 8.38986 50.5399 8.47986 51.3799L9.88983 50.6399C10.1998 49.9499 10.6298 47.9199 10.9398 46.1999L12.5399 36.9999L10.3898 36.8999L10.4598 36.2299L12.7299 35.7299C13.0399 34.1099 13.6399 32.3799 14.6199 31.3999C15.3799 30.6099 16.3598 30.1099 17.5798 30.1099C18.8498 30.1099 19.6599 30.8799 19.6599 31.6599C19.6699 32.3199 19.2399 32.8699 18.6199 32.8699Z" fill="black"/>
<path d="M29.8198 37.2902L30.2999 35.5002H31.7798L30.6099 39.7502L29.3398 45.4402L30.0598 45.6602L31.9498 44.0602L32.3599 44.4902C31.7899 45.5202 30.3299 46.9002 29.4199 46.9002C28.9199 46.9002 27.6998 46.4902 27.6998 46.1402C27.6998 45.8502 28.3698 43.6302 29.0598 41.4602H28.8499C27.3399 44.2102 25.7698 46.9102 24.2598 46.9102C22.9698 46.9102 22.0898 45.6902 22.0898 43.8302C22.0898 41.3902 23.2599 38.5002 24.7399 37.0202C25.5999 36.1602 26.6998 35.4902 27.6998 35.4902C28.8198 35.4902 29.3699 36.5902 29.6599 37.3102H29.8198V37.2902ZM26.7198 36.5802C26.3598 36.5802 26.0798 36.7502 25.7598 37.0602C24.8998 37.9202 23.7299 41.3402 23.7299 43.3902C23.7299 44.7802 24.1598 45.4902 24.8998 45.4902C25.7798 45.4902 26.9098 43.7202 29.1498 39.9502L29.4799 38.5602C28.9399 37.7702 27.7698 36.5802 26.7198 36.5802Z" fill="black"/>
<path d="M41.3897 46.9002C40.9097 46.9002 39.7697 46.4902 39.7697 46.1402C39.7697 45.4902 40.5097 43.2202 41.0097 41.5502C41.4397 40.0902 41.9397 38.5602 41.9397 38.0102C41.9397 37.4802 41.3697 36.9602 40.7897 36.9602C40.0697 36.9602 38.3797 39.7602 36.4197 43.7202L35.8698 46.6602L34.1198 46.5402L34.9297 43.0302L36.1997 37.0302L35.5097 36.8902L33.6198 38.7302L33.2397 38.3002C33.7897 37.1802 35.1997 35.5002 36.1097 35.5002C36.5897 35.5002 37.8297 35.9102 37.8297 36.2602C37.8297 36.7602 36.8297 40.3902 36.3197 42.3502H36.5597C38.0197 39.2902 39.2597 37.1602 40.0697 36.3002C40.5997 35.7502 41.1197 35.4902 41.7197 35.4902C42.5997 35.4902 43.5097 36.2102 43.5097 37.1602C43.5097 37.9502 43.0297 39.7902 42.5097 41.4902C42.0597 43.0202 41.5997 44.6202 41.3097 45.4302L42.0297 45.6502L43.9397 44.0502L44.3497 44.4802C43.7797 45.5102 42.2997 46.9002 41.3897 46.9002Z" fill="black"/>
<path d="M60.9099 46.5401L60.9799 45.7001L62.1498 45.5101C63.0098 45.3401 62.9598 45.0101 62.3198 43.0201L61.7198 41.1601H56.7999L56.2299 43.0001C55.5599 44.8201 55.4898 45.3701 56.2798 45.5101L57.2399 45.7001L57.3098 46.5401H52.3198L52.3898 45.7001L53.0598 45.5301C54.0598 45.2901 54.3699 44.8901 55.8599 40.7301L58.6298 32.9601V32.1001L60.7798 31.1001L65.2999 44.8601C65.3999 45.1501 65.6098 45.3601 66.0598 45.4301L67.3499 45.6901L67.4199 46.5301H60.9099V46.5401ZM59.4299 33.7301H59.2899L57.1398 40.1601H61.4199L59.4299 33.7301Z" fill="black"/>
<path d="M86.3797 32.4401L85.2597 32.6301C84.2797 32.8001 84.1797 33.0601 84.1797 37.4101V46.7501H82.9597L73.5197 33.8701H73.3997V40.7301C73.3997 45.0801 73.4997 45.3401 74.4497 45.5101L75.5997 45.7001L75.6697 46.5401H70.1997L70.2697 45.7001L71.3897 45.5101C72.3697 45.3401 72.4697 45.0801 72.4697 40.7301V34.8501C72.4697 33.4901 72.1797 32.9101 71.4397 32.6001L70.3197 32.4301L70.2497 31.5901H74.5797L83.1097 43.2701H83.2297V37.3901C83.2297 33.0401 83.1597 32.7801 82.1797 32.6101L81.0297 32.4201L80.9597 31.5801H86.4597L86.3797 32.4401Z" fill="black"/>
<path d="M103.78 46.54L102.56 46.33C101.68 46.64 100.27 46.9 98.9299 46.9C94.2699 46.9 90.5898 44.15 90.5898 39.23C90.5898 34.21 94.3198 31.27 98.9998 31.27C100.41 31.27 101.72 31.56 102.3 31.75L104.21 31.39V36.29H103.11L102.47 33.23C101.51 32.66 100.51 32.27 98.8898 32.27C95.4498 32.27 93.1298 35.09 93.1298 38.91C93.1298 43.07 95.2998 45.94 99.1998 45.94C100.18 45.94 101.28 45.7 102.14 45.22L103.17 41.92H104.32L103.78 46.54Z" fill="black"/>
<path d="M109.08 46.5401L109.15 45.7001L110.37 45.5801C110.99 45.5101 111.21 45.3701 111.21 45.1501V32.9401C111.21 32.7301 111.07 32.6501 110.37 32.5601L109.15 32.4401L109.08 31.6001H115.6L115.53 32.4401L114.31 32.5601C113.69 32.6301 113.47 32.7701 113.47 32.9901V45.2001C113.47 45.4101 113.64 45.5101 114.31 45.5801L115.53 45.7001L115.6 46.5401H109.08Z" fill="black"/>
<path d="M131.56 46.5401H119.85L119.92 45.7001L120.9 45.5801C121.52 45.5101 121.74 45.3701 121.74 45.1501V32.9401C121.74 32.7301 121.6 32.6501 120.9 32.5601L119.92 32.4401L119.85 31.6001H131.58V36.0501H130.43L129.86 33.7301C129.55 32.6301 129.31 32.5301 124.87 32.5301H124.01V38.4801H124.65C126.49 38.4801 126.82 38.4301 126.99 37.9501L127.54 36.3501H128.47L127.97 41.4901H127.06L126.87 39.9601C126.82 39.5301 126.66 39.3901 124.58 39.3901H124.01V45.6001H124.68C129.46 45.6001 129.77 45.4601 130.15 44.4001L130.72 42.2001H132.01L131.56 46.5401Z" fill="black"/>
<path d="M152.42 32.4401L151.3 32.6301C150.32 32.8001 150.22 33.0601 150.22 37.4101V46.7501H149L139.56 33.8701H139.44V40.7301C139.44 45.0801 139.54 45.3401 140.49 45.5101L141.64 45.7001L141.71 46.5401H136.24L136.31 45.7001L137.43 45.5101C138.41 45.3401 138.51 45.0801 138.51 40.7301V34.8501C138.51 33.4901 138.22 32.9101 137.48 32.6001L136.36 32.4301L136.29 31.5901H140.62L149.15 43.2701H149.27V37.3901C149.27 33.0401 149.2 32.7801 148.22 32.6101L147.07 32.4201L147 31.5801H152.5L152.42 32.4401Z" fill="black"/>
<path d="M168.34 36.2901L167.79 33.9701C167.5 32.9401 167.26 32.5801 164.11 32.5401H164.06V45.2101C164.06 45.4201 164.23 45.5201 164.9 45.5901L166.33 45.7101L166.4 46.5501H159.45L159.52 45.7101L160.95 45.5901C161.57 45.5201 161.79 45.3801 161.79 45.1601V32.5401H161.74C158.75 32.5401 158.28 32.6801 157.96 33.7401L157.29 36.3001H156.09L156.5 31.6201H169.48V36.3001H168.34V36.2901Z" fill="black"/>
<path d="M185.95 46.8999C184.28 46.9199 182.99 46.6099 181.72 46.1799L181.39 41.9299H182.39L183.47 45.1999C184.26 45.5799 185.48 45.9199 186.39 45.8899C188.44 45.8699 189.5 44.5299 189.5 43.2099C189.5 41.0799 187.78 40.4599 185.82 39.7199C183.69 38.8799 181.69 37.9999 181.69 35.3499C181.69 33.3699 183.17 31.3099 186.66 31.2599C188 31.2399 188.76 31.3799 189.53 31.5199L190.77 31.1899V35.9399H189.77L189.03 32.8799C188.15 32.4999 187.14 32.3099 186.33 32.3099C184.54 32.3099 183.68 33.4299 183.68 34.5999C183.68 36.5799 185.4 37.1599 187.26 37.8999C189.48 38.7599 191.56 39.6699 191.56 42.4399C191.54 44.6999 189.48 46.8499 185.95 46.8999Z" fill="black"/>
<path d="M201.95 40.5201C201.28 40.5201 200.64 40.4701 199.99 40.4201V45.2001C199.99 45.4101 200.16 45.5101 200.83 45.5801L202.26 45.7001L202.33 46.5401H195.83L195.9 45.7001L196.88 45.5801C197.5 45.5101 197.72 45.3701 197.72 45.1501V32.9401C197.72 32.7301 197.58 32.6501 196.88 32.5601L195.9 32.4401L195.83 31.6001H201.97C205.86 31.6001 207.8 33.4201 207.8 35.5901C207.81 38.8701 205.16 40.5201 201.95 40.5201ZM201.93 32.5401H199.99V39.4001C200.56 39.5401 201.14 39.6101 201.81 39.6101C203.87 39.6101 205.37 38.3001 205.37 36.0701C205.37 33.9001 204.01 32.5401 201.93 32.5401Z" fill="black"/>
<path d="M211.85 46.5401L211.92 45.7001L213.14 45.5801C213.76 45.5101 213.98 45.3701 213.98 45.1501V32.9401C213.98 32.7301 213.84 32.6501 213.14 32.5601L211.92 32.4401L211.85 31.6001H218.37L218.3 32.4401L217.08 32.5601C216.46 32.6301 216.24 32.7701 216.24 32.9901V45.2001C216.24 45.4101 216.41 45.5101 217.08 45.5801L218.3 45.7001L218.37 46.5401H211.85Z" fill="black"/>
<path d="M233.93 44.1499C234.74 45.2999 235.03 45.4399 235.48 45.5399L236.22 45.7099L236.32 46.5499H232.47L231.56 44.8999L228.69 39.8799L226.78 39.9499V45.2099C226.78 45.4199 226.95 45.5199 227.62 45.5899L228.79 45.7099L228.86 46.5499H222.62L222.69 45.7099L223.67 45.5899C224.29 45.5199 224.51 45.3799 224.51 45.1599V32.9499C224.51 32.7399 224.37 32.6599 223.67 32.5699L222.69 32.4499L222.62 31.6099H228.81C232.59 31.6099 234.28 33.0899 234.28 35.2899C234.28 37.3499 232.87 38.7299 230.86 39.4199L233.93 44.1499ZM228.31 32.5799C227.95 32.5799 226.78 32.6299 226.78 32.6299V38.8899L228.48 39.0299C230.49 38.8599 231.8 37.8299 231.8 35.7299C231.8 33.5899 230.63 32.4399 228.31 32.5799Z" fill="black"/>
<path d="M239.4 46.5401L239.47 45.7001L240.69 45.5801C241.31 45.5101 241.53 45.3701 241.53 45.1501V32.9401C241.53 32.7301 241.39 32.6501 240.69 32.5601L239.47 32.4401L239.4 31.6001H245.92L245.85 32.4401L244.63 32.5601C244.01 32.6301 243.79 32.7701 243.79 32.9901V45.2001C243.79 45.4101 243.96 45.5101 244.63 45.5801L245.85 45.7001L245.92 46.5401H239.4Z" fill="black"/>
<path d="M262 36.2901L261.45 33.9701C261.16 32.9401 260.92 32.5801 257.77 32.5401H257.72V45.2101C257.72 45.4201 257.89 45.5201 258.56 45.5901L259.99 45.7101L260.06 46.5501H253.11L253.18 45.7101L254.61 45.5901C255.23 45.5201 255.45 45.3801 255.45 45.1601V32.5401H255.4C252.41 32.5401 251.94 32.6801 251.62 33.7401L250.95 36.3001H249.75L250.16 31.6201H263.14V36.3001H262V36.2901Z" fill="black"/>
</svg>
