<svg width="272" height="27" viewBox="0 0 272 27" fill="none" xmlns="http://www.w3.org/2000/svg">
<path d="M0 12.02H94.29" stroke="#C09C4C" stroke-width="1.5094" stroke-miterlimit="10"/>
<path d="M177.55 12.02H271.84" stroke="#C09C4C" stroke-width="1.5094" stroke-miterlimit="10"/>
<path d="M137.67 0C130.48 0 124.65 5.83002 124.65 13.02C124.65 20.21 130.48 26.04 137.67 26.04C144.86 26.04 150.69 20.21 150.69 13.02C150.69 5.83002 144.86 0 137.67 0ZM137.67 19.52C132.61 19.52 128.5 15.42 128.5 10.35C128.5 5.28004 132.6 1.18005 137.67 1.18005C142.74 1.18005 146.84 5.28004 146.84 10.35C146.84 15.42 142.73 19.52 137.67 19.52Z" fill="#C09C4C"/>
<path d="M137.67 14.33C140.923 14.33 143.56 11.693 143.56 8.44C143.56 5.18705 140.923 2.55005 137.67 2.55005C134.417 2.55005 131.78 5.18705 131.78 8.44C131.78 11.693 134.417 14.33 137.67 14.33Z" fill="#C09C4C"/>
</svg>
