<svg width="93" height="141" viewBox="0 0 93 141" fill="none" xmlns="http://www.w3.org/2000/svg">
<path d="M12.2 11.6657C12.7136 12.3994 12.9337 12.5003 13.2272 12.5645L14.1076 12.7112L14.1718 13.4449H11.0078L10.1916 11.9592L7.5686 7.48367C7.5686 7.48367 5.71603 7.52953 5.71603 7.50201V12.2985C5.71603 12.4728 5.84443 12.537 6.27547 12.5737L7.50441 12.7021L7.5686 13.4358H2.21265L2.27684 12.7021L3.39573 12.5737C3.79926 12.5278 3.95516 12.4453 3.95516 12.271V1.13722C3.95516 0.96297 3.84511 0.92629 3.39573 0.862092L2.27684 0.733689L2.21265 0H7.72451C10.9986 0 12.4568 1.35733 12.4568 3.29244C12.4568 5.22756 11.1912 6.50236 9.27444 7.14434L12.2 11.6657ZM7.16507 0.834572C6.92662 0.834572 5.7252 0.880431 5.7252 0.880431V6.60324C5.7252 6.62158 7.55943 6.75914 7.55943 6.75914C9.34781 6.56655 10.5492 5.57607 10.5492 3.68681C10.5492 1.74252 9.44869 0.706176 7.16507 0.834572Z" fill="black"/>
<path d="M27.5523 0.733689L26.9103 0.843746C26.3509 1.018 25.9657 1.2106 25.443 2.00849L22.068 7.6029V12.3169C22.068 12.4911 22.178 12.5553 22.6274 12.592L24.0856 12.7204L24.1498 13.4541H18.1886L18.2528 12.7204L19.7385 12.592C20.142 12.5462 20.2979 12.4636 20.2979 12.2894V7.81383L16.2993 1.48572C16.1251 1.24727 15.8224 0.972143 15.4189 0.880431L14.5384 0.733689L14.4742 0H19.7293L19.6651 0.733689L18.5921 0.862092C18.0969 0.92629 18.1427 1.35733 18.8489 2.52207L21.4352 6.805H21.5452L24.3424 2.02683C24.7918 1.27479 24.7093 0.9538 24.1682 0.843746L23.3519 0.733689L23.2877 0H27.6349L27.5523 0.733689Z" fill="black"/>
<path d="M43.6756 0.733689L42.4099 0.907943C41.7588 1.018 41.6946 1.18308 41.6946 3.96194V8.99691C41.6946 11.9684 39.7136 13.7751 36.5496 13.7751C33.413 13.7751 31.4504 12.2894 31.4504 8.82266V1.13722C31.4504 0.96297 31.3404 0.898776 30.891 0.862092L29.7721 0.733689L29.7079 0H34.9538L34.8896 0.733689L33.7707 0.862092C33.3672 0.907948 33.2113 0.990483 33.2113 1.16473V8.61172C33.2113 11.6932 34.9171 12.6746 37.1549 12.6746C39.5669 12.6746 40.8325 11.1521 40.8325 8.88686V3.96194C40.8325 1.18308 40.7683 1.018 40.1447 0.907943L38.8515 0.733689L38.7873 0H43.7398L43.6756 0.733689Z" fill="black"/>
<path d="M54.094 13.4449L54.1582 12.7112L54.9928 12.5828C55.1671 12.537 55.1487 12.326 54.9928 12.1059L51.2051 6.76832L49.7469 8.20819V12.2985C49.7469 12.4728 49.8753 12.537 50.3063 12.5737L51.4252 12.7021L51.4894 13.4358H46.2435L46.3077 12.7021L47.4266 12.5737C47.8301 12.5278 47.986 12.4453 47.986 12.271V1.13722C47.986 0.96297 47.876 0.92629 47.4266 0.862092L46.3077 0.733689L46.2435 0H51.4894L51.4252 0.733689L50.3063 0.862092C49.9028 0.907948 49.7469 0.990483 49.7469 1.16473V7.06179L54.3692 2.41201C55.4881 1.33899 55.4697 0.92629 54.8186 0.862092L53.718 0.733689L53.6538 0H58.7989L58.7347 0.733689L57.8267 0.843746C57.3315 0.935457 56.9463 1.16474 56.2126 1.89843L52.379 5.70447L57.0013 11.9042C57.3865 12.4636 57.5607 12.5553 57.9918 12.6195L58.7713 12.7296L58.8355 13.4633H54.094V13.4449Z" fill="black"/>
<path d="M73.6466 0.733689L73.0046 0.843746C72.4451 1.018 72.06 1.2106 71.5372 2.00849L68.1622 7.6029V12.3169C68.1622 12.4911 68.2723 12.5553 68.7216 12.592L70.1799 12.7204L70.2441 13.4541H64.2828L64.347 12.7204L65.8327 12.592C66.2363 12.5462 66.3922 12.4636 66.3922 12.2894V7.81383L62.3935 1.48572C62.2193 1.24727 61.9166 0.972143 61.5131 0.880431L60.6327 0.733689L60.5685 0H65.8236L65.7594 0.733689L64.6863 0.862092C64.1911 0.92629 64.237 1.35733 64.9431 2.52207L67.5294 6.805H67.6395L70.4367 2.02683C70.886 1.27479 70.8035 0.9538 70.2624 0.843746L69.4462 0.733689L69.382 0H73.7291L73.6466 0.733689Z" fill="black"/>
<path d="M89.7698 0.733689L88.5042 0.907943C87.853 1.018 87.7888 1.18308 87.7888 3.96194V8.99691C87.7888 11.9684 85.8079 13.7751 82.6438 13.7751C79.5073 13.7751 77.5446 12.2894 77.5446 8.82266V1.13722C77.5446 0.96297 77.4346 0.898776 76.9852 0.862092L75.8663 0.733689L75.8021 0H81.048L80.9838 0.733689L79.8649 0.862092C79.4614 0.907948 79.3055 0.990483 79.3055 1.16473V8.61172C79.3055 11.6932 81.0113 12.6746 83.2491 12.6746C85.6611 12.6746 86.9268 11.1521 86.9268 8.88686V3.96194C86.9268 1.18308 86.8626 1.018 86.2389 0.907943L84.9458 0.733689L84.8816 0H89.834L89.7698 0.733689Z" fill="black"/>
<path d="M21.2611 43.7649L20.4907 43.9116C19.8212 44.1317 19.6928 44.2143 18.7849 46.9931L15.7676 56.522H14.5203L11.4021 47.2224H11.3562L8.10964 56.522H6.83485L2.83622 44.3885C2.77202 44.1684 2.64362 44.0217 2.32263 43.985L1.04784 43.7649L0.983643 43.0312H6.51385L6.44966 43.7649L5.22072 43.9116C4.67962 44.0033 4.74382 44.2601 5.17486 45.5257L7.86202 54.2659H7.94456L10.8702 45.9568L10.3566 44.3885C10.2924 44.1684 10.164 44.0217 9.81548 43.985L8.58654 43.7649L8.52234 43.0312H13.9884L13.9242 43.7649L12.6494 43.9116C12.1816 44.0033 12.2 44.3243 12.6035 45.5257L15.4466 54.2842L15.5108 54.2659L17.6843 46.9931C18.5464 44.2785 18.4364 44.0859 17.6843 43.9391L16.5655 43.7649L16.5013 43.0312H21.2978L21.2611 43.7649Z" fill="black"/>
<path d="M32.1471 56.476L32.2113 55.7423L33.3301 55.6139C33.7428 55.5681 33.8896 55.4855 33.8896 55.3113V50.0195H26.9378V55.3296C26.9378 55.5039 27.0662 55.5681 27.4973 55.6048L28.6162 55.7331L28.6804 56.4668H23.4344L23.4986 55.7331L24.6175 55.6048C25.0211 55.5589 25.177 55.4764 25.177 55.3021V44.1591C25.177 43.9849 25.0669 43.9482 24.6175 43.884L23.4986 43.7556L23.4344 43.0219H28.6804L28.6162 43.7556L27.4973 43.884C27.0937 43.9299 26.9378 44.0124 26.9378 44.1866V49.1391H33.8896V44.1683C33.8896 43.9757 33.7795 43.9299 33.3301 43.8932L32.2113 43.7648L32.1471 43.0311H37.393L37.3288 43.7648L36.2099 43.8932C35.7972 43.939 35.6504 44.0216 35.6504 44.1958V55.3388C35.6504 55.513 35.7605 55.5589 36.2099 55.6139L37.3288 55.7423L37.393 56.476H32.1471Z" fill="black"/>
<path d="M40.1171 56.4761L40.1813 55.7424L41.5111 55.614C41.9146 55.5682 42.0705 55.4856 42.0705 55.3114V44.1684C42.0705 43.9942 41.9605 43.9575 41.5111 43.8933L40.1813 43.7649L40.1171 43.0312H45.794L45.7298 43.7649L44.4 43.8933C43.9873 43.9391 43.8406 44.0217 43.8406 44.1959V55.3389C43.8406 55.5131 43.969 55.5773 44.4 55.614L45.7298 55.7424L45.794 56.4761H40.1171Z" fill="black"/>
<path d="M52.4523 56.7969C51.0124 56.8152 49.7651 56.5584 48.6921 56.2191L48.3711 52.413H49.2332L50.132 55.3845C50.8381 55.7055 51.9387 55.9623 52.7733 55.9623C54.7359 55.9439 55.7814 54.7333 55.7814 53.4219C55.7814 51.6335 54.4699 51.0374 52.4064 50.2578C50.3246 49.4599 48.6371 48.6437 48.6371 46.3876C48.6371 44.4708 50.0769 42.7558 53.0759 42.7283C54.2406 42.7099 54.9927 42.8384 55.5888 42.9667L56.7077 42.6458V46.8828H55.8456L55.2403 44.1315C54.5341 43.8105 53.562 43.5904 52.7916 43.5904C51.0491 43.5904 50.187 44.6634 50.187 45.8281C50.187 47.5707 51.6085 48.1301 53.4978 48.8638C55.6713 49.6617 57.368 50.4779 57.368 52.8441C57.3863 54.9443 55.5063 56.7785 52.4523 56.7969Z" fill="black"/>
<path d="M67.6121 56.476L67.6763 55.7423L68.5109 55.6139C68.6851 55.5681 68.6668 55.3571 68.5109 55.137L64.7232 49.7994L63.265 51.2393V55.3296C63.265 55.5039 63.3934 55.5681 63.8244 55.6048L64.9433 55.7331L65.0075 56.4668H59.7616L59.8258 55.7331L60.9447 55.6048C61.3482 55.5589 61.5041 55.4764 61.5041 55.3021V44.1591C61.5041 43.9849 61.3941 43.9482 60.9447 43.884L59.8258 43.7556L59.7616 43.0219H65.0075L64.9433 43.7556L63.8244 43.884C63.4209 43.9299 63.265 44.0124 63.265 44.1866V50.0837L67.8872 45.4339C69.0061 44.3609 68.9878 43.9482 68.3366 43.884L67.2361 43.7556L67.1719 43.0219H72.3169L72.2527 43.7556L71.3448 43.8657C70.8495 43.9574 70.4644 44.1866 69.7307 44.9203L65.8971 48.7264L70.5194 54.9261C70.9046 55.4855 71.0788 55.5772 71.5099 55.6414L72.2894 55.7515L72.3536 56.4852H67.6121V56.476Z" fill="black"/>
<path d="M87.165 43.7649L86.523 43.8749C85.9636 44.0492 85.5784 44.2418 85.0556 45.0397L81.6806 50.6341V55.3481C81.6806 55.5223 81.7907 55.5865 82.2401 55.6232L83.6983 55.7516L83.7625 56.4853H77.8012L77.8654 55.7516L79.3512 55.6232C79.7547 55.5773 79.9106 55.4948 79.9106 55.3205V50.845L75.912 44.5169C75.7377 44.2785 75.4351 44.0033 75.0315 43.9116L74.1511 43.7649L74.0869 43.0312H79.342L79.2778 43.7649L78.2048 43.8933C77.7095 43.9575 77.7554 44.3885 78.4615 45.5533L81.0478 49.8362H81.1579L83.9551 45.058C84.4045 44.306 84.3219 43.985 83.7808 43.8749L82.9646 43.7649L82.9004 43.0312H87.2475L87.165 43.7649Z" fill="black"/>
<path d="M5.22977 96.2789C5.22977 98.3425 5.22977 98.425 5.24811 101.231C5.22977 101.598 4.97298 101.699 4.08338 101.699C3.71653 101.699 3.58813 101.617 3.58813 101.332C3.65233 96.5816 3.69818 90.5286 3.69818 85.7505C3.69818 83.9896 3.69819 83.9621 3.65233 82.9532C4.46857 83.4026 4.70701 83.531 5.44071 84.0538H18.1153C18.4179 83.5585 18.5463 83.4301 18.9315 82.9808C19.5093 83.4118 19.711 83.5677 20.3072 84.0538C20.4814 84.228 20.5456 84.3106 20.5456 84.4023C20.5456 84.5307 20.4539 84.5949 19.8578 85.0259V95.0317C19.8761 96.6641 19.8761 98.2783 19.8761 99.8557C19.8578 100.865 19.4909 101.103 17.2348 101.534C17.0789 100.929 16.9138 100.626 16.5653 100.369C16.3544 100.213 15.9875 100.112 15.4006 100.021C15.3822 100.021 15.1621 99.9749 14.7311 99.9382C14.511 99.9199 14.2817 99.8924 14.0616 99.8557L14.0799 99.4889C15.1346 99.5531 15.1346 99.5531 17.9135 99.709C17.9593 99.709 17.9777 99.709 18.0052 99.709C18.262 99.709 18.3262 99.6448 18.3262 99.4522V91.8768H5.22977V96.2789ZM10.9159 84.549H5.23894V91.3724H10.9159V84.549ZM18.3354 91.3724V84.549H12.4383V91.3724H18.3354Z" fill="black"/>
<path d="M6.65117 118.996C6.65117 118.546 6.62366 118.262 6.58697 117.684C7.19227 117.813 7.36652 117.859 7.83425 117.987C8.43955 117.602 8.66883 117.409 9.27412 116.886H4.15661C3.72557 116.886 3.14779 116.932 2.6342 117.015L2.50581 116.235C3.22116 116.364 3.49629 116.391 4.16579 116.391H9.2833C9.58595 116.07 9.66849 115.979 9.97113 115.703C10.7874 116.153 10.7874 116.153 11.5853 116.611C11.7595 116.721 11.8237 116.786 11.8237 116.868C11.8237 117.061 11.677 117.107 10.8791 117.171C9.90693 117.666 9.65014 117.776 7.99016 118.372V119.152C9.34749 118.996 9.97114 118.913 11.6495 118.675L11.732 118.996C10.2004 119.381 9.55843 119.537 7.99016 119.858V120.372C7.99016 120.867 7.99016 120.867 8.00851 122.16C8.00851 123.04 7.70586 123.279 6.07339 123.6C5.99085 122.719 5.70654 122.545 4.13827 122.417L4.15661 122.096C5.53229 122.16 5.59649 122.16 6.44024 122.178C6.63283 122.178 6.66034 122.132 6.66034 121.921V120.115C5.41306 120.372 5.02787 120.436 3.0469 120.757C2.91851 121.252 2.80845 121.445 2.66171 121.445C2.48746 121.445 2.48746 121.426 1.97388 119.509C2.21233 119.528 2.40492 119.528 2.50581 119.528C2.93685 119.528 5.6882 119.354 6.66034 119.271V118.996H6.65117ZM10.5673 110.366C10.9525 109.852 11.0808 109.696 11.466 109.229C12.1355 109.788 12.3281 109.962 12.9976 110.558C13.0618 110.641 13.0802 110.687 13.0802 110.733C13.0802 110.797 12.9976 110.861 12.8601 110.861H3.8448C3.22116 110.861 2.90016 110.879 2.29487 110.989L2.13896 110.173C2.8268 110.329 3.2395 110.366 3.94568 110.366H6.63283V109.586C6.63283 108.944 6.60531 108.687 6.54111 108.064C7.03636 108.128 7.4032 108.174 7.66 108.192C8.66883 108.302 8.95313 108.366 8.95313 108.577C8.95313 108.77 8.77888 108.853 8.09104 109.027V110.357H10.5673V110.366ZM5.44058 123.453C5.31218 125.067 5.03704 126.03 4.51429 126.791C4.03739 127.461 3.28536 127.993 2.83597 127.993C2.46912 127.993 2.23067 127.562 2.23067 126.938C2.23067 126.47 2.37741 126.296 2.83597 126.159C3.33121 126.03 3.90899 125.645 4.29418 125.168C4.66103 124.719 4.85362 124.306 5.11041 123.38L5.44058 123.453ZM4.94533 115.465C4.94533 115.658 4.89948 115.722 4.77109 115.768C4.61518 115.832 4.32169 115.878 3.95485 115.878C3.73474 115.878 3.67971 115.813 3.67971 115.639C3.67971 115.639 3.67971 115.621 3.67971 115.593C3.72557 114.63 3.72557 114.3 3.72557 113.466C3.72557 112.778 3.70723 112.218 3.67971 111.402C4.30335 111.677 4.49594 111.787 5.10124 112.108H9.51258C9.85191 111.723 9.96196 111.613 10.3105 111.246C10.7874 111.613 10.9341 111.723 11.3835 112.108C11.5119 112.237 11.5577 112.301 11.5577 112.347C11.5577 112.457 11.4293 112.567 11.0442 112.759C11.0442 113.145 11.0442 113.466 11.0442 113.658C11.0442 114.474 11.0442 114.557 11.0717 115.227C11.0717 115.245 11.0717 115.245 11.0717 115.245C11.0717 115.355 11.0442 115.392 10.9433 115.437C10.7965 115.502 10.338 115.566 10.0445 115.566C9.87025 115.566 9.80605 115.52 9.80605 115.346V115.071H4.94533V115.465ZM4.94533 114.585H9.78771V112.604H4.94533V114.585ZM8.63215 123.536C10.0262 124.847 10.6315 125.645 10.6315 126.204C10.6315 126.938 10.0537 127.727 9.53092 127.727C9.29247 127.727 9.25578 127.598 9.20993 126.929C9.12739 125.599 8.97147 124.975 8.41203 123.655L8.63215 123.536ZM15.9416 113.08C15.859 114.713 15.6389 116.024 15.2996 117.207C16.5927 118.501 17.088 119.225 17.088 119.83C17.088 120.436 16.7211 121.206 16.446 121.206C16.2259 121.206 16.1892 121.124 15.804 120.115C15.6297 119.684 15.3088 119.106 14.8777 118.409C14.4283 119.399 13.8872 120.216 13.181 120.995C12.1447 122.096 11.2276 122.719 9.54926 123.444L9.39335 123.187C10.9249 122.215 11.8237 121.38 12.7041 120.087C13.3278 119.188 13.7405 118.299 14.0615 117.244C13.4837 116.492 13.0985 116.061 12.1906 115.071L12.3373 114.814C13.2819 115.437 13.6121 115.676 14.2724 116.254C14.465 115.199 14.5475 114.447 14.6393 113.071H13.5662C12.8784 113.071 12.6583 113.09 12.1447 113.181L12.0163 112.429C12.5757 112.558 12.7683 112.576 13.5662 112.576H14.6668C14.7126 111.677 14.7126 111.246 14.7126 110.32C14.7126 109.394 14.6943 108.88 14.6209 108.165C15.0703 108.229 15.4372 108.275 15.6756 108.293C16.7119 108.403 16.9871 108.486 16.9871 108.697C16.9871 108.853 16.7486 108.953 16.0608 109.146C16.0424 110.843 16.0424 111.466 15.9691 112.567H17.5832C17.9225 112.163 18.0326 112.026 18.3994 111.641C18.913 111.98 19.0689 112.117 19.5367 112.475C19.7109 112.622 19.7935 112.732 19.7935 112.814C19.7935 112.989 19.6192 113.09 18.8947 113.356C18.8763 114.043 18.8763 114.557 18.8763 114.887C18.8763 116.584 19.0047 117.703 19.3074 118.932C19.5275 119.812 19.7201 120.225 20.2795 120.977C20.2979 120.885 20.7106 119.794 21.4809 117.703L21.7377 117.767L21.1141 120.977C21.0499 121.316 21.0316 121.426 21.0316 121.555C21.0316 121.793 21.0316 121.793 21.3067 122.16C21.4167 122.334 21.4993 122.591 21.4993 122.829C21.4993 123.196 21.2425 123.453 20.894 123.453C20.3804 123.453 19.7751 122.894 19.1698 121.885C18.0509 119.904 17.6199 117.712 17.6199 113.732C17.6199 113.585 17.6199 113.365 17.6199 113.062H15.9416V113.08ZM12.9059 123.279C14.7585 124.572 15.5564 125.452 15.5564 126.186C15.5564 126.397 15.4463 126.81 15.2996 127.131C15.1437 127.433 14.8869 127.672 14.6759 127.672C14.4375 127.672 14.3091 127.433 14.1348 126.746C13.8139 125.452 13.5571 124.829 12.7408 123.453L12.9059 123.279ZM17.6015 123.15C20.0961 124.636 20.7839 125.278 20.7839 126.159C20.7839 126.938 20.3988 127.727 20.0319 127.727C19.8393 127.727 19.6926 127.58 19.555 127.186C18.8672 125.397 18.4178 124.609 17.3814 123.444L17.6015 123.15Z" fill="black"/>
<path d="M39.6492 87.4379L40.8965 86.4749L42.0154 87.337C42.1255 87.4012 42.1897 87.5296 42.1897 87.6763C42.1897 87.979 41.9329 88.089 41.6944 88.089H34.5501L34.3942 87.4379H39.6492ZM35.1095 95.7836L36.0541 96.4256H39.475L39.9427 95.6919L40.8048 96.2972C40.9332 96.3798 40.9791 96.5357 40.9791 96.6641C40.9607 96.7925 40.869 96.9025 40.7406 96.9392C40.6306 97.0034 40.548 97.0859 40.548 97.1777V102.258C40.548 102.534 40.4655 102.561 39.7501 102.754C39.5759 102.754 39.475 102.598 39.475 102.258V101.296H36.1825V102.69C36.1825 102.928 35.7974 103.093 35.3847 103.093C35.1921 103.093 35.1095 102.965 35.1095 102.644V95.7836ZM38.8147 84.4939L40.0619 83.5218L41.1808 84.3839C41.2909 84.4481 41.3551 84.5765 41.3551 84.7324C41.3551 85.0075 41.1441 85.1634 40.8598 85.1634H35.3938L35.2379 84.4939H38.8147ZM38.6404 90.3818L39.8877 89.4189L41.0066 90.281C41.1166 90.3451 41.1808 90.4735 41.1808 90.6019C41.1808 90.8404 41.0066 91.033 40.7039 91.033H35.3938L35.2379 90.391H38.6404V90.3818ZM38.6404 93.3991L39.8877 92.427L41.0066 93.2891C41.1166 93.3533 41.1808 93.4817 41.1808 93.6284C41.1808 93.9036 40.9607 94.0595 40.7039 94.0595H35.3938L35.2379 93.39H38.6404V93.3991ZM36.1825 100.626H39.475V97.0768H36.1825V100.626ZM53.3968 101.745C53.3968 102.323 52.9016 102.818 51.4617 103.075L51.2875 102.469C51.2049 102.249 50.8381 102.038 50.2786 101.8C50.1502 101.754 50.086 101.672 50.086 101.561C50.086 101.433 50.1319 101.369 50.2603 101.369C50.4345 101.369 51.5076 101.525 51.746 101.525C52.0028 101.525 52.3513 101.525 52.3513 101.011V84.8975H44.0881V88.0799C44.0881 95.6736 43.3544 100.039 41.4835 103.056C41.4193 103.102 41.3551 103.121 41.3092 103.121C41.1992 103.121 41.135 103.011 41.135 102.946C41.135 102.9 41.1533 102.855 41.1808 102.818C41.9787 100.837 42.4098 99.3971 42.7491 95.4351C42.905 93.711 43.0059 91.2439 43.0059 88.0799V83.4117L44.0606 84.2463H52.3421L52.819 83.641L53.6536 84.3289C53.8279 84.4573 53.9287 84.604 53.9287 84.7783C53.9287 84.9525 53.8187 85.0992 53.6536 85.1451C53.4794 85.2093 53.3968 85.3193 53.3968 85.4019V101.745ZM44.8952 92.1243L44.7209 91.4549H47.3622V88.8319H44.4549L44.2807 88.1899H47.353V85.6128L48.4719 85.8329C48.7929 85.8788 48.9488 86.0072 48.9488 86.1539C48.9488 86.3282 48.8388 86.4566 48.692 86.4933C48.5178 86.5575 48.4352 86.6858 48.4352 86.8326V88.1899H49.6L50.6546 87.1994L51.5993 88.0615C51.7093 88.1441 51.746 88.2725 51.746 88.4009C51.746 88.621 51.5993 88.8319 51.315 88.8319H48.426V91.4549H49.1597L50.2328 90.4827L51.1774 91.3448C51.2874 91.409 51.3333 91.5374 51.3333 91.6658C51.3333 91.8859 51.1591 92.1152 50.8839 92.1152H44.8952V92.1243ZM45.262 93.9311L46.2066 94.573H49.5633L50.0402 93.8394L50.9023 94.4447C51.0307 94.5272 51.0765 94.6831 51.0765 94.8115C51.0582 94.9399 50.9665 95.0499 50.8381 95.0866C50.7097 95.1508 50.618 95.2426 50.618 95.3251V100.342C50.618 100.599 50.5354 100.617 49.8201 100.819C49.6733 100.819 49.5633 100.663 49.5633 100.342V99.5897H46.335V100.342C46.335 100.599 45.8398 100.754 45.5646 100.754C45.3445 100.754 45.262 100.599 45.262 100.305V93.9311ZM46.3442 98.9477H49.5724V95.2242H46.3442V98.9477Z" fill="black"/>
<path d="M39.0437 117.684C37.6222 122.893 34.7883 125.26 34.5682 125.26C34.4582 125.26 34.4398 125.131 34.4398 125.085C34.4398 125.04 34.4582 124.975 34.504 124.939C36.8518 122.123 37.7506 119.537 38.5302 116.006H34.8984L34.7241 115.364H39.0529V111.64C37.8698 111.916 36.5767 112.154 35.2469 112.328C34.9901 112.328 34.9442 112.246 34.9442 112.108C34.9442 111.998 35.0084 111.916 35.1185 111.888C37.5488 111.439 41.0522 110.366 42.3087 109.109L43.235 109.825C43.3634 109.935 43.4276 110.045 43.4276 110.146C43.4276 110.338 43.235 110.448 43.1066 110.448L42.4829 110.43C42.3362 110.512 40.5295 111.329 40.1351 111.329V115.355H41.3182L42.6755 114.218L44.0512 115.254C44.1613 115.318 44.2254 115.428 44.2254 115.575C44.2254 115.832 44.0329 116.006 43.7302 116.006H40.1351V117.427C41.685 118.225 43.7486 120.206 43.7486 121.169C43.7486 121.252 43.7485 121.747 43.2533 121.747C42.8681 121.747 42.7856 121.472 42.7581 121.426C42.3087 120.463 41.7676 119.619 41.2081 118.977L40.1351 117.941V128.745C40.1351 129.047 39.3556 129.13 39.3189 129.13C39.1446 129.13 39.0621 129.001 39.0621 128.745V117.684H39.0437ZM45.5278 110.852L46.6008 111.75H52.1769L52.6904 111.035L53.6809 111.705C53.7451 111.75 53.7635 111.815 53.7635 111.897C53.7635 112.154 53.5892 112.282 53.4608 112.328C53.2866 112.392 53.2499 112.484 53.2499 112.548V127.589C53.2499 127.699 53.1398 127.809 53.0114 127.864C52.2594 128.038 52.1769 128.057 52.1769 127.607V126.186H46.6008V127.754C46.6008 128.011 46.4082 128.057 45.7387 128.231C45.592 128.231 45.5278 128.057 45.5278 127.754V110.852ZM46.6008 125.526H52.1769V112.402H46.6008V125.526Z" fill="black"/>
<path d="M0.99231 25.78H92.0161" stroke="#C09C4C" stroke-width="1.173" stroke-miterlimit="10"/>
<path d="M0.992432 69.1231H92.0162" stroke="#C09C4C" stroke-width="1.173" stroke-miterlimit="10"/>
<path d="M0.992432 140.227H92.0162" stroke="#C09C4C" stroke-width="1.173" stroke-miterlimit="10"/>
</svg>
