<svg width="91" height="146" viewBox="0 0 91 146" fill="none" xmlns="http://www.w3.org/2000/svg">
<g clip-path="url(#clip0_505_518)">
<path d="M3.68979 107.553C3.68979 109.345 3.68979 109.412 3.68979 111.845C3.68979 112.155 3.44529 112.243 2.66732 112.243C2.35613 112.243 2.245 112.177 2.245 111.933C2.31168 107.819 2.33391 102.576 2.33391 98.4394C2.33391 96.9131 2.33391 96.891 2.28945 96.0061C3.00074 96.4043 3.20078 96.5149 3.84539 96.9573H14.9148C15.1815 96.537 15.2926 96.4264 15.626 96.0282C16.1373 96.4043 16.2929 96.537 16.8263 96.9573C16.9819 97.1122 17.0264 97.1785 17.0264 97.267C17.0264 97.3776 16.9597 97.444 16.4262 97.7979V106.469C16.4262 107.885 16.4262 109.279 16.4262 110.65C16.4262 111.535 16.0928 111.734 14.1146 112.11C13.9812 111.579 13.8256 111.336 13.5366 111.093C13.3588 110.96 13.0254 110.872 12.5142 110.783C12.5142 110.783 12.3141 110.739 11.9363 110.717C11.7584 110.717 11.5362 110.672 11.3583 110.65V110.341C11.9807 110.385 13.0995 110.444 14.7147 110.518H14.7814C15.0037 110.518 15.0704 110.451 15.0704 110.296V103.726H3.68979V107.553ZM8.64656 97.3997H3.68979V103.306H8.64656V97.3997ZM15.1148 103.306V97.3997H9.98022V103.306H15.1148Z" fill="black"/>
<path d="M4.93452 127.241C4.93452 126.843 4.93452 126.6 4.86784 126.113C5.40131 126.224 5.53467 126.268 5.957 126.379C6.49046 126.047 6.69051 125.87 7.20175 125.427H2.75621C2.37834 125.427 1.86711 125.472 1.42256 125.538L1.31142 124.874C1.93379 124.985 2.1783 125.007 2.75621 125.007H7.22397C7.4907 124.719 7.55739 124.653 7.82412 124.41C8.29831 124.675 8.76509 124.933 9.22446 125.184C9.38006 125.272 9.42451 125.339 9.42451 125.405C9.42451 125.582 9.29114 125.604 8.60209 125.671C7.75744 126.091 7.53516 126.202 6.09036 126.71V127.374C7.26843 127.241 7.82412 127.175 9.26892 126.954L9.3356 127.241C8.00194 127.573 7.44625 127.706 6.06813 127.993V128.436C6.06813 128.716 6.06813 129.232 6.06813 129.984C6.06813 130.759 5.8014 130.958 4.37883 131.223C4.31215 130.449 4.06765 130.316 2.68953 130.205V129.918C3.91205 129.984 3.95651 129.984 4.69002 129.984C4.86784 129.984 4.86784 129.94 4.86784 129.763V128.192C3.77869 128.414 3.44527 128.48 1.71152 128.745C1.60038 129.166 1.51147 129.343 1.3781 129.343C1.22251 129.343 1.22251 129.343 0.777954 127.662C0.978003 127.662 1.15582 127.662 1.24473 127.662C1.6226 127.662 4.02319 127.507 4.86784 127.44V127.197L4.93452 127.241ZM8.33536 119.764C8.66877 119.322 8.77991 119.189 9.11332 118.769C9.69124 119.255 9.86906 119.41 10.447 119.919C10.5137 119.985 10.5137 120.03 10.5137 120.074C10.5137 120.14 10.447 120.185 10.3358 120.185H2.48948C1.95602 120.185 1.66706 120.185 1.1336 120.295L1.00023 119.587C1.60038 119.72 1.95602 119.764 2.57839 119.764H4.9123V119.101C4.9123 118.548 4.9123 118.326 4.84561 117.773C5.26794 117.84 5.60135 117.862 5.82363 117.884C6.71274 117.972 6.95724 118.039 6.95724 118.216C6.95724 118.393 6.80165 118.459 6.2015 118.614V119.764H8.33536ZM3.8676 131.112C3.75646 132.506 3.51196 133.347 3.0674 134.01C2.64508 134.585 2.00047 135.05 1.60038 135.05C1.28919 135.05 1.06691 134.674 1.06691 134.143C1.06691 133.745 1.20028 133.59 1.60038 133.479C2.0227 133.369 2.53394 133.037 2.86735 132.617C3.17854 132.219 3.35636 131.865 3.57864 131.068L3.8676 131.135V131.112ZM3.44527 124.189C3.44527 124.365 3.40082 124.41 3.28968 124.454C3.15631 124.52 2.88958 124.542 2.57839 124.542C2.40057 124.542 2.33389 124.476 2.33389 124.343V124.299C2.37834 123.459 2.37834 123.171 2.37834 122.463C2.37834 121.866 2.37834 121.379 2.33389 120.671C2.86735 120.915 3.04517 121.003 3.57864 121.291H7.42402C7.71298 120.959 7.82412 120.87 8.11308 120.539C8.5354 120.848 8.64654 120.959 9.04664 121.291C9.15778 121.401 9.20223 121.468 9.20223 121.49C9.20223 121.578 9.09109 121.667 8.75768 121.844V122.618C8.75768 123.326 8.75768 123.392 8.75768 123.989C8.75768 124.1 8.75768 124.144 8.64654 124.166C8.51318 124.233 8.11308 124.277 7.86857 124.277C7.71298 124.277 7.66853 124.233 7.66853 124.1V123.857H3.44527V124.189ZM3.44527 123.414H7.66853V121.689H3.44527V123.414ZM6.64605 131.179C7.86857 132.307 8.37981 133.015 8.37981 133.502C8.37981 134.143 7.86857 134.829 7.42402 134.829C7.22397 134.829 7.17952 134.718 7.13506 134.143C7.06838 132.993 6.93501 132.44 6.44601 131.312L6.62383 131.201L6.64605 131.179ZM13.0254 122.109C12.9587 123.525 12.7587 124.675 12.4697 125.693C13.6033 126.821 14.0256 127.44 14.0256 127.971C14.0256 128.502 13.7144 129.166 13.4699 129.166C13.2921 129.166 13.2477 129.099 12.9143 128.215C12.7587 127.839 12.4919 127.33 12.1141 126.732C11.714 127.595 11.2472 128.303 10.6248 128.967C9.7357 129.918 8.91327 130.449 7.46848 131.09L7.33511 130.869C8.66877 130.029 9.44674 129.299 10.2247 128.192C10.7804 127.418 11.1138 126.644 11.4028 125.737C10.8915 125.073 10.5581 124.719 9.78015 123.857L9.91352 123.635C10.7359 124.189 11.0249 124.388 11.6028 124.896C11.7806 123.989 11.8473 123.326 11.914 122.131H10.9804C10.3803 122.131 10.2025 122.131 9.7357 122.22L9.62456 121.578C10.1136 121.689 10.2914 121.711 10.9804 121.711H11.9362C11.9807 120.937 11.9807 120.561 11.9807 119.764C11.9807 118.968 11.9807 118.525 11.914 117.906C12.3141 117.972 12.6253 117.995 12.8253 118.017C13.7144 118.105 13.959 118.194 13.959 118.371C13.959 118.503 13.7589 118.592 13.1588 118.769C13.1588 120.251 13.1588 120.782 13.0921 121.733H14.4924C14.7814 121.379 14.8925 121.269 15.2037 120.937C15.6483 121.224 15.7816 121.357 16.2039 121.667C16.3595 121.799 16.4262 121.888 16.4262 121.954C16.4262 122.109 16.2706 122.198 15.6483 122.419C15.6483 123.016 15.6483 123.459 15.6483 123.746C15.6483 125.228 15.7594 126.179 16.0261 127.241C16.2039 128.015 16.3818 128.369 16.8708 129.011C16.8708 128.945 17.2486 127.993 17.9155 126.179L18.1377 126.246L17.6043 129.033C17.5376 129.321 17.5376 129.431 17.5376 129.542C17.5376 129.675 17.6191 129.852 17.7821 130.073C17.871 130.228 17.9599 130.449 17.9599 130.648C17.9599 130.958 17.7377 131.201 17.4265 131.201C16.9819 131.201 16.4484 130.714 15.9372 129.829C14.9592 128.104 14.5813 126.202 14.5813 122.751V122.175H13.1143L13.0254 122.109ZM10.3803 130.958C12.0029 132.086 12.692 132.838 12.692 133.479C12.692 133.656 12.6031 134.01 12.4697 134.298C12.3363 134.563 12.1141 134.762 11.9362 134.762C11.7362 134.762 11.625 134.563 11.4695 133.966C11.1805 132.838 10.9582 132.307 10.2469 131.112L10.4025 130.958H10.3803ZM14.4702 130.847C16.6485 132.13 17.2486 132.683 17.2486 133.457C17.2486 134.121 16.9152 134.829 16.5818 134.829C16.404 134.829 16.2929 134.696 16.1595 134.364C15.5593 132.816 15.1592 132.13 14.2701 131.112L14.448 130.847H14.4702Z" fill="black"/>
<path d="M33.6748 99.8994L34.764 99.0588L35.742 99.8109C35.742 99.8109 35.8976 99.9879 35.8976 100.099C35.8976 100.364 35.6753 100.452 35.4753 100.452H29.2515L29.1182 99.8994H33.6971H33.6748ZM29.7183 107.133L30.5407 107.686H33.5192L33.9193 107.045L34.6751 107.575C34.7862 107.642 34.8307 107.775 34.8307 107.885C34.8307 107.996 34.7418 108.084 34.6306 108.129C34.5417 108.195 34.4528 108.261 34.4528 108.328V112.73C34.4528 112.973 34.3861 112.995 33.7637 113.15C33.6081 113.15 33.5192 113.017 33.5192 112.73V111.889H30.6519V113.106C30.6519 113.305 30.3185 113.46 29.9628 113.46C29.785 113.46 29.7183 113.349 29.7183 113.062V107.111V107.133ZM32.9413 97.3334L34.0305 96.4928L35.0085 97.2449C35.0085 97.2449 35.1641 97.4218 35.1641 97.5546C35.1641 97.7979 34.9863 97.9306 34.7418 97.9306H29.985L29.8517 97.3555H32.9635L32.9413 97.3334ZM32.7857 102.443L33.8749 101.603L34.8529 102.355C34.8529 102.355 35.0085 102.532 35.0085 102.642C35.0085 102.842 34.8529 103.019 34.5862 103.019H29.9628L29.8294 102.465H32.7857V102.443ZM32.7857 105.054L33.8749 104.213L34.8529 104.965C34.8529 104.965 35.0085 105.142 35.0085 105.253C35.0085 105.496 34.8307 105.629 34.5862 105.629H29.9628L29.8294 105.054H32.7857ZM30.6519 111.314H33.5192V108.239H30.6519V111.314ZM45.6333 112.287C45.6333 112.796 45.211 113.216 43.944 113.438L43.7884 112.907C43.7217 112.73 43.3883 112.531 42.8993 112.332C42.7882 112.287 42.7215 112.221 42.7215 112.132C42.7215 112.022 42.7659 111.955 42.8771 111.955C43.0327 111.955 43.9662 112.088 44.1663 112.088C44.3886 112.088 44.6997 112.088 44.6997 111.646V97.6873H37.498V100.452C37.498 107.045 36.8534 110.827 35.2308 113.438C35.1641 113.482 35.1196 113.504 35.0752 113.504C34.9863 113.504 34.9196 113.415 34.9196 113.349C34.9196 113.305 34.9196 113.283 34.964 113.239C35.6531 111.513 36.031 110.274 36.3199 106.845C36.4533 105.363 36.5422 103.218 36.5422 100.475V96.4264L37.4535 97.1564H44.6775L45.0998 96.6255L45.8334 97.2228C45.989 97.3334 46.0779 97.4661 46.0779 97.6209C46.0779 97.7758 45.989 97.9085 45.8334 97.9306C45.6778 97.997 45.6111 98.0855 45.6111 98.1518V112.309L45.6333 112.287ZM38.2315 103.948L38.0759 103.372H40.3876V101.094H37.8536L37.698 100.541H40.3876V98.3067L41.3656 98.4837C41.6546 98.5279 41.7879 98.6385 41.7879 98.7712C41.7879 98.9261 41.699 99.0367 41.5657 99.0588C41.4101 99.1252 41.3434 99.2358 41.3434 99.3464V100.519H42.3658L43.2772 99.6561L44.0996 100.408C44.0996 100.408 44.233 100.585 44.233 100.696C44.233 100.873 44.0996 101.072 43.8551 101.072H41.3434V103.35H41.988L42.9215 102.51L43.744 103.262C43.744 103.262 43.8773 103.439 43.8773 103.549C43.8773 103.726 43.7217 103.948 43.4772 103.948H38.2537H38.2315ZM38.5427 105.518L39.3651 106.071H42.2769L42.6993 105.43L43.455 105.961C43.5661 106.027 43.6106 106.16 43.6106 106.27C43.6106 106.381 43.5217 106.469 43.4105 106.514C43.2994 106.58 43.2327 106.646 43.2327 106.713V111.049C43.2327 111.27 43.166 111.292 42.5437 111.469C42.4103 111.469 42.3214 111.336 42.3214 111.049V110.407H39.5207V111.049C39.5207 111.27 39.0984 111.402 38.8539 111.402C38.6761 111.402 38.5871 111.27 38.5871 111.004V105.474L38.5427 105.518ZM39.4763 109.854H42.2769V106.624H39.4763V109.854Z" fill="black"/>
<path d="M33.1414 126.113C31.8966 130.626 29.4293 132.683 29.2515 132.683C29.1626 132.683 29.1404 132.572 29.1404 132.528C29.1404 132.484 29.1404 132.44 29.2071 132.395C31.252 129.962 32.03 127.706 32.719 124.653H29.5627L29.4071 124.1H33.1636V120.87C32.1411 121.114 31.0075 121.313 29.8517 121.468C29.6294 121.468 29.5849 121.401 29.5849 121.291C29.5849 121.202 29.6516 121.114 29.7405 121.114C31.8522 120.715 34.9196 119.786 36.0087 118.702L36.8089 119.322C36.9201 119.41 36.9867 119.499 36.9867 119.609C36.9867 119.786 36.8089 119.875 36.6978 119.875H36.1421C36.0087 119.941 34.4306 120.649 34.0971 120.649V124.144H35.1196L36.2977 123.149L37.498 124.034C37.498 124.034 37.6536 124.189 37.6536 124.321C37.6536 124.542 37.4757 124.697 37.2312 124.697H34.0971V125.936C35.453 126.622 37.2535 128.347 37.2535 129.188C37.2535 129.254 37.2535 129.697 36.8311 129.697C36.4977 129.697 36.431 129.453 36.4088 129.409C36.0087 128.569 35.5419 127.839 35.0529 127.285L34.1194 126.401V135.758C34.1194 136.023 33.4525 136.09 33.4081 136.09C33.2525 136.09 33.1858 135.979 33.1858 135.758V126.179L33.1414 126.113ZM38.7872 120.185L39.7207 120.959H44.5664L45.0109 120.339L45.8778 120.915C45.8778 120.915 45.9445 121.003 45.9445 121.092C45.9445 121.313 45.7889 121.423 45.6778 121.468C45.5222 121.534 45.4999 121.6 45.4999 121.645V134.674C45.4999 134.674 45.411 134.851 45.2999 134.917C44.6331 135.072 44.5664 135.094 44.5664 134.696V133.457H39.7207V134.829C39.7207 135.05 39.5429 135.094 38.965 135.249C38.8316 135.249 38.7872 135.094 38.7872 134.829V120.162V120.185ZM39.7207 132.904H44.5664V121.534H39.7207V132.904Z" fill="black"/>
<path d="M7.20167 33.3146L6.11252 33.4252C5.73465 33.4694 5.62351 33.5358 5.62351 33.6906V39.7519C5.62351 42.8709 4.37876 44.6185 2.22268 44.6185C1.13353 44.6185 0.422241 44.1319 0.422241 43.4682C0.422241 42.9594 0.777884 42.6719 1.28912 42.6719C1.60031 42.6719 1.88927 42.7825 2.156 43.0258C2.37827 43.247 2.5561 43.5788 2.66723 43.9991C3.62302 43.7337 4.06758 43.0258 4.06758 40.0394V33.6906C4.06758 33.5137 3.97867 33.4916 3.57857 33.4473L2.28936 33.3367L2.22268 32.6952H7.26836L7.20167 33.3367V33.3146Z" fill="black"/>
<path d="M14.3812 44.331L14.4257 43.6895L15.4926 43.5567C15.9816 43.4683 15.9816 43.2692 15.626 42.1631L14.9369 40.1058H10.8915L10.2246 42.141C9.86899 43.1586 9.82454 43.4683 10.2913 43.5567L11.2249 43.6895L11.2916 44.331H7.42395L7.49063 43.6895L8.24637 43.5567C8.80206 43.424 9.00211 43.2028 9.82454 40.9022L12.4252 33.6022V33.0049L13.9811 32.3634L17.6042 43.1807C17.6709 43.3576 17.782 43.4904 18.071 43.5346L19.1824 43.7116L19.2491 44.3531H14.4479L14.3812 44.331ZM13.0253 34.111H12.9364L11.1582 39.3537H14.6924L13.0253 34.111Z" fill="black"/>
<path d="M25.6506 39.6191C25.1171 39.6191 24.5614 39.5749 24.0502 39.5306V43.3576C24.0502 43.5125 24.1613 43.5567 24.5392 43.6009L25.8729 43.7116L25.9395 44.3531H21.005L21.0717 43.7116L22.0497 43.6009C22.4053 43.5567 22.5387 43.4903 22.5387 43.3355V33.6906C22.5387 33.5358 22.4498 33.4916 22.0497 33.4473L21.0717 33.3367L21.005 32.6952H25.5394C28.6735 32.6952 30.1628 34.1109 30.1628 35.8806C30.1628 38.2919 28.1401 39.6191 25.6506 39.6191ZM25.4728 33.3809C24.717 33.3809 24.0502 33.3809 24.0502 33.3809V38.7564C24.517 38.867 25.0282 38.9334 25.5617 38.9334C27.3399 38.9334 28.4957 37.8716 28.4957 36.1461C28.4957 34.4206 27.3399 33.3367 25.4728 33.3588V33.3809Z" fill="black"/>
<path d="M37.1867 44.331L37.2534 43.6895L38.3203 43.5567C38.8094 43.4683 38.8094 43.2692 38.4537 42.1631L37.7647 40.1058H33.7192L33.0524 42.141C32.6968 43.1586 32.6523 43.4683 33.1191 43.5567L34.0526 43.6895L34.1193 44.331H30.2517L30.3184 43.6895L31.0741 43.5567C31.6298 43.424 31.8299 43.2028 32.6523 40.9022L35.2529 33.6022V33.0049L36.8089 32.3634L40.432 43.1807C40.4987 43.3576 40.6098 43.4904 40.8988 43.5346L42.0101 43.7116L42.0768 44.3531H37.2534L37.1867 44.331ZM35.8309 34.111H35.7419L33.9637 39.3537H37.4979L35.8309 34.111Z" fill="black"/>
<path d="M55.947 33.3146L54.8133 33.4695C54.2799 33.5579 54.191 33.7128 54.191 36.124V44.4858H53.3019L45.9445 34.2437H45.8778V40.9243C45.8778 43.3355 45.9223 43.4682 46.478 43.5789L47.5894 43.7337L47.656 44.3752H43.3439L43.4106 43.7337L44.5219 43.5789C45.0776 43.4904 45.1221 43.3355 45.1221 40.9243V34.7746C45.1221 34.0004 44.9665 33.6907 44.5442 33.5137L43.4772 33.3367L43.4106 32.6952H46.6558L53.3908 42.0967H53.4575V36.124C53.4575 33.7128 53.413 33.5801 52.8573 33.4695L51.7237 33.3146L51.657 32.6731H55.9914L55.9247 33.3146H55.947Z" fill="black"/>
<path d="M66.8607 44.331H57.8807L57.9474 43.6895L58.9254 43.5789C59.2811 43.5346 59.4144 43.4682 59.4144 43.3134V33.6685C59.4144 33.5137 59.3255 33.4916 58.9254 33.4252L57.9474 33.3146L57.8807 32.6731H66.8607V36.0355H66.0605L65.6604 34.1552C65.4604 33.4252 65.2825 33.3589 61.6594 33.3589H60.9482V38.0264H61.6594C63.2376 38.0264 63.4376 38.0264 63.5488 37.6725L63.9711 36.4337H64.6157L64.2156 40.3049H63.5932L63.4376 39.1104C63.4376 38.8228 63.3043 38.6901 61.5928 38.6901H60.9259V43.601H61.4372C65.4159 43.601 65.5937 43.4904 65.8382 42.8046L66.305 40.9907H67.2163L66.8607 44.2867V44.331Z" fill="black"/>
<path d="M73.529 44.5964C72.2842 44.5964 71.1951 44.3973 70.2615 44.0876L69.9725 40.7916H70.7283L71.5062 43.3576C72.1286 43.6452 73.0844 43.8664 73.8179 43.8664C75.5294 43.8664 76.4408 42.8046 76.4408 41.6764C76.4408 40.1279 75.3072 39.6192 73.5067 38.9334C71.6841 38.2476 70.2393 37.5398 70.2393 35.571C70.2393 33.9119 71.484 32.4298 74.0847 32.4076C75.1071 32.4076 75.7517 32.4961 76.2852 32.6067L77.2632 32.3192V35.9913H76.5075L75.974 33.6022C75.3516 33.3146 74.507 33.1376 73.8401 33.1376C72.3287 33.1376 71.5729 34.0667 71.5729 35.0843C71.5729 36.5885 72.8177 37.0752 74.4625 37.7167C76.3519 38.4025 77.8411 39.1104 77.8411 41.1676C77.8411 43.0037 76.2185 44.5743 73.5512 44.5964H73.529Z" fill="black"/>
<path d="M89.2217 44.331H80.2417L80.3084 43.6895L81.2864 43.5789C81.642 43.5346 81.7754 43.4682 81.7754 43.3134V33.6685C81.7754 33.5137 81.6865 33.4916 81.2864 33.4252L80.3084 33.3146L80.2417 32.6731H89.2217V36.0355H88.4215L88.0214 34.1552C87.8213 33.4252 87.6435 33.3589 84.0204 33.3589H83.3091V38.0264H84.0204C85.5986 38.0264 85.7986 38.0264 85.9098 37.6725L86.3321 36.4337H86.9767L86.5766 40.3049H85.9542L85.7986 39.1104C85.7986 38.8228 85.6653 38.6901 83.9537 38.6901H83.2869V43.601H83.7981C87.7769 43.601 87.9547 43.4904 88.1992 42.8046L88.666 40.9907H89.5773L89.2217 44.2867V44.331Z" fill="black"/>
<path d="M9.89121 10.1094C10.3358 10.7509 10.5358 10.8394 10.7803 10.8836L11.5583 11.0164L11.625 11.6579H8.86874L8.15745 10.3748L5.868 6.50364C5.868 6.50364 4.26761 6.54788 4.26761 6.50364V10.6624C4.26761 10.8173 4.37875 10.8615 4.75662 10.9058L5.82355 11.0164L5.89023 11.6579H1.2002L1.26688 11.0164L2.24489 10.9058C2.60054 10.8615 2.7339 10.7952 2.7339 10.6403V0.995455C2.7339 0.840606 2.64499 0.818485 2.24489 0.752121L1.26688 0.641515L1.2002 0H6.00137C8.84651 0 10.1135 1.17242 10.1135 2.85364C10.1135 4.53485 9.0021 5.61879 7.33503 6.19394L9.89121 10.1094ZM5.51236 0.73C5.31231 0.73 4.26761 0.774242 4.26761 0.774242V5.72939L5.868 5.86212C7.42394 5.68515 8.46864 4.84455 8.46864 3.18545C8.46864 1.52636 7.49062 0.619394 5.51236 0.73Z" fill="black"/>
<path d="M26.1618 0.641542L25.6061 0.730026C25.1171 0.884875 24.7837 1.03972 24.3391 1.72548L21.4051 6.57003V10.6403C21.4051 10.7952 21.494 10.8394 21.8941 10.8837L23.1611 10.9943L23.2278 11.6358H18.0487L18.1154 10.9943L19.4046 10.8837C19.7602 10.8394 19.8936 10.7731 19.8936 10.6182V6.747L16.3816 1.28306C16.226 1.08397 15.9593 0.840633 15.6037 0.752148L14.8479 0.61942L14.7812 -0.0220947H19.3379L19.2712 0.61942L18.3377 0.730026C17.9153 0.79639 17.9376 1.15033 18.56 2.16791L20.8049 5.88427H20.8939L23.3167 1.7476C23.7168 1.10609 23.6279 0.818511 23.1611 0.730026L22.4498 0.641542L22.3831 2.6485e-05H26.1618L26.0951 0.641542H26.1618Z" fill="black"/>
<path d="M42.5659 0.641542L41.4545 0.79639C40.8988 0.884875 40.8321 1.03972 40.8321 3.45094V7.80881C40.8321 10.3749 39.1206 11.9455 36.3644 11.9455C33.6081 11.9455 31.9188 10.6625 31.9188 7.65397V0.995481C31.9188 0.840632 31.8299 0.79639 31.4298 0.752148L30.4518 0.641542L30.3851 2.6485e-05H34.964L34.8973 0.641542L33.9193 0.752148C33.5637 0.79639 33.4303 0.862754 33.4303 1.0176V7.45487C33.4303 10.1315 34.9196 10.9721 36.8534 10.9721C38.9428 10.9721 40.0542 9.64488 40.0542 7.69821V3.42881C40.0542 1.0176 40.0097 0.884875 39.454 0.774269L38.3426 0.61942L38.2759 -0.0220947H42.5881L42.5214 0.61942L42.5659 0.641542Z" fill="black"/>
<path d="M54.3242 11.6358L54.3909 10.9943L55.1244 10.8837C55.28 10.8394 55.2578 10.6625 55.1244 10.4634L51.8347 5.84003L50.5678 7.07881V10.6182C50.5678 10.7731 50.6789 10.8173 51.0568 10.8615L52.0348 10.9721L52.1015 11.6137H47.5226L47.5893 10.9721L48.5673 10.8615C48.9229 10.8173 49.0563 10.7509 49.0563 10.5961V0.995481C49.0563 0.840632 48.9674 0.818511 48.5673 0.752148L47.5893 0.641542L47.5226 2.6485e-05H52.1015L52.0348 0.641542L51.0568 0.752148C50.7011 0.79639 50.5678 0.862754 50.5678 1.0176V6.10548L54.591 2.07942C55.569 1.15033 55.5468 0.79639 54.9911 0.730026L54.0353 0.61942L53.9686 -0.0220947H58.4364L58.3697 0.61942L57.5917 0.707905C57.1694 0.774269 56.836 0.995481 56.1914 1.61487L52.8572 4.91094L56.8804 10.2864C57.2138 10.7731 57.3694 10.8394 57.7473 10.9058L58.4141 10.9943L58.4586 11.6358H54.3242Z" fill="black"/>
<path d="M73.4401 0.641568L72.8844 0.730053C72.3954 0.884902 72.062 1.03975 71.6175 1.72551L68.6834 6.57005V10.6404C68.6834 10.7952 68.7723 10.8394 69.1724 10.8837L70.4394 10.9943L70.5061 11.6358H65.327L65.3937 10.9943L66.6829 10.8837C67.0386 10.8394 67.1719 10.7731 67.1719 10.6182V6.74702L63.6822 1.26096C63.5266 1.06187 63.2599 0.818538 62.9042 0.730053L62.1485 0.597326L62.0818 -0.0441895H66.6385L66.5718 0.597326L65.6382 0.707932C65.2159 0.774295 65.2381 1.12823 65.8605 2.14581L68.1055 5.86217H68.1944L70.6172 1.72551C71.0173 1.08399 70.9284 0.796417 70.4616 0.707932L69.7503 0.619447L69.6836 -0.0220682H73.4623L73.3957 0.619447L73.4401 0.641568Z" fill="black"/>
<path d="M89.8441 0.641542L88.7327 0.79639C88.177 0.884875 88.1103 1.03972 88.1103 3.45094V7.80881C88.1103 10.3749 86.3988 11.9455 83.6426 11.9455C80.8863 11.9455 79.197 10.6625 79.197 7.65397V0.995481C79.197 0.840632 79.1081 0.79639 78.708 0.752148L77.73 0.641542L77.6633 2.6485e-05H82.2422L82.1755 0.641542L81.1975 0.752148C80.8419 0.79639 80.7085 0.862754 80.7085 1.0176V7.45487C80.7085 10.1315 82.1978 10.9721 84.1316 10.9721C86.221 10.9721 87.3324 9.64488 87.3324 7.69821V3.42881C87.3324 1.0176 87.2879 0.884875 86.7322 0.774269L85.6208 0.61942L85.5542 -0.0220947H89.8663L89.7996 0.61942L89.8441 0.641542Z" fill="black"/>
<path d="M17.7598 66.0097L17.093 66.1425C16.5151 66.3194 16.404 66.4079 15.6038 68.797L12.9809 77.0482H11.8917L9.17997 68.9961H9.13551L6.3126 77.0482H5.20122L1.71147 66.5407C1.64479 66.3637 1.53365 66.231 1.26692 66.1867L0.155539 66.0097L0.111084 65.3682H4.93448L4.8678 66.0097L3.80087 66.1425C3.33409 66.2088 3.37855 66.43 3.75642 67.5361L6.09032 75.1016H6.15701L8.71319 67.9122L8.26863 66.5628C8.20195 66.3858 8.09081 66.2531 7.80185 66.2088L6.73492 66.0319L6.66824 65.3903H11.425L11.3583 66.0319L10.2469 66.1646C9.82457 66.231 9.8468 66.5185 10.2024 67.5582L12.6697 75.1458H12.7364L14.6257 68.8191C15.3815 66.4743 15.2703 66.2973 14.6257 66.1646L13.6477 66.0097L13.581 65.3682H17.7598L17.6932 66.0097H17.7598Z" fill="black"/>
<path d="M29.9406 77.0261L30.0073 76.3846L30.9853 76.274C31.3409 76.2297 31.4743 76.1634 31.4743 76.0085V71.4294H25.4284V76.0306C25.4284 76.1855 25.5395 76.2297 25.9174 76.274L26.8954 76.3846L26.9621 77.0261H22.3832L22.4499 76.3846L23.4279 76.274C23.7835 76.2297 23.9169 76.1634 23.9169 76.0085V66.3637C23.9169 66.2088 23.828 66.1867 23.4279 66.1203L22.4499 66.0097L22.3832 65.3682H26.9621L26.8954 66.0097L25.9174 66.1203C25.5617 66.1646 25.4284 66.231 25.4284 66.3858V70.6773H31.4743V66.3637C31.4743 66.1867 31.3854 66.1646 30.9853 66.1203L30.0073 66.0097L29.9406 65.3682H34.5195L34.4528 66.0097L33.4748 66.1203C33.1191 66.1646 32.9858 66.231 32.9858 66.3858V76.0306C32.9858 76.1855 33.0747 76.2076 33.4748 76.274L34.4528 76.3846L34.5195 77.0261H29.9406Z" fill="black"/>
<path d="M40.1208 77.0261L40.1653 76.3846L41.3211 76.274C41.6768 76.2297 41.8102 76.1634 41.8102 76.0085V66.3637C41.8102 66.2088 41.7212 66.1867 41.3211 66.1203L40.1653 66.0097L40.1208 65.3682H45.0554L45.0109 66.0097L43.8551 66.1203C43.4995 66.1646 43.3661 66.231 43.3661 66.3858V76.0306C43.3661 76.1855 43.4772 76.2297 43.8551 76.274L45.0109 76.3846L45.0554 77.0261H40.1208Z" fill="black"/>
<path d="M54.2354 77.3137C52.9906 77.3137 51.9015 77.1146 50.9679 76.8049L50.679 73.5089H51.4347L52.2127 76.0749C52.835 76.3625 53.7908 76.5837 54.5243 76.5837C56.2359 76.5837 57.1472 75.5219 57.1472 74.3937C57.1472 72.8452 56.0136 72.3364 54.2132 71.6507C52.3905 70.9649 50.9457 70.257 50.9457 68.2883C50.9457 66.6292 52.1904 65.147 54.7911 65.1249C55.8135 65.1249 56.4581 65.2134 56.9916 65.324L57.9696 65.0364V68.7086H57.2139L56.6804 66.3195C56.058 66.0319 55.2134 65.8549 54.5466 65.8549C53.0351 65.8549 52.2793 66.784 52.2793 67.8016C52.2793 69.3058 53.5241 69.7925 55.1689 70.434C57.0583 71.1198 58.5475 71.8277 58.5475 73.8849C58.5475 75.721 56.9249 77.2916 54.2576 77.3137H54.2354Z" fill="black"/>
<path d="M70.9062 77.0261L70.9728 76.3846L71.7063 76.274C71.8619 76.2298 71.8397 76.0528 71.7063 75.8537L68.4167 71.2304L67.1497 72.4692V76.0086C67.1497 76.1634 67.2608 76.2076 67.6387 76.2519L68.6167 76.3625L68.6834 77.004H64.1045L64.1712 76.3625L65.1492 76.2519C65.5048 76.2076 65.6382 76.1413 65.6382 75.9864V66.3416C65.6382 66.1867 65.5493 66.1646 65.1492 66.0982L64.1712 65.9876L64.1045 65.3461H68.6834L68.6167 65.9876L67.6387 66.0982C67.283 66.1425 67.1497 66.2089 67.1497 66.3637V71.4737L71.1729 67.4476C72.1509 66.5186 72.1287 66.1646 71.573 66.0982L70.6172 65.9876L70.5505 65.3461H75.0183L74.9516 65.9876L74.1736 66.0761C73.7513 66.1425 73.3957 66.3637 72.7733 66.9831L69.4391 70.2792L73.4623 75.6546C73.7957 76.1413 73.9513 76.2076 74.3292 76.274L74.996 76.3625L75.0627 77.004H70.9284L70.9062 77.0261Z" fill="black"/>
<path d="M90.3776 66.0098L89.8219 66.0982C89.3329 66.2531 88.9995 66.4079 88.555 67.1158L85.6209 71.9604V76.0307C85.6209 76.1855 85.7098 76.2298 86.1099 76.274L87.3769 76.3846L87.4436 77.0261H82.2645L82.3312 76.3846L83.6204 76.274C83.9761 76.2298 84.1094 76.1634 84.1094 76.0086V72.1373L80.6197 66.6513C80.4641 66.4522 80.1974 66.2089 79.8417 66.1204L79.086 65.9876L79.0193 65.3461H83.576L83.5093 65.9876L82.5757 66.0982C82.1534 66.1646 82.1756 66.5186 82.798 67.5361L85.043 71.2525H85.1319L87.5547 67.1158C87.9548 66.4743 87.8659 66.1867 87.3991 66.0982L86.6878 66.0098L86.6211 65.3682H90.3998L90.3332 66.0098H90.3776Z" fill="black"/>
<path d="M0 21.1036H91" stroke="#C09C4C" stroke-width="1.17" stroke-miterlimit="10"/>
<path d="M0 53.8209H91" stroke="#C09C4C" stroke-width="1.17" stroke-miterlimit="10"/>
<path d="M0 86.5603H91" stroke="#C09C4C" stroke-width="1.17" stroke-miterlimit="10"/>
<path d="M0 145.513H91" stroke="#C09C4C" stroke-width="1.17" stroke-miterlimit="10"/>
</g>
<defs>
<clipPath id="clip0_505_518">
<rect width="91" height="146" fill="white"/>
</clipPath>
</defs>
</svg>
