<svg width="48" height="312" viewBox="0 0 48 312" fill="none" xmlns="http://www.w3.org/2000/svg">
<path d="M25.1962 20.5011C25.2913 20.3724 25.3864 20.2437 25.4816 20.1094C25.4424 20.0031 25.3753 20.0199 25.3193 20.087C24.9836 20.5011 24.6255 20.8984 24.3513 21.3628C24.3065 21.4412 24.2338 21.4971 24.1834 21.5699C23.9988 21.8384 23.7806 22.079 23.5903 22.342C23.2098 22.8456 22.8573 23.3828 22.4096 23.8192C22.281 23.9423 22.2977 24.1606 22.1243 24.2613C21.99 24.3396 21.8781 24.4571 21.671 24.625C21.8277 24.6082 21.8949 24.6138 21.9452 24.5914C22.1019 24.5187 22.2586 24.4403 22.4096 24.3564C23.4336 23.7801 24.4408 23.1758 25.4144 22.5043C26.7126 21.6146 28.0331 20.7641 29.3536 19.9192C29.5439 19.7961 29.7118 19.6338 29.9692 19.6338C30.0923 19.6338 30.2321 19.5219 30.344 19.4268C30.4951 19.2981 30.6294 19.1526 30.8476 19.1302C30.9148 19.1246 30.9763 19.0183 31.0379 18.9512C31.1722 18.8057 31.2841 18.6266 31.5247 18.6546C31.5807 18.6602 31.6478 18.5819 31.7038 18.5427C31.9388 18.3692 32.1738 18.1958 32.4088 18.0223C32.5207 17.9384 32.627 17.8321 32.7949 17.9216C32.8396 17.944 32.9348 17.8545 32.9963 17.8209C33.0187 17.6642 32.918 17.6082 32.8508 17.5411C32.4591 17.1438 32.0563 16.7521 31.659 16.3549C31.5806 16.2765 31.5079 16.187 31.4408 16.1031C31.4855 16.0471 31.5135 16.0135 31.5471 15.9688C31.3232 15.7673 31.105 15.5603 30.8644 15.3421C30.9204 15.3029 30.9596 15.2581 30.9819 15.2637C31.866 15.4428 32.7669 15.4932 33.6398 15.7729C34.2833 15.9744 34.9323 16.1478 35.5534 16.4388C35.8108 16.5563 36.1018 16.6067 36.376 16.6794C36.6949 16.7689 36.9915 16.9144 37.2769 17.0935C37.7301 17.3788 38.2057 17.6306 38.6589 17.9216C39.0898 18.1958 39.4591 18.5483 39.7613 18.9791C39.9403 19.2309 40.1026 19.5051 40.3432 19.7066C40.3767 19.7345 40.4159 19.7681 40.4271 19.8073C40.539 20.1822 40.8132 20.4396 40.9979 20.7641C41.037 20.8312 41.1042 20.8928 41.1042 20.9599C41.1265 21.43 41.3672 21.8608 41.3168 22.3476C41.2888 22.6442 41.1657 22.9016 41.0706 23.1702C41.037 23.2541 40.9363 23.338 40.8524 23.3716C40.4831 23.5339 40.1138 23.657 39.6997 23.6066C39.4479 23.573 39.2017 23.5227 38.9387 23.5507C38.7093 23.573 38.4575 23.5115 38.2617 23.3268C38.1777 23.2485 38.077 23.1702 37.9539 23.2093C37.8028 23.2597 37.7189 23.1534 37.6126 23.0806C37.4951 22.9967 37.5119 22.8736 37.4951 22.7561C37.4951 22.7449 37.4783 22.7281 37.4559 22.689C37.2713 22.7897 37.0754 22.8792 36.8908 22.9911C36.4711 23.2485 36.057 23.5171 35.6486 23.7913C35.3688 23.9759 35.117 24.1997 34.8092 24.334C34.7309 24.3676 34.647 24.4739 34.6246 24.569C34.5462 24.832 34.4791 25.095 34.4455 25.3636C34.4176 25.621 34.4232 25.884 34.4455 26.1414C34.5015 26.6897 34.5854 27.2269 34.6414 27.7752C34.7085 28.3796 34.7533 28.9895 34.8204 29.5938C34.882 30.1701 34.9547 30.7409 35.0331 31.3172C35.0666 31.541 35.1394 31.7592 35.1841 31.983C35.3016 32.5482 35.4024 33.1189 35.5199 33.6841C35.6989 34.5514 35.9507 35.3907 36.4151 36.1461C36.6669 36.5546 36.9132 36.9686 37.1538 37.3771C37.3104 37.6457 37.5287 37.8359 37.7972 37.9646C38.0322 38.0765 38.2617 38.2108 38.5023 38.2948C39.2521 38.5522 40.0019 38.7928 40.7572 39.0334C41.0482 39.1229 41.3448 39.1285 41.6469 39.0893C42.0274 39.0446 42.4191 39.039 42.7996 39.0557C43.2584 39.0781 43.6669 39.2628 43.9858 39.6209C44.1649 39.8223 44.3663 39.9902 44.5734 40.1469C44.9315 40.4211 45.2616 40.7344 45.6813 40.919C46.1121 41.1093 46.3807 41.473 46.5262 41.9486C46.543 42.0046 46.5542 42.0829 46.5877 42.1109C46.9291 42.3571 47.0354 42.7656 47.2144 43.1237C47.2424 43.1796 47.2536 43.258 47.2928 43.2803C47.4998 43.4034 47.4942 43.6161 47.4494 43.7951C47.3823 44.0749 47.4327 44.3267 47.5054 44.5897C47.6061 44.9534 47.5837 45.2835 47.2872 45.5409C47.2648 45.5577 47.2312 45.5801 47.2256 45.6025C47.1193 46.0221 46.7108 46.1284 46.4814 46.425C46.4534 46.4586 46.4143 46.5033 46.3807 46.5033C46.0394 46.481 45.7316 46.7104 45.3847 46.6376C45.1609 46.5929 44.9315 46.5649 44.7077 46.5201C44.4615 46.4754 44.2264 46.4977 43.997 46.6152C43.7117 46.7607 43.4263 46.8894 43.1465 47.0181C43.029 46.9342 42.9339 46.8223 42.822 46.8055C42.6877 46.7887 42.5366 46.8335 42.4079 46.8894C41.9715 47.0741 41.5406 47.2811 41.1042 47.4714C40.8524 47.5833 40.6062 47.6952 40.3432 47.7735C39.9963 47.8854 39.6997 48.098 39.392 48.2883C38.8995 48.596 38.4071 48.9038 37.8924 49.1724C37.5622 49.3458 37.2713 49.6032 36.9579 49.8159C36.8292 49.9054 36.7117 50.0285 36.5382 50.0285L36.5438 50.0397C36.5271 49.8886 36.639 49.8271 36.7229 49.7599C37.1649 49.3962 37.6126 49.0437 38.0546 48.6856C38.1777 48.5849 38.3008 48.4729 38.4183 48.3666C38.4463 48.3387 38.4519 48.2939 38.4743 48.2491C38.2057 48.2939 38.1386 48.3275 37.9427 48.4897C37.6853 48.708 37.4279 48.9206 37.1649 49.1332C37.1146 49.178 37.0586 49.2116 36.9635 49.2004C36.9971 49.1612 37.0251 49.1164 37.0642 49.0829C37.8252 48.4338 38.5302 47.7232 39.1961 46.9678C39.4591 46.6712 39.7389 46.3802 39.9067 45.9997C39.9347 45.9326 39.9515 45.8599 39.9795 45.7759C39.8843 45.7312 39.8116 45.664 39.7333 45.6584C39.4759 45.6472 39.2465 45.5073 38.9947 45.4626C38.6086 45.3954 38.2561 45.2332 37.8979 45.0877C37.635 44.9814 37.4056 44.7799 37.1594 44.6233C37.0251 44.5393 36.8852 44.4554 36.7509 44.3715C36.2753 44.0525 35.8444 43.6832 35.5479 43.1628C35.0778 42.3459 34.6582 41.501 34.3504 40.5945C34.2049 40.1637 34.0427 39.744 33.8916 39.3187C33.7069 38.8151 33.6454 38.2892 33.5782 37.7576C33.4999 37.1533 33.4104 36.549 33.3544 35.9447C33.2817 35.1837 33.2313 34.4227 33.1921 33.6617C33.125 32.4419 33.0746 31.2277 33.0019 30.0078C32.9348 28.8832 32.8452 27.7585 32.7613 26.6338C32.7389 26.3596 32.683 26.0966 32.5934 25.856C32.4144 25.8224 32.3248 25.9399 32.2129 26.0015C32.1122 26.0574 32.0731 26.2421 31.8716 26.1693C32.0954 25.9623 32.2913 25.7721 32.4983 25.5818C32.4424 25.4084 32.3752 25.2629 32.2297 25.151C31.9947 25.2461 31.8212 25.4251 31.6366 25.5874C31.3121 25.8728 31.0882 26.2477 30.8756 26.6282C30.5119 27.2717 30.221 27.9487 29.9692 28.6425C29.8684 28.9111 29.7397 29.1685 29.6334 29.4371C29.5495 29.6441 29.4823 29.8624 29.4096 30.075C29.3928 30.1309 29.3816 30.1925 29.3592 30.2485C29.1242 30.8192 28.8836 31.3899 28.6598 31.9663C28.6095 32.1006 28.5143 32.2293 28.5983 32.3971C28.6262 32.4475 28.5983 32.5482 28.5647 32.6097C28.4863 32.7888 28.3912 32.9567 28.3017 33.1301C28.1618 33.3987 28.0331 33.6673 27.8876 33.9247C27.7981 34.0925 27.7645 34.266 27.7757 34.4507C27.8093 35.0438 27.7981 35.6425 27.7365 36.2356C27.6974 36.6105 27.7589 36.9742 27.9436 37.2932C28.1394 37.6457 28.2066 38.0318 28.2905 38.4123C28.3688 38.7536 28.3968 39.0949 28.3241 39.4474C28.2961 39.5705 28.3353 39.716 28.3465 39.8895C28.2402 40.0517 28.1114 40.2476 28.1226 40.5106C28.1282 40.6617 28.0219 40.7736 27.9268 40.8519C27.6023 41.1205 27.384 41.473 27.1938 41.8479C27.0371 42.1612 26.7797 42.1948 26.5055 42.1948C26.3657 42.1948 26.2258 42.15 26.0803 42.1333C25.9124 42.1109 25.7446 42.0941 25.5319 42.0717C25.4032 41.9822 25.2634 41.8255 25.0395 41.8311C24.9108 41.8311 24.5975 41.4674 24.5415 41.3107C24.4744 41.1093 24.396 40.9134 24.3457 40.712C24.3009 40.5386 24.2673 40.3595 24.245 40.1804C24.2114 39.9398 24.189 39.6992 24.1275 39.4642C24.0715 39.2684 24.0883 39.039 24.1219 38.8319C24.1778 38.4682 24.0547 38.1381 23.9484 37.8136C23.9036 37.6681 23.7526 37.5562 23.6407 37.4442C23.5399 37.3491 23.4728 37.2372 23.456 37.0582C23.5176 36.9742 23.5959 36.8735 23.6686 36.7784C23.663 36.5658 23.4952 36.3979 23.5903 36.1797C23.6519 36.1797 23.719 36.1797 23.8029 36.1797C23.8029 35.9558 23.8029 35.7376 23.8029 35.5138C23.8421 35.4467 23.8981 35.3851 23.9204 35.318C23.9876 35.1053 24.1331 34.971 24.2841 34.8368C24.3401 34.7864 24.4128 34.7416 24.4296 34.6801C24.5303 34.3164 24.8269 34.1429 25.0619 33.9079C25.0955 33.8799 25.1291 33.8575 25.1514 33.8408C25.1626 33.6113 25.1738 33.4155 25.185 33.242C25.2242 33.1973 25.241 33.1637 25.2633 33.1525C25.5655 32.9958 25.6718 32.7161 25.7166 32.3803C25.8061 31.7033 25.9124 31.0262 26.0075 30.3436C26.0243 30.2261 26.0243 30.103 26.0299 29.9967C25.946 29.9127 25.8733 29.9407 25.8285 29.9967C25.739 30.1142 25.655 30.0526 25.5543 30.0023C25.4256 30.1645 25.3193 30.3324 25.3697 30.5618C25.3976 30.6905 25.3529 30.7744 25.2521 30.8696C25.1402 30.9703 25.0899 31.1437 24.9892 31.3172C24.7765 31.3228 24.6814 31.541 24.5863 31.7424C24.3625 32.2516 24.0827 32.7273 23.8197 33.2141C23.4952 33.8072 23.193 34.4171 22.9356 35.0438C22.6782 35.6761 22.3481 36.2636 22.0683 36.8735C21.8277 37.3939 21.4976 37.8583 21.3185 38.4123C21.257 38.6137 21.1954 38.8151 21.1563 39.0278C21.0947 39.3747 21.0332 39.716 20.8653 40.0238C20.8317 40.0909 20.8037 40.1581 20.7814 40.2308C20.4792 41.21 19.97 42.0717 19.4888 42.9558C19.1643 43.5489 18.7334 44.0189 18.2354 44.433C18.0452 44.5897 17.8381 44.7352 17.7206 44.9702C17.7094 44.9982 17.6871 45.0261 17.6647 45.0373C17.2786 45.2667 16.982 45.6416 16.5456 45.7815C16.3441 45.8487 16.1259 45.8822 15.9413 45.7032C15.9021 45.664 15.8406 45.6472 15.7902 45.636C15.5608 45.5857 15.3649 45.4626 15.1747 45.3283C15.0236 45.2164 14.8781 45.0933 14.6935 44.9422C14.6487 44.7855 14.5928 44.5841 14.5368 44.3826C14.4808 44.17 14.5256 43.9686 14.5592 43.756C14.6431 43.2524 14.8781 42.8159 15.0684 42.3571C15.2139 42.0158 15.2474 41.6744 15.1411 41.3443C15.0068 40.9414 15.1131 40.6281 15.337 40.3259C15.4097 40.2308 15.4768 40.1469 15.4824 40.0126C15.488 39.8391 15.5887 39.7104 15.7063 39.5873C15.9748 39.302 16.2938 39.0949 16.6351 38.955C16.8142 38.8823 16.9429 38.7368 17.1107 38.6585C17.273 38.5857 17.3961 38.4626 17.4968 38.3116C17.5919 38.1605 17.7374 38.1045 17.9053 38.1101C17.978 38.1101 18.0508 38.1157 18.1179 38.1101C18.2578 38.1045 18.3641 38.0374 18.4313 37.9087C18.56 37.6513 18.6887 37.3995 18.8062 37.1365C19.1139 36.4371 19.2594 35.6929 19.3489 34.9319C19.3881 34.5961 19.4105 34.266 19.4384 33.9303C19.4888 33.3316 19.3937 32.744 19.3097 32.1677C19.3825 32.0558 19.5783 32.1173 19.5672 31.9271C19.5951 31.9327 19.6287 31.9271 19.6399 31.9439C20.0483 32.4195 20.4065 32.9231 20.6359 33.5274C20.8821 34.1821 21.0499 34.8535 21.0947 35.5642C21.1115 35.788 21.1618 36.0062 21.1954 36.2132C21.3241 36.2356 21.3745 36.1573 21.4248 36.0845C21.5815 35.8495 21.7326 35.6089 21.8781 35.3683C22.6335 34.1261 23.3833 32.8839 24.1331 31.6417C24.4744 31.0766 24.8045 30.5114 25.1402 29.9407C25.3081 29.6497 25.4144 29.3364 25.3697 28.9839C25.3585 28.8943 25.3697 28.7992 25.3808 28.7097C25.4144 28.5306 25.5487 28.346 25.7669 28.3572C25.8733 28.3628 25.9908 28.3292 26.0915 28.29C26.2649 28.2173 26.4272 28.1278 26.4943 27.9151C26.5111 27.8648 26.5671 27.8256 26.6174 27.7641C26.8301 27.7864 27.0539 27.7193 27.2721 27.8312C27.3393 27.8648 27.44 27.8312 27.5239 27.8368C27.6246 27.8424 27.7254 27.8368 27.8205 27.8704C28.0835 27.9543 28.2234 28.1781 28.1674 28.4691C28.0835 28.8999 28.0275 29.3364 27.9827 29.7784C27.938 30.2037 27.8932 30.6233 27.8541 31.0486C27.8485 31.1046 27.8652 31.1605 27.8652 31.2221C27.9883 31.2165 28.0163 31.1213 28.0611 31.0486C28.2625 30.6793 28.464 30.31 28.6542 29.9351C28.962 29.3308 29.2641 28.7265 29.5663 28.1222C29.7677 27.7193 29.9691 27.3164 30.1706 26.9135C30.2545 26.7513 30.344 26.6002 30.4336 26.4435C30.6686 26.0406 30.926 25.6602 31.2169 25.302C31.3009 25.2013 31.3624 25.0782 31.4184 24.9551C31.5471 24.6921 31.7093 24.4683 31.9611 24.3284C32.1906 24.1997 32.4144 24.0654 32.655 23.9256C32.6718 23.8696 32.6886 23.7969 32.7165 23.7297C32.7949 23.5339 32.9571 23.4387 33.125 23.5227C33.4495 23.6849 33.7909 23.6178 34.1266 23.6458C34.5966 23.0694 34.9827 22.4483 35.173 21.7153C35.2345 21.4803 35.2681 21.2397 35.2849 20.9935C35.3017 20.7417 35.2345 20.5179 35.0666 20.3221C34.6917 19.8856 34.3224 19.438 33.9587 18.9847C33.83 18.8225 33.7069 18.649 33.6062 18.47C33.4887 18.2517 33.3544 18.0671 33.153 17.9384C32.7557 18.2293 32.6662 18.3357 32.4591 18.7609C32.4144 18.856 32.3584 18.9512 32.2857 19.0183C32.1346 19.1582 32.0227 19.3317 31.9164 19.5107C31.8716 19.5835 31.8436 19.6842 31.7373 19.6786C31.4687 20.0703 31.0491 20.3053 30.7973 20.7193C30.5007 21.2061 30.0419 21.4915 29.639 21.844C29.1242 22.2917 28.5759 22.7057 28.1226 23.2373C27.9995 23.3828 27.8485 23.5003 27.8037 23.7017C27.7925 23.7409 27.7533 23.7745 27.7198 23.8025C27.4288 24.0542 27.2441 24.3956 27.0091 24.7145C27.0315 24.7593 27.0595 24.8096 27.0931 24.8768C26.9588 25.3076 26.679 25.6378 26.3712 25.9455C25.6998 26.6114 25.0339 27.2772 24.3737 27.9543C24.0659 28.2676 23.7749 28.609 23.4728 28.9279C23.3833 29.023 23.2769 29.107 23.1762 29.1909C22.9468 29.37 22.7118 29.5378 22.4824 29.7169C22.3705 29.8064 22.2698 29.9127 22.1355 30.0358C22.0571 30.047 21.9452 30.0806 21.8333 30.075C21.4696 30.047 21.1227 30.1254 20.7758 30.2205C20.5352 30.2876 20.3001 30.282 20.0595 30.2485C19.8581 30.2205 19.7014 30.1309 19.5951 29.9519C19.4105 29.6441 19.2426 29.3252 19.0691 29.0118C18.9572 28.8104 19.0188 28.5418 18.7894 28.3684C18.6103 28.2341 18.504 27.9935 18.3641 27.8032C18.3082 27.7305 18.2522 27.6633 18.1962 27.5962C18.0284 27.4171 17.9053 27.2213 17.9109 26.9583C17.9109 26.9303 17.9053 26.8968 17.8941 26.8688C17.7878 26.5778 17.8437 26.3316 18.062 26.1302C18.1235 26.0742 18.1235 26.0071 18.1179 25.9287C18.1067 25.7105 18.1123 25.7105 18.2914 25.6378C18.3697 25.6042 18.4481 25.5762 18.5152 25.5538C18.5264 25.5035 18.5488 25.4699 18.5432 25.4475C18.448 25.0614 18.4872 24.9831 18.8173 24.8936C18.9013 24.8712 18.9908 24.8712 19.0691 24.8432C19.2034 24.7984 19.3713 24.7761 19.4608 24.6809C19.707 24.4236 19.9868 24.4068 20.2946 24.4683C20.3225 24.4739 20.3505 24.4683 20.4121 24.4683C20.4624 24.418 20.5464 24.3564 20.6079 24.2781C20.7086 24.1494 20.8093 24.0207 20.8989 23.8808C21.6039 22.8456 22.3033 21.7993 23.014 20.7641C23.7022 19.7513 24.4072 18.7497 25.0955 17.7425C25.3641 17.3453 25.6159 16.9424 25.8733 16.5339C25.918 16.4668 25.9404 16.3772 25.9964 16.2318C25.8565 16.2933 25.7669 16.3045 25.711 16.3549C25.4648 16.5731 25.1738 16.7018 24.8884 16.8361C24.7597 16.8976 24.6422 16.9872 24.508 17.0487C24.1834 17.1998 23.8757 17.39 23.512 17.4572C23.249 17.5075 23.0196 17.6866 22.7454 17.7314C22.4097 17.7817 22.0795 17.888 21.7438 17.9328C21.5647 17.9552 21.3801 17.9048 21.1954 17.8768C21.0667 17.8545 20.938 17.8321 20.8205 17.7873C20.6191 17.709 20.4233 17.6306 20.205 17.6754C20.1547 17.6866 20.0819 17.6698 20.0428 17.6362C19.7854 17.4236 19.4776 17.2893 19.2594 17.0151C18.974 16.657 18.6663 16.3157 18.4425 15.9016C18.3641 15.7506 18.2522 15.6442 18.0955 15.5771C17.8214 15.4596 17.6255 15.2526 17.48 14.9672C17.3849 14.7825 17.245 14.6259 17.1219 14.458C16.9261 14.195 16.8701 13.9096 17.0268 13.6075C17.0772 13.5068 17.0828 13.4116 17.066 13.3053C17.0324 13.0479 16.982 12.7961 16.8757 12.5555C16.8254 12.4324 16.7862 12.3037 16.7414 12.1582C16.8477 12.1135 16.9373 12.0799 17.0156 12.0463C17.4465 12.3093 17.8717 12.5611 18.2914 12.8241C18.4984 12.9528 18.7054 12.9976 18.946 12.9696C19.5336 12.9024 20.0931 12.729 20.6471 12.5164C21.2234 12.2925 21.7942 12.0519 22.3649 11.8169C22.4992 11.761 22.6335 11.705 22.751 11.6267C22.8405 11.5651 22.93 11.4756 22.986 11.3749C23.1706 11.0503 23.3273 10.7034 23.5176 10.3845C23.8029 9.90327 23.9932 9.37729 24.2002 8.85691C24.5583 7.96163 24.7318 7.02159 24.7206 6.04798C24.715 5.57236 24.6422 5.10793 24.4856 4.6603C24.3793 4.36374 24.2282 4.12873 23.9652 3.96086C23.6574 3.76502 23.4112 3.47965 23.1818 3.18869C23.0308 2.99844 22.8741 2.83617 22.6782 2.70188C22.2586 2.41091 21.8893 2.04721 21.5703 1.63314C21.4528 1.48206 21.3353 1.33658 21.1898 1.14074C21.2962 1.12954 21.3633 1.12395 21.4528 1.11276C21.3913 1.00645 21.3409 0.905725 21.2682 0.782625C21.3689 0.737861 21.4528 0.681905 21.5424 0.659523C22.1131 0.508445 22.6782 0.362962 23.249 0.217479C23.3889 0.183907 23.5231 0.14474 23.663 0.105571C24.1778 -0.0566977 24.6758 -0.0399098 25.1626 0.211887C25.4984 0.385347 25.8397 0.536423 26.1866 0.681906C26.3545 0.754647 26.5391 0.810604 26.7182 0.832986C27.3113 0.900132 27.8429 1.15752 28.3633 1.4373C28.4136 1.46527 28.4584 1.51564 28.5087 1.53242C28.8612 1.62755 29.0347 1.92411 29.197 2.23186C29.225 2.28222 29.2417 2.34936 29.2809 2.38293C29.46 2.5452 29.5439 2.78581 29.6838 2.97046C29.9636 3.32857 29.9803 3.77062 30.0755 4.19028C30.0979 4.27981 30.0923 4.37493 30.1258 4.45326C30.2601 4.76101 30.1986 5.04639 30.0699 5.32616C30.0419 5.38211 30.0195 5.43248 29.9915 5.48843C29.9188 5.51641 29.8572 5.54438 29.7845 5.56117C29.6446 5.59474 29.5271 5.63951 29.404 5.74582C29.2641 5.86892 29.0627 5.90809 28.9228 6.0256C28.7829 6.1431 28.699 6.33894 28.5143 6.41728C28.464 6.43966 28.4136 6.47883 28.3856 6.52919C28.2793 6.71384 28.1115 6.78098 27.9212 6.83694C27.8429 6.74182 27.7645 6.65788 27.675 6.55157C27.5799 6.56276 27.4736 6.57955 27.3449 6.59633C27.3169 6.48442 27.2945 6.37811 27.2609 6.28299C27.2106 6.1431 27.0763 6.10393 26.9924 6.21024C26.8245 6.41728 26.6398 6.61872 26.5111 6.84813C26.2873 7.24541 25.974 7.55876 25.6942 7.90568C25.4424 8.21903 25.1906 8.53237 24.978 8.8737C24.659 9.39408 24.2618 9.85291 23.9037 10.3509C23.6966 10.6363 23.4728 10.9105 23.3161 11.2854C23.4112 11.2686 23.4728 11.2686 23.5176 11.2462C24.6255 10.7482 25.7222 10.2278 26.7741 9.6123C27.4512 9.21502 28.1282 8.82893 28.7997 8.42046C29.1354 8.21343 29.4488 7.97282 29.7677 7.74341C29.9244 7.6315 30.0419 7.49161 30.0755 7.27339C30.1146 7.02159 30.2713 6.84254 30.4671 6.70265C30.5567 6.6355 30.6574 6.55717 30.7133 6.45645C30.926 6.05917 31.2505 5.82975 31.6422 5.70106C31.7877 5.65629 31.8884 5.58915 31.9723 5.44367C32.1738 5.10234 32.3976 5.18627 32.5655 5.38211C32.7333 5.57236 32.9068 5.74582 33.1586 5.80737C33.2145 5.81856 33.2761 5.85773 33.3264 5.84094C33.7013 5.70106 34.093 5.94166 34.4679 5.79618C34.7645 5.82416 35.0666 5.82416 35.3128 6.04238C35.3688 6.09274 35.4304 6.13191 35.4975 6.15429C35.7661 6.25501 36.0514 6.31096 36.2976 6.45085C36.5774 6.60752 36.8908 6.75301 36.9579 7.15588C36.9803 7.30136 37.0474 7.43006 37.1426 7.55876C37.2936 7.7546 37.2545 7.93366 37.0698 8.06235C36.639 8.35891 36.2081 8.64428 35.7773 8.93525C35.7549 8.95203 35.7269 8.97442 35.7045 8.97442C35.3688 8.9968 35.1394 9.243 34.882 9.42206C34.6302 9.59552 34.3784 9.76338 34.1098 9.90327C33.8972 10.0152 33.7405 10.183 33.6062 10.3845C33.5279 10.4964 33.4607 10.6083 33.3768 10.7146C33.2649 10.8657 33.1474 11.0112 32.9851 11.1287C32.8228 11.2406 32.7054 11.4308 32.5767 11.5931C32.392 11.8225 32.2353 12.0743 31.9835 12.2422C31.7989 12.3653 31.6086 12.5331 31.5695 12.8017C31.3065 13.1431 31.1946 13.5851 30.9092 13.9152C30.87 13.96 30.8532 14.0271 30.8085 14.0607C30.4727 14.3013 30.344 14.7378 30.0139 14.984C29.958 15.0231 29.9188 15.1071 29.902 15.1742C29.8125 15.5043 29.5943 15.745 29.4208 16.0191C29.2473 16.2989 29.0515 16.5619 28.8724 16.8305C28.7102 17.0767 28.5479 17.3285 28.3912 17.5859C28.0499 18.1678 27.6135 18.677 27.2386 19.2309C27.2218 19.2533 27.205 19.2813 27.1826 19.2981C26.8301 19.5499 26.5895 19.908 26.3265 20.2493C26.2649 20.3333 26.1978 20.4228 26.1139 20.4731C25.9012 20.6074 25.7222 20.7753 25.5711 20.9767C25.5039 21.0663 25.4144 21.111 25.2857 21.0271C25.3473 20.8201 25.6327 20.6298 25.4032 20.3612C25.3081 20.406 25.2242 20.4452 25.1402 20.4843L25.1962 20.5011ZM29.7062 14.4188C29.3537 14.9952 28.9508 15.4596 28.6094 15.98C28.4863 16.159 28.4584 16.3381 28.4584 16.5955C28.6262 16.4444 28.7605 16.3493 28.8612 16.1926C29.0739 15.8513 29.2977 15.5211 29.5159 15.1798C29.5943 15.0567 29.667 14.9224 29.7453 14.7937C29.8013 14.693 29.8013 14.5923 29.7062 14.4188ZM34.6526 23.808C34.9939 23.6738 34.9995 23.6626 35.0163 23.4164C34.882 23.5618 34.7701 23.6849 34.6526 23.808ZM25.9404 29.549C25.9572 29.5266 25.9796 29.5043 25.9852 29.4763C25.9852 29.4539 25.9628 29.4315 25.9516 29.4091C25.9348 29.4315 25.9124 29.4539 25.9068 29.4763C25.9012 29.4987 25.9236 29.521 25.9404 29.549Z" fill="#D9D9D9"/>
<path d="M31.1779 79.4942C31.1387 79.4494 31.1051 79.4047 31.0492 79.3431C31.3122 79.1305 31.5695 78.9403 31.8101 78.7276C32.006 78.5542 32.1795 78.3471 32.3585 78.1569C32.4368 78.073 32.5096 77.9722 32.5823 77.8771C32.767 77.9666 32.9069 77.8771 33.0635 77.754C33.0691 77.6813 33.0747 77.5917 33.0803 77.491C33.4664 77.2896 33.7742 76.9762 34.0483 76.6293C34.468 76.6013 34.8597 76.6461 35.2346 76.8196C35.4416 76.9147 35.6487 76.9315 35.8613 76.9203C36.1019 76.9091 36.3481 76.9147 36.5887 76.8979C37.2602 76.8531 37.8589 77.0714 38.4016 77.463C38.6254 77.6197 38.8157 77.8323 39.0563 77.9722C39.1179 78.0058 39.1738 78.073 39.2018 78.1345C39.3137 78.3975 39.5039 78.6101 39.5319 78.9179C39.5431 79.0466 39.6326 79.1697 39.683 79.2928C39.7781 79.5446 39.7669 79.774 39.6438 80.0314C39.4088 80.5014 39.0451 80.742 38.5639 80.8147C38.2002 80.8707 37.8421 80.9602 37.484 81.0442C37.4448 81.0554 37.4 81.0777 37.3721 81.1113C37.0867 81.475 36.6446 81.6373 36.3761 82.0234C36.3369 82.0793 36.2642 82.1129 36.2026 82.1577C36.0235 82.2864 35.8445 82.4095 35.7214 82.6053C35.6934 82.6557 35.6319 82.678 35.5759 82.7284C35.5479 82.6892 35.52 82.6613 35.5032 82.6277C35.4864 82.5885 35.4808 82.5382 35.4696 82.4878C35.1674 82.4374 34.91 82.4934 34.7478 82.8011C34.468 83.3327 34.1491 83.8363 33.8357 84.3455C33.6287 84.6812 33.6623 85.0841 33.7574 85.459C33.9196 86.1193 34.2218 86.6956 34.6862 87.1824C35.52 88.0497 36.4768 88.6932 37.5847 89.0681C38.0379 89.2248 38.452 89.4542 38.8605 89.7172C39.0955 89.8682 39.3361 89.9969 39.6103 90.0473C39.7501 90.0697 39.8956 90.0865 40.0299 90.0697C40.2649 90.0361 40.4608 90.1144 40.6007 90.3047C40.7629 90.5285 40.9644 90.6852 41.1658 90.8586C41.3728 91.0377 41.5575 91.2503 41.7589 91.4518C41.966 91.6588 42.201 91.8378 42.3744 92.0673C42.6654 92.4422 42.9396 92.8338 43.1746 93.2423C43.2977 93.4549 43.3257 93.7347 43.3872 93.9809C43.4376 94.188 43.4767 94.395 43.5215 94.602C43.5775 94.8762 43.6166 95.1504 43.3872 95.363C43.2473 95.7435 42.906 95.9561 42.699 96.2863C42.5871 96.4597 42.4024 96.566 42.1786 96.5325C41.938 96.4989 41.6918 96.4485 41.4568 96.4709C41.233 96.4933 41.0147 96.5548 40.7853 96.5716C40.4887 96.594 40.2314 96.4597 39.9572 96.387C39.8341 96.3534 39.7054 96.303 39.5879 96.3198C39.3473 96.3646 39.1067 96.3646 38.8661 96.3366C38.7206 96.3198 38.5807 96.3254 38.4464 96.4038C38.3848 96.4373 38.3121 96.4653 38.245 96.4709C37.6239 96.5436 37.0755 96.8514 36.5159 97.1144C36.3201 97.2039 36.1299 97.3158 35.9452 97.4221C35.3857 97.7523 34.8205 98.0824 34.2666 98.4293C33.5 98.9049 32.7446 99.3974 31.9892 99.8842C31.8325 99.9849 31.7038 100.024 31.5584 99.8394C31.7486 99.6603 31.9165 99.4533 32.1291 99.3134C32.6215 98.9945 33.0523 98.5916 33.4944 98.2167C34.0987 97.7019 34.6974 97.1815 35.257 96.6164C35.9956 95.8722 36.6726 95.072 37.249 94.1768C37.5231 93.7515 37.7861 93.3095 37.8812 92.7891C37.8924 92.7163 37.898 92.638 37.9092 92.5485C37.5735 92.2911 37.2322 92.0393 36.902 91.7763C36.5943 91.5301 36.3089 91.2559 36.0068 91.0041C35.8277 90.853 35.6431 90.7132 35.4584 90.5789C35.1954 90.3886 34.9604 90.1816 34.7534 89.9186C34.5352 89.6388 34.2722 89.3982 34.0372 89.1352C33.293 88.3071 32.8621 87.3055 32.6215 86.2032C32.4201 85.2967 32.4984 84.3847 32.6775 83.4782C32.8677 82.5214 33.1811 81.6037 33.5392 80.7084C33.7518 80.1769 33.9476 79.6341 34.1435 79.0969C34.1714 79.0186 34.177 78.9235 34.1994 78.806C34.1043 78.806 34.0316 78.8004 33.97 78.806C32.9908 78.9403 32.0955 79.3096 31.2842 79.9251C30.719 80.3559 30.2826 80.9099 29.8965 81.5142C29.779 81.6988 29.7342 81.9115 29.751 82.1577C29.7846 82.9075 29.8909 83.6461 29.986 84.3847C30.0308 84.7316 30.0532 85.0785 30.0923 85.431C30.1315 85.8115 30.1763 86.1864 30.2042 86.5669C30.2938 87.63 30.3777 88.6932 30.4672 89.7563C30.54 90.6516 30.6183 91.5469 30.6966 92.4422C30.7582 93.1248 30.8365 93.8075 30.8813 94.4901C30.9149 94.9433 30.9093 95.4078 30.9093 95.861C30.9093 96.7451 30.9149 97.6292 30.8757 98.5133C30.8533 99.0001 30.7526 99.4757 30.6855 99.9625C30.6071 100.505 30.4169 101.02 30.2714 101.54C30.1707 101.904 30.0979 102.279 30.014 102.643C29.9972 102.715 29.986 102.799 29.9413 102.85C29.7566 103.062 29.6951 103.325 29.6783 103.588C29.5664 103.622 29.4433 103.622 29.3873 103.689C29.1747 103.935 28.8725 104.002 28.6095 104.154C28.4417 104.249 28.2514 104.249 28.0724 104.154C28.022 104.126 27.9661 104.103 27.9157 104.086C27.5352 103.958 27.2498 103.706 26.998 103.376C26.7854 103.102 26.6231 102.805 26.5112 102.469C26.4273 102.212 26.2594 101.988 26.265 101.703C26.265 101.613 26.2594 101.524 26.2538 101.429C26.237 101.143 26.2426 100.863 26.1139 100.589C26.0356 100.427 25.9685 100.225 26.0524 100.018C26.0748 99.9737 26.058 99.8953 26.0412 99.845C25.9461 99.5932 25.8677 99.3302 25.6999 99.112C25.5936 98.9721 25.5208 98.7986 25.4537 98.6364C25.4145 98.5412 25.3809 98.4293 25.3977 98.3286C25.4257 98.1775 25.3921 98.06 25.3082 97.9481C25.1739 97.7635 25.0676 97.5732 25.1235 97.3214C25.1347 97.2711 25.1068 97.2039 25.0844 97.148C25.006 96.9689 24.9277 96.7899 24.8438 96.6164C24.7598 96.4541 24.6815 96.2919 24.5752 96.1464C24.0996 95.5141 23.6631 94.8594 23.2491 94.1824C23.2323 94.16 23.2043 94.1432 23.1595 94.104C23.1036 94.1544 23.014 94.1991 22.9861 94.2663C22.5888 95.1951 21.9341 95.8834 21.2235 96.5269C21.1675 96.5772 21.1172 96.6276 21.05 96.6947C20.9885 96.6723 20.9213 96.6556 20.8598 96.6276C20.6919 96.5548 20.5296 96.566 20.3562 96.6164C20.1939 96.6668 20.0205 96.6779 19.8526 96.6891C19.6512 96.7003 19.4553 96.6947 19.2595 96.7675C19.0636 96.8402 18.8622 96.8346 18.672 96.7507C18.4761 96.6667 18.2579 96.6388 18.0844 96.4821C18.0341 96.4373 17.9557 96.4262 17.883 96.4094C17.7599 96.3702 17.6368 96.3366 17.5137 96.2974C17.0884 96.1576 17.0772 96.1352 17.1164 95.6316C17.0549 95.5868 16.9877 95.5365 16.9094 95.4973C16.8478 95.4637 16.7807 95.4469 16.6855 95.4134C16.8142 95.2231 16.9262 95.0552 17.0493 94.8706C17.1947 94.8482 17.3682 94.9545 17.5249 94.8314C17.6648 94.7251 17.8214 94.6468 17.9613 94.5405C18.4034 94.1991 18.7727 93.7683 19.1532 93.3542C19.4833 92.9961 19.8134 92.638 20.138 92.2743C20.2499 92.1512 20.3562 92.0337 20.4625 91.9106C20.5968 91.7539 20.7367 91.6084 20.9101 91.4909C21.1004 91.3622 21.2738 91.1944 21.3018 90.9202C21.3074 90.853 21.3634 90.7859 21.4026 90.7299C21.4753 90.6348 21.548 90.5453 21.6264 90.4558C21.7047 90.3662 21.7103 90.2655 21.6767 90.1592C21.5984 89.913 21.5201 89.6668 21.4361 89.4262C21.3802 89.2695 21.2291 89.2359 21.134 89.3646C20.8766 89.7283 20.6248 90.0976 20.3786 90.4725C20.2163 90.7243 20.0764 90.9873 19.9197 91.2447C19.8246 91.4014 19.8246 91.4014 19.584 91.5357C19.668 91.3622 19.7351 91.2167 19.8078 91.0769C20.2611 90.204 20.58 89.2751 20.8094 88.3127C20.843 88.1672 20.843 88.0105 20.8542 87.8595C20.871 87.5909 20.7759 87.3782 20.5576 87.2495C20.3674 87.132 20.2723 86.9642 20.2387 86.7404C20.2275 86.6676 20.1995 86.5949 20.1604 86.5333C19.9645 86.2703 19.7855 85.9906 19.5616 85.7556C19.3098 85.4926 19.1979 85.1848 19.1811 84.8267C19.3154 84.6588 19.4497 84.5078 19.5728 84.3399C19.819 84.0154 20.1492 83.8475 20.5073 83.7244C20.7087 83.6517 20.9157 83.7188 21.0892 83.8195C21.3186 83.9538 21.5424 83.9482 21.7886 83.9202C22.3594 83.8587 22.8909 84.0265 23.4001 84.2839C23.4505 84.3063 23.5064 84.3455 23.5288 84.3959C23.6128 84.5637 23.7583 84.6141 23.9205 84.6421C24.038 84.6588 24.1443 84.7204 24.2003 84.8323C24.301 85.0449 24.4353 85.2632 24.4633 85.487C24.4913 85.6996 24.5696 85.8507 24.7319 85.9962C24.6703 86.1025 24.6367 86.2256 24.564 86.2647C24.3793 86.3711 24.2003 86.4886 24.0101 86.5837C23.8646 86.6564 23.6743 86.6732 23.5064 86.662C22.9357 86.6285 22.5832 86.981 22.2754 87.423C22.1971 87.5349 22.2027 87.6468 22.2698 87.7643C22.4657 88.1001 22.6615 88.4358 22.8742 88.7995C22.9525 88.7268 23.0196 88.682 23.0756 88.6204C23.4281 88.2232 23.7806 87.8203 24.1387 87.4286C24.2954 87.2551 24.4633 87.0873 24.6423 86.9418C24.8494 86.7739 25.0172 86.5725 25.1683 86.3487C25.1963 86.3039 25.2634 86.2871 25.3138 86.2536C25.3474 86.3599 25.3921 86.3822 25.4313 86.3207C25.4481 86.2927 25.4425 86.2424 25.4481 86.2032C25.4257 86.2088 25.3977 86.2088 25.3753 86.2144C25.3474 86.2256 25.3306 86.248 25.3026 86.2647C25.3698 86.1416 25.4369 86.0129 25.5152 85.8954C25.5544 85.8283 25.6215 85.8451 25.6831 85.8395C25.7782 85.8283 25.8621 85.7388 25.9517 85.6772C25.9685 85.6716 25.9797 85.6604 25.9908 85.6492C26.0524 85.5709 26.114 85.487 26.1755 85.4086L26.1643 85.4254C26.2762 85.3415 26.3937 85.2687 26.5 85.1792C26.5392 85.1456 26.5784 85.0897 26.5896 85.0393C26.6567 84.7987 26.8134 84.6309 26.9813 84.4462C27.0428 84.4742 27.1099 84.4966 27.1715 84.5246C27.3673 84.6197 27.4457 84.5973 27.524 84.3903C27.5464 84.3343 27.5576 84.2783 27.5688 84.2224L27.5744 84.228C27.6415 84.2 27.7031 84.172 27.7758 84.2783C27.6191 84.5022 27.4401 84.7204 27.2946 84.961C27.0988 85.2855 26.8693 85.5709 26.6063 85.8283C26.556 85.8787 26.4833 85.9346 26.4721 86.0018C26.4273 86.2088 26.2874 86.3431 26.1867 86.5054C26.0916 86.6564 25.9741 86.8075 25.9237 86.9754C25.8174 87.3335 25.6216 87.63 25.4257 87.9266C25.2522 88.1896 25.0956 88.4582 24.9221 88.7212C24.7542 88.973 24.6535 89.2471 24.6255 89.5549C24.6144 89.6612 24.5752 89.7619 24.5528 89.8626C24.4745 90.2319 24.3961 90.6012 24.3234 90.9761C24.3122 91.0433 24.329 91.1272 24.357 91.1944C24.5528 91.6196 24.7598 92.0337 25.0508 92.3974C25.1347 92.5037 25.1907 92.6212 25.2354 92.7499C25.3082 92.9625 25.4145 93.164 25.5824 93.3207C25.6663 93.399 25.7334 93.5053 25.8118 93.5892C26.1699 93.9641 26.5224 94.339 26.8917 94.7027C27.054 94.865 27.2554 94.9825 27.496 95.0664C27.5128 94.9601 27.5296 94.8874 27.5352 94.8146C27.5688 94.3558 27.6023 93.9026 27.6303 93.4438C27.6695 92.7891 27.7087 92.1344 27.7422 91.4797C27.7926 90.5061 27.8429 89.5325 27.8933 88.5533C27.9101 88.2008 27.9213 87.8539 27.9325 87.5013C27.966 86.4662 27.994 85.4254 28.0388 84.3903C28.0444 84.2056 27.994 84.0657 27.8933 83.937L27.8821 83.9538C28.0388 83.8419 28.022 83.6572 28.0276 83.5062C28.0668 82.3647 28.0668 81.2232 27.9996 80.0761C27.9605 79.3431 27.9828 78.6101 27.9549 77.8771C27.9325 77.1889 27.8821 76.5062 27.8429 75.8236C27.8318 75.6277 27.815 75.4263 27.7982 75.2305C27.787 75.0962 27.7758 74.9619 27.759 74.7884C27.6695 74.8164 27.5967 74.8164 27.5464 74.8556C27.1771 75.1185 26.7966 75.3647 26.4609 75.6669C25.8845 76.1817 25.2858 76.6573 24.7039 77.1665C24.2842 77.5414 23.803 77.7876 23.2323 77.8268C22.863 77.8547 22.4937 77.8435 22.13 77.8212C21.6935 77.7876 21.2459 77.7148 20.871 77.4295C20.6528 77.2616 20.3898 77.1777 20.1883 76.965C19.9869 76.7468 19.791 76.5398 19.6288 76.2824C19.3434 75.8292 19.0301 75.3983 18.7391 74.9451C18.4649 74.5198 18.1628 74.1169 17.9445 73.6525C17.9333 73.6245 17.911 73.6022 17.9054 73.5686C17.8326 73.1937 17.6815 72.8468 17.5473 72.4943C17.5137 72.4103 17.5081 72.3152 17.4857 72.2257C17.4689 72.1529 17.4465 72.0802 17.4242 72.0074C17.4018 71.9291 17.3458 71.8564 17.3346 71.7333C17.4074 71.7613 17.4577 71.7668 17.4801 71.7948C17.6536 72.0019 17.855 72.1585 18.062 72.3208C18.2691 72.4831 18.4537 72.6733 18.6384 72.8636C18.907 73.1433 19.2259 73.2273 19.584 73.1377C19.8638 73.0706 20.1436 72.9978 20.4066 72.8915C20.9157 72.6901 21.4249 72.4831 21.9229 72.2536C23.4281 71.5542 24.9333 70.8436 26.4385 70.1386C26.7406 69.9987 27.0428 69.8644 27.345 69.7245C27.4737 69.6629 27.6023 69.5958 27.7254 69.5342C27.7478 69.4223 27.7758 69.3328 27.7814 69.2489C27.7982 68.7285 27.8094 68.2137 27.815 67.6933C27.8206 66.9156 27.8206 66.1378 27.815 65.36C27.815 64.6102 27.8094 63.866 27.7982 63.1162C27.7926 62.5343 27.7926 61.958 27.7758 61.376C27.7646 61.0235 27.7254 60.6766 27.7031 60.3241C27.6919 60.1786 27.6415 60.0611 27.552 59.9604C27.3841 59.7757 27.233 59.5687 27.0596 59.3896C26.7294 59.0483 26.4553 58.6622 26.2259 58.2314C26.1531 58.0915 26.0468 57.9628 25.9181 57.7725C25.9181 57.711 25.9181 57.5823 25.9181 57.4536C25.9461 57.4368 25.9741 57.4144 25.9964 57.4144C26.2091 57.4536 26.4161 57.4928 26.6287 57.5319C26.8302 57.5767 27.026 57.5655 27.2219 57.5151C27.6247 57.42 28.1115 57.5375 28.4417 57.7837C28.6655 57.9516 28.8893 58.1083 29.1187 58.2593C29.2978 58.3768 29.4992 58.4552 29.6279 58.6622C29.6783 58.7462 29.7846 58.8021 29.8741 58.8357C30.1931 58.9476 30.4449 59.177 30.7022 59.3952C30.9596 59.6079 31.2394 59.7981 31.4744 60.0443C31.6647 60.2401 31.8325 60.4863 31.9556 60.7381C32.1235 61.0851 32.2802 61.4488 32.3753 61.8293C32.4872 62.2657 32.5096 62.6966 32.4424 63.1386C32.3865 63.4967 32.2018 63.7485 31.9165 63.9276C31.8549 63.9667 31.7878 64.0003 31.7262 64.0283C31.5639 64.1122 31.3625 64.1122 31.273 64.3248C31.1946 64.5039 30.9876 64.5711 30.9205 64.7725C30.8869 64.8788 30.7918 64.9739 30.7134 65.0579C30.54 65.2425 30.3665 65.4216 30.1819 65.5894C30.0867 65.679 30.0028 65.7853 29.8629 65.8021C29.7007 65.8188 29.6167 65.9419 29.5608 66.093C29.4489 66.3728 29.3258 66.647 29.3034 66.9603C29.2866 67.1394 29.2194 67.3184 29.2082 67.4975C29.1747 67.9451 29.1635 68.3984 29.1411 68.8908C29.2866 68.8348 29.3929 68.8068 29.4992 68.7621C30.1091 68.4935 30.7134 68.2193 31.3233 67.9563C31.5863 67.8388 31.8549 67.7325 32.1291 67.6374C32.3081 67.5758 32.4257 67.4583 32.4816 67.2737C32.5152 67.1562 32.5432 67.0387 32.5823 66.9268C32.6159 66.8092 32.6495 66.6917 32.7054 66.5854C32.7558 66.4847 32.8453 66.4344 32.9516 66.4288C32.9796 66.4288 33.0076 66.4288 33.0356 66.4343C33.3769 66.5183 33.5783 66.3392 33.707 65.9979C33.9812 66.0986 34.2386 66.1993 34.4904 66.3336C34.7814 66.4903 35.0667 66.6638 35.3633 66.8092C35.5703 66.91 35.7941 66.9491 36.0291 66.9603C36.3537 66.9827 36.6838 67.0443 36.9972 67.1394C37.4448 67.2793 37.9092 67.3912 38.3009 67.6933C38.4408 67.7996 38.6031 67.878 38.6422 68.085C38.6478 68.1242 38.6926 68.1522 38.7262 68.1801C38.9332 68.376 39.0731 68.6054 39.1346 68.9076C39.1794 69.1258 39.3025 69.3272 39.3753 69.5398C39.5655 70.0546 39.392 70.547 38.9332 70.8156C38.8605 70.8604 38.7877 70.9051 38.715 70.9499C38.5471 71.0506 38.3681 71.0954 38.1778 71.0338C37.9596 70.9611 37.7302 70.9499 37.5064 70.8995C37.1538 70.8156 36.7733 70.7764 36.5048 70.4575C36.46 70.4015 36.3929 70.3568 36.3313 70.3288C36.0851 70.2113 35.8333 70.105 35.5815 69.9987C35.4136 69.9259 35.257 69.9315 35.0891 70.0378C34.44 70.4463 33.7854 70.8548 33.1251 71.2409C32.6271 71.5374 32.1179 71.8116 31.6087 72.0858C30.9708 72.4271 30.3609 72.8244 29.7566 73.2217C29.6503 73.2944 29.5496 73.3839 29.46 73.4623C29.46 73.7532 29.4545 74.0218 29.46 74.296C29.4712 74.7045 29.4992 75.1185 29.5048 75.527C29.516 76.1985 29.516 76.8699 29.5216 77.5414C29.5216 77.8939 29.5216 78.2408 29.5328 78.5933C29.5496 79.1865 29.5832 79.7852 29.6055 80.3783C29.6055 80.4342 29.6223 80.4902 29.6391 80.5741C29.8517 80.5182 29.9525 80.3391 30.0923 80.2272C30.221 80.1209 30.3385 79.9978 30.512 79.8355C30.456 80.0314 30.4225 80.1545 30.3833 80.2832C30.1987 80.3615 30.1986 80.3615 30.1875 80.5462C30.2658 80.4343 30.3217 80.3503 30.3777 80.272C30.5064 80.1657 30.6351 80.0594 30.7582 79.9474C30.9149 79.8076 31.066 79.6565 31.2226 79.511L31.2338 79.5054C31.2394 79.4718 31.245 79.4383 31.2506 79.4047C31.2282 79.4215 31.2058 79.4383 31.1835 79.455L31.1779 79.4942ZM26.7966 85.1177C26.7854 85.1233 26.7686 85.1233 26.763 85.1345C26.7127 85.1848 26.7127 85.3023 26.7686 85.3303C26.7854 85.3415 26.8414 85.3191 26.8414 85.3135C26.847 85.2576 26.8414 85.2016 26.8358 85.1457C26.8302 85.1345 26.8078 85.1233 26.7966 85.1177ZM26.2762 85.8115L26.2986 85.7779L26.2706 85.7723L26.2762 85.8115Z" fill="#D9D9D9"/>
<path d="M33.6008 259.367C33.6624 259.602 33.696 259.837 33.696 260.083C33.696 260.357 33.7351 260.631 33.7631 260.9C33.8247 261.46 33.8918 262.019 33.9422 262.579C33.9702 262.881 33.9534 262.914 33.8135 263.239C33.7407 263.099 33.6792 262.97 33.6064 262.819C33.5113 262.959 33.5225 263.077 33.5337 263.194C33.5729 263.603 33.5952 264.011 33.6512 264.42C33.6792 264.604 33.668 264.772 33.5897 264.985C33.5113 264.828 33.5001 264.683 33.4833 264.548C33.3658 263.597 33.0525 262.719 32.7 261.846C32.2412 260.715 31.7823 259.579 31.3235 258.449C31.3011 258.393 31.2787 258.337 31.2563 258.281C30.5401 256.888 29.9694 255.422 29.2699 254.023C29.0965 253.676 28.9286 253.324 28.7384 252.988C28.3691 252.333 28.0725 251.639 27.7815 250.946C27.5913 250.498 27.5689 250.52 27.1828 250.739C26.7072 251.007 26.2316 251.287 25.7448 251.533C24.6649 252.081 23.5905 252.658 22.4323 253.016C22.214 253.083 21.9958 253.145 21.7776 253.212C21.4586 253.307 21.1229 253.257 20.7984 253.279C20.7368 253.285 20.6529 253.24 20.6081 253.189C20.4682 253.033 20.306 252.921 20.1437 252.803C19.9199 252.635 19.8751 252.344 19.7464 252.109C19.5841 251.807 19.4723 251.483 19.4107 251.136C19.3268 250.694 19.0974 250.319 18.8623 249.961C18.6665 249.664 18.4651 249.368 18.3196 249.01C18.4371 248.931 18.5378 248.858 18.6441 248.786C18.6553 248.758 18.6777 248.73 18.6833 248.702C18.6945 248.629 18.7169 248.551 18.7057 248.478C18.6833 248.221 18.7616 247.991 18.9015 247.795C19.1253 247.488 19.2205 247.152 19.1085 246.766C19.2484 246.525 19.3827 246.307 19.6009 246.139C19.808 245.982 19.9702 245.759 20.2053 245.63C20.2612 245.596 20.306 245.518 20.334 245.456C20.6529 244.751 21.0949 244.136 21.537 243.52C22.2532 242.53 22.9582 241.534 23.6689 240.538C23.7416 240.437 23.8144 240.348 23.7304 240.191C23.6297 240.191 23.5178 240.169 23.4115 240.197C22.7848 240.348 22.1637 240.292 21.5482 240.107C21.1677 239.99 20.7592 239.945 20.4067 239.732C19.7856 239.363 19.1477 239.016 18.7113 238.373C18.577 238.177 18.3923 238.026 18.2244 237.863C18.0734 237.723 17.9167 237.595 17.7488 237.472C17.1893 237.046 16.7808 236.487 16.4899 235.827C16.3332 235.474 16.0646 235.217 15.852 234.915C15.6505 234.635 15.4435 234.366 15.2421 234.086C15.1917 234.019 15.1525 233.935 15.1022 233.846C15.2309 233.795 15.2644 233.902 15.3148 233.947C15.3931 234.014 15.4547 234.098 15.533 234.17C15.5946 234.232 15.6673 234.288 15.7345 234.344C15.8128 234.411 15.8911 234.478 15.9695 234.545C16.0366 234.601 16.1038 234.663 16.1709 234.713C16.2492 234.775 16.3388 234.836 16.4171 234.898C16.4843 234.954 16.5514 235.01 16.6241 235.066C16.7025 235.133 16.7808 235.194 16.8647 235.256C16.9319 235.306 16.999 235.351 17.083 235.379C16.7976 234.819 16.266 234.484 15.9135 233.874C16.35 234.131 16.6409 234.472 17.1277 234.685C16.8703 234.372 16.6745 234.137 16.4899 233.891C16.3052 233.65 16.0534 233.471 15.9135 233.174C15.9807 233.213 16.0534 233.253 16.1206 233.297C16.8312 233.812 17.5922 234.232 18.3699 234.618C18.9127 234.887 19.4778 235.004 20.071 234.993C20.513 234.987 20.955 234.959 21.3915 234.875C21.4586 234.864 21.5258 234.836 21.5985 234.814C21.6041 234.758 21.6265 234.708 21.6097 234.674C21.3076 234.002 21.011 233.325 20.7033 232.66C20.4627 232.139 20.1549 231.669 19.78 231.238C19.4555 230.863 19.1365 230.466 18.8791 230.024C18.6945 229.705 18.4035 229.459 18.1629 229.185C17.9783 228.978 17.7936 228.771 17.609 228.564L17.5978 228.575C17.6817 228.575 17.76 228.575 17.844 228.575C17.8607 228.58 17.8831 228.592 17.8999 228.597C17.8775 228.592 17.8552 228.586 17.8328 228.58C17.8607 228.536 17.8831 228.485 17.9111 228.441L17.8999 228.446C18.2468 228.424 18.5714 228.513 18.8903 228.659C19.0302 228.72 19.1981 228.743 19.3491 228.743C20.071 228.72 20.6809 229.056 21.2628 229.448C21.3579 229.515 21.4419 229.571 21.5594 229.604C21.7496 229.655 21.9343 229.75 22.1245 229.823C22.4826 229.968 22.8631 230.069 23.1932 230.281C23.4562 230.449 23.7808 230.5 23.999 230.757C24.0158 230.779 24.0438 230.791 24.0717 230.802C24.3067 230.897 24.5418 230.987 24.7768 231.087C24.9223 231.149 25.0509 231.216 25.1405 231.378C25.2188 231.512 25.3643 231.613 25.4874 231.714C25.6497 231.843 25.8119 231.96 25.8679 232.19C25.8847 232.257 25.9462 232.307 25.9854 232.363C26.1645 232.313 26.282 232.201 26.3883 232.083C26.4834 231.977 26.5282 231.792 26.6401 231.725C26.8135 231.619 26.7464 231.423 26.8359 231.289C27.0317 231.216 27.2332 231.149 27.4402 231.076C27.5241 231.216 27.6361 231.283 27.7871 231.177C27.8823 231.11 27.9718 231.037 28.0613 230.97C28.2404 230.841 28.4194 230.807 28.6209 230.919C28.7775 231.009 28.9566 231.048 29.1245 231.121C29.2923 231.199 29.4546 231.322 29.628 231.367C29.8015 231.412 30.003 231.423 30.1764 231.384C30.389 231.339 30.5905 231.3 30.8087 231.294C30.9934 231.294 31.1836 231.277 31.3571 231.227C31.5921 231.16 31.8047 231.194 32.0117 231.3C32.0285 231.328 32.0509 231.35 32.0509 231.378C32.0509 231.451 32.0117 231.552 32.0453 231.596C32.1069 231.669 32.1964 231.731 32.2915 231.759C32.3978 231.792 32.5209 231.781 32.6272 231.815C32.7056 231.837 32.7727 231.904 32.8399 231.955C32.8846 232.083 32.879 232.195 32.7895 232.301C32.7168 232.385 32.6888 232.497 32.5489 232.531C32.3754 232.57 32.2132 232.682 32.0285 232.766C32.0733 232.861 32.1013 232.956 32.1516 233.018C32.2747 233.163 32.2691 233.325 32.2355 233.488C32.1852 233.739 32.0957 233.986 32.0453 234.237C32.0117 234.422 31.9166 234.54 31.7711 234.618C31.6201 234.702 31.4858 234.803 31.3515 234.92C31.0829 235.161 30.7527 235.284 30.4058 235.323C30.0645 235.362 29.7679 235.474 29.5665 235.793C29.2699 235.966 29.1133 236.291 28.8727 236.526C28.6432 236.755 28.4026 236.968 28.162 237.192C28.1117 237.242 28.0669 237.298 28.0165 237.349C28.0165 237.405 28.0054 237.455 28.0165 237.494C28.246 238.266 28.3914 239.061 28.6097 239.833C28.8615 240.739 29.0349 241.663 29.3203 242.558C29.4266 242.888 29.5161 243.229 29.6169 243.56C29.6392 243.627 29.684 243.688 29.7344 243.783C29.7847 243.722 29.8351 243.688 29.8519 243.638C29.891 243.526 29.919 243.403 29.947 243.302C30.0645 243.151 30.2212 243.201 30.3555 243.196C30.4954 243.19 30.6296 243.207 30.7807 243.213C30.7695 243.157 30.7583 243.106 30.7471 243.039C30.8591 242.938 30.9542 243.09 31.0605 243.062C31.1556 243.039 31.2563 243.05 31.3459 243.045C31.4466 242.978 31.3571 242.899 31.3738 242.838C31.3906 242.771 31.4298 242.709 31.4634 242.631C31.5921 242.681 31.7152 242.642 31.8383 242.457C31.8103 242.608 31.7935 242.681 31.7767 242.765C31.9782 242.793 32.0005 242.564 32.202 242.519C32.3866 242.558 32.6216 242.603 32.8511 242.67C33.0133 242.715 33.1308 242.659 33.2371 242.547C33.3323 242.446 33.3658 242.323 33.2987 242.189C33.3826 242.127 33.433 242.183 33.4833 242.239C33.5281 242.284 33.5897 242.317 33.6904 242.384C33.668 242.245 33.6568 242.161 33.64 242.049C33.7351 242.071 33.8471 242.06 33.8862 242.116C34.0485 242.323 34.2723 242.329 34.4961 242.384C34.7367 242.233 34.9829 242.082 35.2851 242.138C35.6264 241.993 35.9901 242.043 36.3426 241.993C36.6336 241.954 36.919 241.982 37.1987 242.161C37.3834 242.278 37.5848 242.401 37.8142 242.457C38.1724 242.541 38.3906 242.877 38.6815 243.084C38.7151 243.336 38.9949 243.487 38.9277 243.778C38.8774 243.974 39.0844 244.063 39.1012 244.248C39.0508 244.421 38.8718 244.438 38.7319 244.544C38.7039 244.628 38.6592 244.723 38.6424 244.824C38.6032 245.014 38.4969 245.165 38.3626 245.272C38.1052 245.468 37.8926 245.714 37.6688 245.943C37.6184 245.994 37.5569 246.033 37.4953 246.072C37.4338 246.111 37.3498 246.139 37.3163 246.195C37.1484 246.497 36.8518 246.531 36.5777 246.587C36.0461 246.693 35.5201 246.85 34.9717 246.816C34.7815 246.805 34.608 246.861 34.4402 246.956C34.0988 247.146 33.7519 247.331 33.405 247.51C32.8119 247.818 32.2188 248.114 31.6312 248.416C31.5809 248.444 31.5361 248.478 31.4969 248.5C31.441 248.668 31.4802 248.819 31.5193 248.965C31.6424 249.418 31.7711 249.866 31.8998 250.319C31.9222 250.392 31.9558 250.47 31.9446 250.543C31.9166 250.834 32.0453 251.074 32.1348 251.326C32.2188 251.567 32.3027 251.807 32.3922 252.048C32.4482 252.205 32.5209 252.35 32.5769 252.507C32.6608 252.731 32.7559 252.949 32.8007 253.195C32.8343 253.385 32.9238 253.564 32.9909 253.743C32.9686 253.805 32.8511 253.788 32.8734 253.894C32.8958 253.984 32.8902 254.079 32.9182 254.163C33.2036 255.12 33.4889 256.071 33.7687 257.028C33.8247 257.213 33.875 257.42 33.8582 257.61C33.8414 257.822 33.903 257.996 33.9646 258.175C34.0205 258.343 34.0988 258.516 34.0653 258.707C34.0597 258.751 34.0597 258.802 34.0765 258.841C34.2499 259.412 34.2164 260.01 34.2667 260.598C34.2947 260.961 34.3227 261.325 34.2667 261.689C34.2611 261.734 34.2443 261.773 34.2387 261.806C34.1324 261.823 34.0988 261.756 34.0877 261.678C34.0485 261.392 34.0261 261.101 33.9758 260.816C33.9142 260.458 33.8415 260.1 33.7631 259.742C33.7351 259.613 33.6512 259.501 33.5952 259.378C33.5952 259.244 33.6008 259.109 33.6008 258.975C33.5505 258.841 33.5057 258.701 33.4442 258.567C33.4218 258.522 33.377 258.483 33.3435 258.444C33.3323 258.332 33.3267 258.214 33.3155 258.102C33.2763 257.974 33.2427 257.845 33.1924 257.722C33.1756 257.677 33.114 257.655 33.0749 257.627C33.0861 257.599 33.1084 257.576 33.1084 257.548C33.1084 257.531 33.0805 257.515 33.0637 257.498C33.0581 257.509 33.0525 257.526 33.0525 257.537C33.0581 257.565 33.0693 257.593 33.0805 257.621C33.1196 257.75 33.1532 257.878 33.2036 258.002C33.2204 258.046 33.2763 258.069 33.3155 258.102C33.2539 258.225 33.2707 258.332 33.349 258.438C33.3826 258.578 33.4162 258.723 33.4442 258.863C33.461 258.958 33.5393 258.958 33.6008 258.981C33.5337 259.104 33.5449 259.238 33.6008 259.367ZM24.0717 241.176C23.9766 241.243 23.8759 241.282 23.8143 241.361C23.5514 241.685 23.2772 241.998 23.0534 242.345C22.74 242.838 22.3203 243.241 22.0797 243.789C22.0686 243.817 22.0462 243.839 22.0294 243.862C21.7272 244.265 21.4251 244.667 21.1285 245.076C20.6473 245.742 20.5186 246.503 20.5857 247.32C20.6081 247.577 20.6865 247.667 20.9327 247.7C21.1453 247.728 21.3579 247.739 21.5762 247.734C22.3315 247.728 23.0757 247.538 23.8311 247.499C23.8591 247.499 23.8871 247.482 23.9151 247.471C24.2788 247.342 24.6481 247.213 25.0118 247.096C25.258 247.018 25.5042 246.962 25.7504 246.883C25.8399 246.855 25.9182 246.794 26.0134 246.738C25.4147 244.981 24.8271 243.252 24.2396 241.523C24.2004 241.405 24.1333 241.299 24.0717 241.176Z" fill="#D9D9D9"/>
<path d="M19.7743 205.807C19.8806 205.829 19.987 205.857 20.1268 205.891C20.2052 205.773 20.2891 205.656 20.3618 205.521C21.0221 204.274 21.7048 203.037 22.3315 201.772C22.8966 200.642 23.361 199.462 23.68 198.219C23.7247 198.046 23.7751 197.867 23.7639 197.677C23.5457 197.503 23.3051 197.425 23.0589 197.363C22.8686 197.318 22.6952 197.374 22.5441 197.514C22.2139 197.811 21.9398 198.163 21.6656 198.51C21.1172 199.21 20.6584 199.988 20.1492 200.721C20.138 200.732 20.1324 200.743 20.1268 200.76C20.0149 200.95 20.0205 201 20.1828 201.263C20.0597 201.47 19.875 201.672 19.8247 201.907C19.7631 202.187 19.4833 202.422 19.64 202.752C19.5449 202.953 19.6288 203.132 19.7016 203.311C19.7463 203.434 19.7407 203.541 19.6456 203.647C19.4945 203.809 19.3994 204.016 19.3323 204.234C19.2875 204.369 19.2316 204.486 19.1364 204.581C19.0077 204.71 18.8007 204.772 18.8175 205.023C18.8175 205.035 18.8063 205.051 18.7951 205.063C18.2468 205.566 17.6648 205.991 16.8815 205.908C16.8255 205.902 16.7696 205.88 16.7136 205.891C16.3051 205.952 15.9414 205.796 15.5553 205.689C15.0573 205.549 14.6712 205.214 14.2292 204.967C14.0949 204.889 13.9774 204.766 13.8711 204.643C13.6752 204.402 13.4794 204.156 13.3115 203.893C13.0653 203.513 12.7464 203.205 12.4107 202.931C12.047 202.629 11.7784 202.276 11.6329 201.812C11.5993 201.694 11.5545 201.582 11.493 201.482C11.1685 200.928 10.8607 200.357 10.469 199.848C10.3907 199.747 10.2844 199.657 10.29 199.484C10.4914 199.445 10.5921 199.635 10.7376 199.702C10.8775 199.775 11.0174 199.848 11.1573 199.926C11.2356 199.842 11.1685 199.78 11.1293 199.73C11.0174 199.59 10.8999 199.462 10.788 199.322C10.7432 199.266 10.6929 199.204 10.7712 199.109C10.8048 199.115 10.8495 199.115 10.8775 199.131C11.286 199.411 11.7112 199.657 12.1533 199.881C12.5673 200.088 12.9702 200.318 13.3675 200.558C13.927 200.9 14.5258 200.956 15.1468 200.894C15.8127 200.832 16.4282 200.614 17.0325 200.318C17.7991 199.943 18.5097 199.462 19.2204 198.975C19.3155 198.913 19.4162 198.852 19.5225 198.818C19.6288 198.784 19.7016 198.74 19.7408 198.622C19.7519 198.583 19.7967 198.521 19.8191 198.527C20.0821 198.589 20.1716 198.309 20.3507 198.208C20.5241 198.113 20.664 197.951 20.8151 197.811C20.9829 197.654 21.0893 197.436 21.2515 197.268C21.3522 197.167 21.397 197.016 21.3746 196.848C21.3634 196.731 21.4026 196.613 21.4138 196.49C21.425 196.322 21.5201 196.205 21.6376 196.121C21.8726 195.953 22.1188 195.796 22.3594 195.634C22.393 195.612 22.4378 195.589 22.4769 195.578C22.8462 195.506 23.0924 195.282 23.1932 194.868C23.3498 194.907 23.4897 194.935 23.624 194.974C23.7415 195.008 23.8478 195.008 23.9486 194.929C24.178 194.75 24.4689 194.773 24.7207 194.672C24.7599 194.655 24.8103 194.649 24.8494 194.661C25.1236 194.767 25.409 194.728 25.6943 194.728C25.7671 194.728 25.8398 194.739 25.9014 194.773C26.1756 194.907 26.4609 194.985 26.7575 195.063C26.875 195.091 26.9757 195.198 27.082 195.276C27.2331 195.394 27.3618 195.534 27.5185 195.64C27.9773 195.953 28.4026 196.317 28.895 196.569C29.0069 196.625 29.1132 196.725 29.1747 196.837C29.2643 197 29.4042 197.1 29.5273 197.223C29.7902 197.475 30.07 197.716 30.2491 198.057C30.2771 198.107 30.305 198.163 30.3386 198.208C30.6184 198.561 30.6575 198.969 30.6184 199.411C30.5848 199.808 30.4057 200.133 30.2043 200.446C30.1539 200.519 30.0868 200.581 30.0476 200.665C29.9581 200.872 29.8126 200.956 29.6112 200.972C29.3314 200.995 29.1188 201.14 28.9229 201.37C28.3858 202.024 27.8262 202.651 27.2723 203.289C27.2051 203.367 27.1156 203.418 27.0261 203.473C26.7015 203.681 26.4553 203.971 26.2371 204.29C26.0189 204.609 25.7783 204.906 25.5209 205.191C25.2915 205.443 25.0788 205.712 24.8886 205.991C24.5864 206.434 24.3067 206.898 24.0157 207.346C23.8646 207.581 23.6688 207.793 23.624 208.107C23.8311 208.392 24.1164 208.593 24.4018 208.795C25.0341 209.242 25.6664 209.684 26.3042 210.115C26.8694 210.496 27.4457 210.865 28.0221 211.24C28.3298 211.436 28.6432 211.621 28.9453 211.816C29.3818 212.102 29.8406 212.354 30.3162 212.566C30.803 212.784 31.2674 213.053 31.7598 213.266C32.4201 213.551 33.0972 213.803 33.763 214.066C34.261 214.262 34.7534 214.469 35.2514 214.653C36.1411 214.983 37.0476 215.252 37.9764 215.425C38.2954 215.487 38.6199 215.526 39.0172 215.588C38.7934 215.638 38.6479 215.666 38.4912 215.705C38.4968 215.789 38.4912 215.851 38.5024 215.907C38.508 215.951 38.536 215.991 38.5584 216.052C38.7039 216.075 38.8549 216.103 39.0452 216.136C38.8773 216.181 38.743 216.214 38.5975 216.254C38.6982 216.421 38.8605 216.315 38.9612 216.416C38.743 216.528 38.536 216.64 38.301 216.757C38.3457 216.796 38.3737 216.819 38.4185 216.858C38.4017 216.88 38.3849 216.931 38.3569 216.936C37.8086 217.126 37.333 217.468 36.835 217.759C36.6783 217.848 36.5496 217.966 36.5216 218.167C36.4992 218.335 36.3817 218.397 36.2474 218.402C36.0908 218.408 35.9397 218.436 35.7606 218.497C35.811 218.587 35.8557 218.654 35.8949 218.727C35.755 218.928 35.576 219.057 35.3354 219.102C35.1843 219.13 35.0388 219.202 34.8989 219.275C34.6751 219.387 34.4569 219.477 34.2051 219.477C33.8973 219.477 33.6287 219.633 33.3657 219.784C33.1587 219.907 32.9517 219.975 32.7111 219.947C32.5544 219.924 32.3977 219.93 32.2411 219.941C31.9333 219.952 31.6535 219.829 31.3626 219.762C31.273 219.74 31.1947 219.65 31.122 219.577C30.9373 219.398 30.7471 219.27 30.4785 219.281C30.2938 219.292 30.1204 219.219 29.9637 219.09C29.7119 218.889 29.4489 218.704 29.2419 218.453C29.1971 218.397 29.13 218.357 29.074 218.318C29.0125 218.274 28.9453 218.246 28.895 218.195C28.4753 217.742 27.9941 217.356 27.6416 216.83C27.2891 216.315 26.9142 215.817 26.5337 215.319C26.1588 214.821 25.7727 214.329 25.3866 213.842C24.6648 212.93 23.9486 212.023 23.2211 211.123C23.0421 210.904 22.8574 210.692 22.6616 210.49C22.5385 210.362 22.3874 210.412 22.3315 210.585C22.3259 210.602 22.3259 210.613 22.3259 210.63C22.2811 211.005 22.0908 211.274 21.8111 211.486C21.716 211.559 21.632 211.632 21.5984 211.76C21.5817 211.811 21.5369 211.878 21.4921 211.895C21.2851 211.973 21.2012 212.18 21.0613 212.348C21.1172 212.398 21.1676 212.443 21.2292 212.499C21.1732 212.583 21.1228 212.672 21.0613 212.751C21.0389 212.784 20.9829 212.812 20.955 212.807C20.6752 212.745 20.5409 212.963 20.401 213.148C20.2835 213.299 20.222 213.489 20.0653 213.613C20.0317 213.64 20.0541 213.747 20.0485 213.82C19.696 214.116 19.3043 214.362 19.0189 214.748C18.879 214.939 18.6944 215.095 18.5153 215.241C17.9838 215.677 17.4746 216.147 16.8871 216.494C16.652 216.634 16.4002 216.746 16.1596 216.869C16.0141 216.791 15.8855 216.724 15.7456 216.651C15.684 216.712 15.6225 216.768 15.5553 216.824C15.5218 216.852 15.477 216.908 15.4546 216.897C15.2756 216.819 15.1804 217.009 15.0293 217.037C14.8783 217.065 14.7384 217.154 14.5873 217.199C14.4698 217.233 14.3411 217.227 14.2068 217.244C14.2124 217.171 14.218 217.115 14.2292 217.043C14.1956 217.037 14.1509 217.009 14.1173 217.02C13.6976 217.166 13.2892 217.35 12.8471 217.406C12.3827 217.658 11.8623 217.714 11.3755 217.882C11.2692 217.921 11.1517 217.943 11.0398 217.966C10.4634 218.061 9.88709 218.162 9.30516 218.246C9.10932 218.274 8.90788 218.285 8.71204 218.285C8.00142 218.29 7.28521 218.302 6.57458 218.29C6.33957 218.285 6.10455 218.218 5.88073 218.184C5.84716 218.016 5.93109 217.983 6.02062 217.983C6.14931 217.983 6.27801 218.005 6.41231 218.016C6.49624 217.938 6.57458 217.859 6.66411 217.776C7.06139 217.876 7.45865 217.887 7.85593 217.859C8.05737 217.843 8.25322 217.832 8.43787 217.725C8.58335 217.641 8.73443 217.652 8.87432 217.652C8.91348 217.714 8.94147 217.764 8.98623 217.832C9.07576 217.759 9.1541 217.697 9.24922 217.619C9.49542 217.708 9.73602 217.641 9.97103 217.518C10.3963 217.306 10.8551 217.166 11.2412 216.869C11.3699 216.768 11.4874 216.662 11.6161 216.567C11.7784 216.444 11.935 216.315 12.1085 216.22C12.5002 215.996 12.8639 215.733 13.194 215.425H13.1884C13.2332 215.392 13.278 215.358 13.3171 215.319C13.4067 215.241 13.3507 215.207 13.278 215.179L13.2892 215.19C13.2892 215.118 13.2892 215.045 13.2892 214.944C13.5018 214.888 13.6249 214.754 13.7536 214.581C13.9438 214.318 14.2012 214.122 14.4306 213.887C14.7384 213.573 15.035 213.243 15.3539 212.935C15.5665 212.734 15.8015 212.561 16.0197 212.365C16.1596 212.242 16.3051 212.119 16.2939 211.884C16.2883 211.811 16.3667 211.727 16.4226 211.66C16.971 210.96 17.5138 210.25 17.9894 209.489C18.6161 208.493 19.226 207.48 19.8415 206.473C19.903 206.372 19.959 206.271 20.0149 206.171C19.9478 206.053 19.8806 205.947 19.8135 205.835L19.7743 205.807ZM14.2963 214.407C13.9103 214.603 13.9102 214.603 13.8543 214.776C13.9774 214.687 14.0781 214.614 14.1788 214.53C14.2236 214.497 14.2572 214.452 14.2963 214.407Z" fill="#D9D9D9"/>
<path d="M23.2996 166.493C23.2437 166.549 23.1877 166.611 23.1318 166.667V166.678C22.9919 166.56 22.9919 166.56 22.9415 166.728V166.717C22.5554 166.823 22.2813 167.12 22.0127 167.4C21.8672 167.551 21.6881 167.64 21.5482 167.791C21.5203 167.819 21.4699 167.853 21.4363 167.842C21.2964 167.808 21.2181 167.898 21.151 167.993C20.9159 168.295 20.6418 168.535 20.2892 168.698C20.0263 168.821 19.808 169.045 19.573 169.229C19.4947 169.291 19.422 169.302 19.338 169.246L19.3436 169.257C19.3548 169.117 19.4555 169.067 19.5507 169C19.6905 168.899 19.8304 168.793 19.9423 168.664C20.0486 168.541 20.1158 168.384 20.3005 168.396C20.4627 168.155 20.7984 168.105 20.8824 167.774C20.9048 167.696 20.9943 167.646 21.0502 167.579C21.1454 167.472 21.2741 167.388 21.302 167.232C21.3412 167.22 21.386 167.226 21.4139 167.204C21.4363 167.187 21.4307 167.137 21.4419 167.103C21.4083 167.114 21.3636 167.109 21.3412 167.131C21.3188 167.159 21.3188 167.204 21.3132 167.243C21.1733 167.237 21.0782 167.332 20.9831 167.422C20.6754 167.707 20.3676 167.987 20.0263 168.233C19.9032 168.323 19.8081 168.463 19.6905 168.575C19.3996 168.86 19.0974 169.134 18.812 169.42C18.7337 169.498 18.6722 169.604 18.605 169.699H18.5994C18.3196 169.817 18.0846 170.007 17.8776 170.231C17.5195 170.623 17.083 170.897 16.669 171.204C16.5571 171.288 16.4396 171.395 16.2829 171.316L16.2941 171.328C16.848 170.891 17.3964 170.46 17.9 169.962C18.342 169.526 18.7953 169.106 19.2261 168.664C19.657 168.222 20.071 167.758 20.4851 167.299C20.541 167.237 20.5746 167.153 20.6586 167.002C20.5355 167.047 20.4851 167.053 20.4459 167.086C20.39 167.131 20.334 167.181 20.2837 167.237C20.0654 167.511 19.7801 167.551 19.4723 167.483C19.4667 167.483 19.4611 167.461 19.4443 167.428C19.4611 167.405 19.4835 167.372 19.5115 167.344C19.5898 167.276 19.6849 167.226 19.7409 167.142C19.9535 166.834 20.1494 166.521 20.3508 166.208C20.362 166.012 20.597 166.001 20.6306 165.805C20.6026 165.777 20.5634 165.743 20.5243 165.71C20.5299 165.682 20.5299 165.643 20.5411 165.62C21.1789 164.814 21.7385 163.953 22.2701 163.063C22.9247 161.972 23.5346 160.853 24.1669 159.739C24.609 158.956 25.0566 158.173 25.4931 157.389C25.6665 157.076 25.84 156.757 25.9967 156.432C26.7744 154.815 27.5578 153.204 28.3132 151.581C28.6489 150.859 28.9287 150.104 29.2308 149.365C29.3763 149.013 29.4323 148.638 29.4994 148.263C29.5386 148.039 29.4714 147.871 29.298 147.754C29.0182 147.564 28.744 147.379 28.4587 147.2C28.3356 147.121 28.2069 147.054 28.0782 146.993C27.6417 146.791 27.2389 146.942 26.8416 147.127C26.338 147.362 25.9015 147.698 25.5154 148.112C25.1965 148.459 24.8831 148.817 24.553 149.153C23.9543 149.751 23.4787 150.445 23.0478 151.189C22.9135 151.424 22.7513 151.637 22.6058 151.861C22.5442 151.962 22.4547 152.062 22.4435 152.174C22.4155 152.465 22.2589 152.672 22.1078 152.896C21.8168 153.327 21.5538 153.786 21.2573 154.211C20.7761 154.905 20.3452 155.643 19.8192 156.309C19.5898 156.6 19.394 156.919 19.1534 157.199C19.0471 157.322 18.9184 157.428 18.8176 157.551C18.661 157.747 18.5211 157.954 18.3756 158.15C18.2133 158.363 18.0511 158.57 17.8944 158.771C17.8944 159.096 17.8888 159.415 17.8944 159.734C17.9 160.053 17.8105 160.332 17.6258 160.579C17.5699 160.651 17.5139 160.719 17.4747 160.797C17.2229 161.3 16.8257 161.491 16.3109 161.435C16.143 161.418 15.9695 161.418 15.7961 161.396C15.4827 161.356 15.1862 161.25 14.9176 161.054C14.8952 161.037 14.8728 161.004 14.8504 161.004C14.3301 160.959 14.0615 160.5 13.6922 160.204C13.3229 159.907 13.0711 159.493 12.8137 159.09C12.7521 158.995 12.685 158.934 12.5955 158.883C12.2821 158.693 11.9967 158.469 11.7449 158.195C11.5715 158.01 11.4316 157.803 11.3421 157.557C11.2973 157.434 11.2414 157.3 11.1574 157.205C10.9112 156.93 10.8832 156.611 10.9672 156.27C11.0007 156.141 11.0679 156.018 11.1238 155.895C11.2413 155.621 11.2805 155.352 11.1798 155.056C10.9 154.256 10.6258 153.456 10.3573 152.65C10.195 152.163 10.0327 151.671 9.87046 151.184C9.82569 151.055 9.77533 150.932 9.73057 150.803C9.61866 150.479 9.49556 150.154 9.40044 149.819C9.36687 149.712 9.38925 149.578 9.41722 149.466C9.43401 149.41 9.51235 149.371 9.5795 149.309C9.51795 149.209 9.45079 149.097 9.37805 148.979C9.45639 148.929 9.51235 148.89 9.5739 148.856C9.80331 148.75 10.0383 148.733 10.2621 148.873C10.3461 148.929 10.4412 148.974 10.5195 149.03C10.7825 149.214 11.0511 149.365 11.3589 149.477C11.6107 149.567 11.8457 149.74 12.0415 149.93C12.2094 150.087 12.3884 150.205 12.5955 150.261C12.9759 150.361 13.2613 150.596 13.5299 150.876C13.7425 151.1 13.972 151.313 14.1958 151.52C14.3189 151.631 14.4196 151.755 14.4867 151.911C14.7217 152.448 14.9568 152.986 15.1974 153.523C15.2142 153.562 15.2477 153.595 15.2701 153.623C15.3988 153.691 15.5051 153.612 15.6058 153.568C16.5011 153.159 17.3404 152.639 18.163 152.079C18.4148 151.906 18.6722 151.743 18.9184 151.564C19.131 151.413 19.3324 151.245 19.5395 151.083C19.7017 150.954 19.8528 150.815 20.0207 150.697C20.86 150.109 21.6322 149.432 22.4043 148.755C22.8912 148.33 23.3948 147.922 23.8704 147.485C24.3684 147.026 24.9279 146.657 25.4707 146.265C25.7784 146.042 26.075 145.812 26.4051 145.639C26.5842 145.544 26.7744 145.471 26.9535 145.381C27.1717 145.269 27.4067 145.18 27.6026 145.034C27.983 144.749 28.4139 144.676 28.8615 144.637C29.1469 144.609 29.4267 144.564 29.712 144.548C30.0534 144.525 30.3947 144.52 30.736 144.52C30.9766 144.52 31.2228 144.553 31.4634 144.536C31.8104 144.52 32.1461 144.592 32.4762 144.682C32.9686 144.811 33.4107 145.074 33.7968 145.415C34.0933 145.678 34.3675 145.969 34.6473 146.249C35.0222 146.623 35.3803 147.015 35.7664 147.379C36.0965 147.692 36.4098 148.022 36.6952 148.386C36.7736 148.492 36.8519 148.61 36.8967 148.733C37.0198 149.041 37.1261 149.354 37.2268 149.673C37.2492 149.74 37.2436 149.824 37.2324 149.897C37.1764 150.177 37.1373 150.462 37.1149 150.753C37.1037 150.949 36.9806 151.156 36.8631 151.318C36.74 151.486 36.6449 151.665 36.5553 151.855C36.4826 152.018 36.3819 152.191 36.242 152.281C35.979 152.46 35.8055 152.717 35.6321 152.969C35.3971 153.31 35.1397 153.635 34.9718 154.026C34.9215 154.149 34.8319 154.256 34.7592 154.368C34.3619 154.978 33.987 155.615 33.5562 156.192C33.1477 156.74 32.7896 157.328 32.314 157.826C32.1237 158.027 31.9447 158.251 31.7656 158.458C31.704 158.525 31.6761 158.52 31.5418 158.413C31.4858 158.464 31.4131 158.508 31.3627 158.575C31.0941 158.911 30.8367 159.258 30.5738 159.599C30.5402 159.644 30.5122 159.711 30.4619 159.739C30.3667 159.795 30.2324 159.806 30.1653 159.885C30.087 159.98 30.0198 160.069 29.9079 160.114C29.8575 160.137 29.7904 160.148 29.7568 160.193C29.5106 160.467 29.27 160.747 29.0294 161.026C28.9231 161.149 28.8392 161.289 28.7328 161.412C28.5034 161.681 28.2684 161.944 28.0614 162.235C27.9103 162.448 27.7201 162.655 27.5018 162.789C27.1325 163.013 26.8584 163.332 26.573 163.651C26.545 163.684 26.517 163.718 26.4891 163.751C26.3324 163.802 26.2261 163.701 26.0918 163.617C25.812 164.076 25.3867 164.389 25.0342 164.786C24.6817 165.184 24.3012 165.547 23.9263 165.934C23.8648 165.883 23.8256 165.85 23.7696 165.799C23.613 165.917 23.4731 166.062 23.3612 166.241C23.3052 166.303 23.2325 166.359 23.1877 166.432C23.1653 166.499 23.2493 166.482 23.2996 166.493Z" fill="#D9D9D9"/>
<path d="M16.736 14.1168C16.5681 14.4581 16.4226 14.7379 16.1876 14.9785C15.9134 15.2583 15.684 15.5828 15.449 15.9017C15.3651 16.0192 15.3147 16.1703 15.2643 16.3102C15.1916 16.4949 15.13 16.6851 14.9678 16.8026C14.7887 16.9313 14.6992 17.1104 14.6544 17.323C14.6097 17.5524 14.5145 17.7371 14.3523 17.9049C14.19 18.0728 14.0669 18.2798 13.9438 18.4869C13.7312 18.845 13.5297 19.2143 13.3283 19.5836C13.2779 19.6731 13.2556 19.785 13.194 19.8689C12.9758 20.1767 12.8415 20.5292 12.724 20.8873C12.5505 21.4189 12.3379 21.9393 12.2819 22.51C12.2763 22.5995 12.2484 22.6891 12.2428 22.7786C12.2316 23.0192 12.226 23.2598 12.2148 23.534C12.2987 23.5116 12.3771 23.5228 12.4218 23.4836C12.724 23.2094 13.0877 23.0584 13.4626 22.98C13.8487 22.8961 14.2572 22.8793 14.6153 23.1535C14.7048 23.2206 14.8167 23.2542 14.9286 23.2822C15.1077 23.3325 15.2867 23.3717 15.4658 23.4109C15.9302 23.5172 16.2827 23.8249 16.6352 24.1439C16.7975 24.1607 16.9654 24.1775 17.1444 24.1943C17.2004 24.2894 17.2675 24.3733 17.3011 24.4684C17.3794 24.6811 17.2619 24.9552 17.0493 24.9496C16.8479 24.944 16.6968 25.1119 16.473 25.0671C16.3163 25.0336 16.1484 25.1679 16.0589 25.3357C15.8183 25.7722 15.4993 26.1415 15.1748 26.5052C15.0573 26.6395 14.9566 26.7906 14.8503 26.9304C14.8223 26.964 14.8111 27.0144 14.7775 27.0424C14.4194 27.3277 14.2236 27.7698 13.9046 28.0943C13.6752 28.3237 13.457 28.5699 13.2108 28.7714C12.9478 28.9896 12.7296 29.2358 12.5449 29.5379C12.4722 29.661 12.4274 29.773 12.4442 29.9184C12.4722 30.159 12.489 30.4052 12.5225 30.6458C12.6065 31.2166 12.6624 31.7929 12.6456 32.3749C12.64 32.5091 12.6624 32.6434 12.6736 32.8169C12.7688 32.7665 12.8359 32.7497 12.8807 32.705C13.2556 32.3525 13.6417 32.0111 13.9886 31.6251C14.5537 30.9984 15.0965 30.3493 15.6448 29.7058C15.7959 29.5267 15.9414 29.3309 16.0701 29.1351C16.1708 28.9784 16.2995 28.8497 16.4618 28.7937C16.6128 28.7434 16.7024 28.6427 16.7807 28.514C16.8926 28.3405 17.0157 28.1838 17.178 28.0495C17.1892 28.0943 17.2116 28.1335 17.2004 28.1503C17.1332 28.2678 17.0773 28.3909 16.9933 28.4916C16.8087 28.7098 16.6968 28.9728 16.5513 29.219C16.1093 29.9688 15.712 30.741 15.3427 31.5299C15.158 31.9216 14.9958 32.3301 14.8111 32.7218C14.688 32.9959 14.5481 33.2645 14.4194 33.5331C14.1844 34.0199 13.9438 34.5067 13.7088 34.9935C13.6696 35.0719 13.6193 35.1614 13.6193 35.2453C13.6249 35.5811 13.485 35.8664 13.3563 36.1518C13.2947 36.2861 13.25 36.426 13.194 36.5715C13.2835 36.6778 13.3563 36.7673 13.4346 36.8568C13.3171 37.2038 13.1828 37.5395 12.9758 37.836C12.6065 38.3564 12.3155 38.9384 11.8511 39.386C11.756 39.4811 11.6273 39.5818 11.6105 39.7497C11.3251 40.1078 11.0286 40.4603 10.788 40.8576C10.4634 41.0367 10.29 41.3836 10.0382 41.6466C9.88708 41.8088 9.736 41.9599 9.60171 42.139C9.46182 42.3236 9.27157 42.4691 9.1037 42.637C8.84631 42.9 8.54415 43.1182 8.34831 43.4427C8.32033 43.4931 8.26999 43.5322 8.21963 43.5602C8.01819 43.6777 7.8727 43.8624 7.72722 44.047C7.43626 44.4219 7.05016 44.6402 6.61371 44.7577C6.46263 44.7968 6.31715 44.8248 6.18286 44.9367C6.09333 45.0095 5.94226 45.0206 5.81916 45.0318C5.40509 45.0598 4.99663 45.0095 4.58256 45.071C4.48744 45.0878 4.38672 45.0486 4.286 45.0262C3.55299 44.8304 2.89272 44.4947 2.32758 43.9519C2.06459 43.7001 1.76243 43.4819 1.58897 43.1294C1.5498 43.0454 1.44349 42.9895 1.35956 42.9391C1.04061 42.7713 0.794406 42.5363 0.637733 42.1893C0.581778 42.0718 0.486664 41.9711 0.402732 41.8648C0.20689 41.613 0.100568 41.3164 0.0278269 41.0031C-0.0337235 40.7233 0.0166393 40.4603 0.0837851 40.1917C0.195695 39.7441 0.385944 39.3412 0.716078 38.9999C0.855965 39.0838 0.990251 39.1678 1.13014 39.2405C1.32038 39.3468 1.51622 39.4419 1.70087 39.5539C1.9191 39.6826 2.14293 39.6882 2.36115 39.6042C2.69688 39.4811 3.03819 39.3524 3.36273 39.2013C4.47623 38.6754 5.54497 38.0711 6.61371 37.4555C7.12849 37.159 7.65447 36.8792 8.16925 36.5827C8.47141 36.4092 8.75679 36.2078 9.05335 36.0119C9.05335 35.9168 9.06454 35.8385 9.05335 35.7657C8.96382 35.0999 8.89668 34.434 8.91906 33.7625C8.92466 33.4828 8.80155 33.3037 8.58333 33.1246C8.2476 32.8505 7.96782 32.498 7.72162 32.1287C7.68245 32.0671 7.66008 31.9944 7.64329 31.9496C7.71044 31.7146 7.77198 31.502 7.84472 31.2613C7.90627 31.2949 7.97342 31.3117 8.02378 31.3565C8.31475 31.6027 8.65607 31.6195 9.00299 31.5747C9.1093 31.5635 9.20443 31.5076 9.21562 31.3844C9.25479 30.7801 9.34431 30.1758 9.32752 29.5156C9.24359 29.5659 9.18764 29.5827 9.15406 29.6219C9.03656 29.7729 8.91906 29.9296 8.81275 30.0863C8.67845 30.2821 8.52178 30.4276 8.28677 30.4276C8.13569 30.4276 8.05175 30.506 7.96222 30.6123C7.79436 30.8193 7.6209 31.0207 7.44185 31.2222C7.2516 31.4348 7.07255 31.4292 6.85433 31.2166C6.55777 30.9312 6.2668 30.6402 5.87512 30.5004C5.75761 30.4556 5.66248 30.3549 5.55057 30.2821C5.47783 30.2374 5.40509 30.1646 5.33235 30.1534C5.10294 30.1255 4.96865 29.9632 4.86233 29.7897C4.71126 29.5379 4.51541 29.3421 4.30279 29.1686C4.11254 29.0176 4.05098 28.8441 4.13491 28.6147C4.1517 28.5699 4.16849 28.5307 4.17408 28.486C4.19647 28.2734 4.30278 28.1167 4.48743 28.0663C4.60493 28.0327 4.57136 27.9208 4.65529 27.8481C4.77839 27.932 4.90709 28.0216 5.03019 28.1167C5.17008 28.223 5.30997 28.2566 5.46664 28.1615C5.6401 28.0551 5.82475 27.9712 5.98702 27.8537C6.72562 27.3333 7.45864 26.7961 8.19724 26.2758C8.57773 26.0072 8.96941 25.7498 9.36109 25.5036C9.54015 25.3917 9.62408 25.235 9.64087 25.0224C9.68003 24.5524 9.7248 24.0823 9.76397 23.6067C9.79195 23.2598 9.82553 22.9073 9.84231 22.5548C9.84791 22.4373 9.82552 22.3198 9.81433 22.2023C9.75278 22.1799 9.71361 22.1575 9.67444 22.1575C9.37788 22.1855 9.07013 22.1799 8.78476 22.2638C8.49379 22.3533 8.19723 22.3421 7.90626 22.4261C7.62089 22.5044 7.30755 22.4261 7.02218 22.3254C6.84872 22.2638 6.68086 22.1743 6.50181 22.1183C5.95905 21.9449 5.48902 21.6427 5.04138 21.279C4.92947 21.1895 4.80077 21.1167 4.68886 21.0216C4.57695 20.9321 4.45386 20.8426 4.36993 20.725C4.17968 20.4453 3.91668 20.2662 3.67608 20.0592C3.56417 19.9641 3.45786 19.8689 3.36833 19.7514C3.23404 19.578 3.12773 19.3709 2.98224 19.2031C2.60734 18.7722 2.46746 18.2295 2.29959 17.6643C2.39472 17.4965 2.49543 17.3174 2.59055 17.1439C2.80318 17.0656 2.97105 17.1607 3.13331 17.2447C3.48023 17.4237 3.82716 17.6084 4.17408 17.7874C4.26361 17.8322 4.35313 17.8769 4.44826 17.9161C4.73922 18.0224 5.02459 18.0504 5.32115 17.9161C5.6345 17.7706 5.96464 17.6643 6.27239 17.5132C6.9998 17.1607 7.72163 16.7914 8.39308 16.3158C8.6281 16.1479 8.87429 15.9857 9.12049 15.829C9.81433 15.387 10.3851 14.7826 11.0062 14.2455C11.1125 14.1504 11.1852 14.0161 11.2748 13.893C11.3587 13.7699 11.4314 13.6356 11.5265 13.5237C11.6944 13.3334 11.8679 13.1655 11.9182 12.8858C11.9518 12.7123 12.1197 12.634 12.2764 12.5892C12.4106 12.5556 12.5505 12.5333 12.6848 12.4717C12.8639 12.3878 13.0541 12.4325 13.1716 12.6284C13.3451 12.9249 13.6305 12.9697 13.9158 12.9977C14.1173 13.0145 14.3131 13.0145 14.5145 13.0201C14.7496 13.0257 14.9566 13.0984 15.1468 13.2551C15.2811 13.367 15.4378 13.4397 15.5889 13.5348C15.7008 13.6076 15.8239 13.658 15.9582 13.6188C16.182 13.5516 16.3443 13.6579 16.4953 13.8146C16.5737 13.9209 16.6464 14.0105 16.736 14.1168ZM12.461 28.8497C12.5225 28.8105 12.5673 28.7937 12.5841 28.7658C12.8079 28.4132 13.0429 28.0663 13.25 27.7026C13.5409 27.1934 13.7424 26.6339 13.8487 26.0464C13.899 25.7834 13.9214 25.5092 13.8599 25.2574C13.8207 25.2406 13.8039 25.2294 13.7927 25.2294C13.3731 25.4141 12.9758 25.6547 12.6177 25.9568C12.4442 26.1079 12.3491 26.3093 12.3603 26.5555C12.3771 26.8465 12.3938 27.1319 12.405 27.4228C12.4162 27.6523 12.4274 27.8761 12.4274 28.1055C12.4386 28.3461 12.4106 28.5867 12.461 28.8497Z" fill="#D9D9D9"/>
<path d="M16.1594 69.7469C16.0027 69.8029 15.8404 69.8924 15.6782 69.9036C15.4599 69.9204 15.3089 70.0267 15.1522 70.161C14.9843 70.3009 14.7885 70.4016 14.6206 70.5359C14.2457 70.8325 13.8485 71.1011 13.5183 71.4648C13.3616 71.6382 13.1546 71.7613 12.9644 71.8844C12.6566 72.0859 12.472 72.3768 12.3768 72.7461C12.3601 72.8021 12.3656 72.886 12.3321 72.9196C12.1474 73.0986 12.1978 73.3784 12.0691 73.5799C12.0355 73.6358 12.0355 73.7253 12.0243 73.7981C12.0131 73.8876 12.0243 73.9883 11.9907 74.0667C11.8341 74.4304 11.8173 74.8332 11.7166 75.2137C11.6215 75.5607 11.627 75.9411 11.5263 76.2881C11.42 76.6406 11.3976 76.9987 11.3361 77.3848C11.42 77.3904 11.4872 77.4072 11.5543 77.4016C11.7222 77.3848 11.8956 77.3288 12.0635 77.3344C12.679 77.34 13.2833 77.4016 13.8596 77.6646C14.0387 77.7485 14.1786 77.8548 14.2457 78.0562C14.2905 78.1793 14.3464 78.2857 14.4919 78.3416C14.6878 78.4144 14.7437 78.6214 14.7269 78.834C14.7101 79.0466 14.671 79.2537 14.6374 79.4607C14.6262 79.5167 14.5982 79.5782 14.5647 79.623C14.4416 79.7852 14.3073 79.9475 14.1842 80.1098C14.1338 80.1825 14.0891 80.2553 14.0499 80.3392C14.0107 80.4175 13.9716 80.5015 13.9548 80.591C13.9044 80.8204 13.6358 80.9323 13.647 81.1729C13.6582 81.4079 13.5239 81.5758 13.4512 81.766C13.3225 82.1018 13.1378 82.4151 12.9923 82.7453C12.8357 83.109 12.6622 83.4503 12.4496 83.7804C12.4048 83.8532 12.3768 83.9483 12.3545 84.0322C12.2873 84.2728 12.1922 84.4855 12.0243 84.6645C11.8788 84.8212 11.8173 85.0282 11.8117 85.2464C11.8005 85.8116 11.7893 86.3711 11.7781 86.9363C11.7725 87.1601 11.7781 87.3895 11.7781 87.6525C11.8676 87.6189 11.9572 87.6021 12.0131 87.5574C12.4608 87.1825 12.9252 86.8188 13.3504 86.4159C13.9044 85.8843 14.4304 85.3248 14.9564 84.7652C15.2585 84.4407 15.5159 84.0714 15.8237 83.758C16.0866 83.4951 16.3217 83.1873 16.6406 82.9971C16.6574 83.0306 16.6742 83.0474 16.6742 83.053C16.5623 83.2656 16.456 83.4783 16.3329 83.6797C16.2657 83.7972 16.1762 83.8979 16.0922 84.0042C15.9915 84.1385 15.9132 84.284 15.902 84.4575C15.8852 84.6701 15.7957 84.8548 15.7061 85.0394C15.5383 85.3919 15.3872 85.7556 15.2305 86.1137C15.2193 86.1417 15.197 86.1753 15.2026 86.1977C15.3368 86.5838 15.0179 86.8076 14.9172 87.1153C14.8445 87.3447 14.7325 87.5574 14.615 87.77C14.4751 88.033 14.3241 88.2904 14.1618 88.5422C13.9268 88.9059 13.675 89.2528 13.4456 89.6221C13.3449 89.79 13.1882 89.9355 13.2329 90.1873C13.2441 90.26 13.1322 90.3607 13.0819 90.4502C12.9867 90.6293 12.8133 90.7916 12.9867 91.021C12.9476 91.1665 12.9252 91.3175 12.8636 91.4462C12.7405 91.7036 12.5951 91.9498 12.4664 92.2016C12.4216 92.28 12.3824 92.3639 12.3545 92.4478C12.3097 92.5821 12.3544 92.6772 12.5055 92.7332C12.4272 92.9346 12.3209 93.1137 12.1978 93.276C11.7222 93.925 11.2186 94.5461 10.7653 95.212C10.3513 95.8163 9.89244 96.3703 9.43361 96.9298C9.11467 97.3159 8.75096 97.6572 8.40404 98.0153C8.31451 98.1105 8.21379 98.2 8.11867 98.2895C7.699 98.7148 7.20661 99.0337 6.67504 99.2519C6.27776 99.4142 5.84131 99.4366 5.41045 99.3694C4.9852 99.3079 4.58232 99.1512 4.18504 98.9834C4.11789 98.9554 4.04516 98.9274 3.9948 98.8771C3.58633 98.4294 3.06035 98.1384 2.61271 97.7356C2.30496 97.4558 2.00281 97.1424 1.62792 96.941C1.43207 96.8347 1.30897 96.6556 1.20265 96.443C1.07396 96.1912 0.906089 95.9618 0.760606 95.7156C0.654292 95.5365 0.570362 95.3463 0.570362 95.1169C0.570362 95.0218 0.514411 94.921 0.469647 94.8259C0.430479 94.7476 0.374519 94.686 0.307373 94.6021C0.408092 94.5294 0.48643 94.4678 0.553576 94.4174C0.749418 94.4566 0.934069 94.479 1.11312 94.5293C1.24742 94.5629 1.37051 94.5965 1.49361 94.6972C1.75101 94.8987 2.05876 94.9826 2.38329 94.8259C2.56794 94.7364 2.7582 94.6748 2.93166 94.5629C3.75419 94.037 4.55434 93.483 5.33771 92.8899C6.31692 92.1457 7.30732 91.4295 8.29212 90.6909C8.58309 90.4726 8.86846 90.2376 9.14823 90.0026C9.28253 89.8907 9.28812 89.734 9.16502 89.6109C9.0699 89.5158 8.96919 89.4319 8.86287 89.3591C8.4656 89.0849 8.0963 88.7884 7.81652 88.3687C7.76057 88.2848 7.67663 88.2176 7.60389 88.1449C7.40245 87.9435 7.24018 87.7196 7.12267 87.4511C7.0835 87.3559 7.02755 87.2552 6.95481 87.1937C6.7254 86.9978 6.59111 86.7292 6.41765 86.4942C6.13788 86.1082 5.83572 85.7444 5.56154 85.3528C5.43844 85.1793 5.27057 85.1177 5.08592 85.0898C5.02997 85.0786 4.974 85.0674 4.91805 85.073C4.74459 85.0898 4.63268 84.9946 4.51517 84.8715C4.26897 84.6253 4.26897 84.3456 4.3585 84.0322C4.40886 83.8755 4.45363 83.7133 4.50399 83.5566C4.60471 83.2377 4.58791 82.9355 4.39207 82.6222C4.44243 82.5494 4.4872 82.4095 4.55434 82.3927C4.91246 82.2976 5.10829 81.9787 5.37128 81.7493C5.55593 81.5814 5.72939 81.4079 5.94762 81.2792C6.08191 81.2009 6.18824 81.0666 6.29455 80.9435C6.71981 80.4511 7.16184 79.9755 7.66543 79.5726C7.98438 79.3152 8.32012 79.0858 8.65584 78.8452C8.7174 78.8004 8.77894 78.7669 8.84049 78.7277C9.05871 78.599 9.16503 78.4088 9.15944 78.129C9.15384 77.659 9.16502 77.1833 9.18741 76.7133C9.21538 76.1482 9.27134 75.5886 9.31051 75.0235C9.33289 74.7325 9.34408 74.4472 9.36086 74.1562C9.36086 74.1002 9.34408 74.0443 9.32729 73.9659C9.13145 73.9659 8.9468 73.9715 8.76774 73.9659C8.61107 73.9603 8.44881 73.9603 8.30333 73.9156C8.04034 73.8316 7.77175 73.8149 7.49758 73.8205C7.32971 73.8205 7.15625 73.7925 6.98838 73.7981C6.65266 73.8093 6.3449 73.6582 6.03714 73.5575C5.64546 73.4288 5.237 73.3337 4.89008 73.0763C4.8677 73.0595 4.83971 73.0483 4.81173 73.0427C4.24659 72.8524 3.85491 72.4048 3.41846 72.0131C2.93725 71.5767 2.59032 71.0563 2.29376 70.4576C2.31055 70.2673 2.33294 70.0659 2.35532 69.8141C2.46723 69.8756 2.55676 69.9092 2.6351 69.9708C2.99321 70.2393 3.39608 70.3848 3.82134 70.4576C4.13468 70.5135 4.44244 70.4744 4.75019 70.3792C5.43284 70.1722 6.04275 69.8085 6.64147 69.4224C7.49198 68.8852 8.27534 68.2474 9.0643 67.6095C9.29372 67.4248 9.51754 67.2346 9.75256 67.0667C9.96518 66.9212 10.0883 66.7198 10.0883 66.4624C10.0939 66.0875 10.3065 65.8413 10.5023 65.5839C10.659 65.3769 10.8996 65.3769 11.1179 65.5224C11.4536 65.7462 11.8005 65.9644 12.1418 66.177C12.3433 66.3057 12.5615 66.3505 12.7965 66.3729C13.205 66.412 13.619 66.4008 14.0275 66.4344C14.1898 66.4456 14.3352 66.4904 14.4807 66.5463C14.8444 66.6862 15.1746 66.8877 15.4879 67.1283C15.6726 67.2681 15.7733 67.464 15.8516 67.6766C15.8964 67.7885 15.9356 67.8948 16.0307 67.9788C16.081 68.0235 16.1202 68.0963 16.1426 68.1634C16.2993 68.7006 16.3049 69.2042 16.1594 69.7469ZM7.2066 82.7285C7.29613 82.7956 7.36328 82.8292 7.40805 82.8851C7.69342 83.2041 7.98437 83.5174 8.25855 83.842C8.37606 83.9819 8.52714 84.0714 8.67822 84.1497C8.75096 84.1833 8.82371 84.2504 8.93562 84.1665C8.94121 84.0994 8.96359 84.0098 8.96359 83.9203C8.97478 83.0362 8.98038 82.1521 8.98598 81.268C8.98598 81.2345 8.95239 81.1953 8.92442 81.1282C8.25855 81.5366 7.62067 81.9563 7.2066 82.7285ZM11.946 79.858C11.7501 79.858 11.5767 79.802 11.4088 79.9699C11.4368 80.1825 11.4424 80.4119 11.4927 80.6302C11.5375 80.8092 11.5487 80.9883 11.5599 81.1673C11.5879 81.531 11.6326 81.8892 11.6774 82.2529C11.6886 82.3312 11.7278 82.4039 11.7837 82.5494C11.9572 81.6206 12.1698 80.7757 11.946 79.858Z" fill="#D9D9D9"/>
<path d="M22.9696 268.969C23.1543 269.047 23.2718 269.097 23.3837 269.142C23.4676 269.041 23.5515 268.963 23.6075 268.874C23.669 268.773 23.7026 268.655 23.753 268.549C23.7977 268.454 23.8425 268.359 23.9041 268.281C24.016 268.129 24.1223 268.107 24.2733 268.23C24.3685 268.308 24.458 268.353 24.5755 268.359C24.8777 268.364 25.1462 268.51 25.4316 268.599C25.5211 268.627 25.6219 268.695 25.6778 268.767C25.9016 269.053 26.1926 269.276 26.3773 269.607C26.4332 269.707 26.5339 269.786 26.5899 269.892C26.8249 270.328 27.2054 270.597 27.5579 270.899C27.6251 270.955 27.6978 271.011 27.737 271.084C27.8712 271.33 28.0839 271.476 28.3021 271.615C28.3972 271.677 28.4979 271.761 28.5483 271.862C28.677 272.113 28.8616 272.332 28.912 272.628C28.9288 272.74 29.0127 272.841 29.0799 272.947C29.1526 273.059 29.2365 273.165 29.3093 273.277C29.4716 273.529 29.6058 273.781 29.5947 274.117C29.5891 274.385 29.6674 274.654 29.6954 274.928C29.7178 275.152 29.7122 275.37 29.6394 275.599C29.5499 275.885 29.5331 276.193 29.4772 276.489C29.4604 276.595 29.4324 276.696 29.4044 276.802C29.2254 277.435 29.1638 278.084 29.1358 278.738C29.1246 278.979 29.1302 279.22 29.0687 279.466C29.0239 279.651 29.0463 279.858 29.0463 280.053C29.0519 280.949 29.0519 281.85 29.0687 282.745C29.0799 283.416 29.1302 284.082 29.1414 284.748C29.1582 285.985 29.1638 287.221 29.1638 288.458C29.1638 288.637 29.1358 288.822 29.119 289.001C29.0295 289.946 29.0911 290.892 29.0631 291.837C29.0519 292.263 29.0127 292.688 29.0015 293.108C28.968 294.322 28.9456 295.542 28.9064 296.756C28.8896 297.209 28.912 297.674 28.8225 298.121C28.8449 298.949 28.6882 299.755 28.6378 300.578C28.6099 301.031 28.5651 301.484 28.5203 302.016C28.442 301.73 28.4868 301.518 28.4812 301.305C28.47 301.076 28.4756 300.846 28.4756 300.617C28.4756 300.387 28.47 300.158 28.47 299.929C28.47 299.699 28.47 299.47 28.442 299.24C28.3525 299.408 28.3413 299.598 28.3301 299.783C28.2965 300.527 28.2573 301.277 28.2294 302.021C28.2182 302.279 28.2462 302.542 28.207 302.793C28.1063 303.426 28.1454 304.064 28.1119 304.701C28.1007 304.925 28.1119 305.155 28.0727 305.384C28.0615 305.306 28.0335 305.233 28.0335 305.155C28.0559 304.013 28.0783 302.872 28.1007 301.725C28.1063 301.35 28.1007 300.975 28.1007 300.499C27.972 300.74 27.9943 300.902 27.9832 301.059C27.9664 301.288 27.9776 301.518 27.9664 301.747C27.9552 301.943 27.9272 302.139 27.9104 302.335C27.8768 302.682 27.8377 303.028 27.8153 303.375C27.7873 303.834 27.7761 304.287 27.7537 304.746C27.7425 305.048 27.6698 305.334 27.5915 305.625C27.5075 305.944 27.4796 306.285 27.4404 306.615C27.418 306.789 27.4236 306.968 27.39 307.147C27.3788 306.895 27.3677 306.638 27.3565 306.38C27.2166 306.414 27.2222 306.514 27.2166 306.604C27.1998 306.984 27.183 307.365 27.1718 307.745C27.1606 308.048 27.1606 308.355 27.155 308.658C27.155 308.685 27.155 308.719 27.1438 308.747C26.9144 309.228 27.0207 309.765 26.9312 310.269C26.8808 310.554 26.8529 310.84 26.8137 311.125C26.8081 311.164 26.7689 311.198 26.741 311.237C26.6626 310.89 26.6962 310.605 26.8529 310.28C26.8081 310.168 26.7466 310.051 26.7186 309.922C26.6962 309.805 26.7298 309.681 26.7298 309.558C26.7242 309.223 26.713 308.893 26.7074 308.557C26.6962 308.087 26.7018 307.611 26.685 307.141C26.6682 306.733 26.6346 306.319 26.6011 305.91C26.5955 305.865 26.5731 305.826 26.5451 305.753C26.4668 306.14 26.5899 306.509 26.478 306.912C26.4388 306.833 26.4108 306.8 26.4108 306.766C26.4612 305.558 26.3717 304.355 26.3549 303.152C26.3437 302.48 26.3381 301.809 26.3101 301.137C26.2374 299.156 26.159 297.176 26.0751 295.189C26.0135 293.801 25.9464 292.414 25.8737 291.032C25.8065 289.784 25.7394 288.536 25.6554 287.288C25.5491 285.705 25.426 284.127 25.3197 282.543C25.219 281.049 25.1295 279.561 25.0343 278.067C24.9224 276.36 24.8105 274.659 24.693 272.953C24.6706 272.662 24.6371 272.376 24.5923 272.091C24.5084 271.559 24.3573 271.05 24.0663 270.603C23.7921 270.172 23.5124 269.752 23.2326 269.327C23.1654 269.221 23.02 269.181 22.9696 268.969ZM26.9088 309.295C26.8976 309.295 26.8808 309.295 26.8808 309.301C26.8752 309.329 26.8753 309.351 26.8697 309.379C26.8864 309.379 26.9088 309.374 26.9256 309.374C26.92 309.346 26.9144 309.318 26.9088 309.295Z" fill="#D9D9D9"/>
<path d="M29.7012 167.108C29.8578 167.041 29.9138 167.231 30.0425 167.265C30.0817 167.058 29.9026 166.94 29.8634 166.739C30.0873 166.789 30.2272 166.985 30.4398 167.024C30.5069 166.98 30.4789 166.924 30.451 166.873C30.4062 166.795 30.3503 166.722 30.3055 166.644C30.2551 166.56 30.2328 166.442 30.3055 166.392C30.4398 166.303 30.3055 166.202 30.3447 166.112C30.4566 166.157 30.5741 166.23 30.6916 166.241C31.0553 166.28 31.3574 166.504 31.6988 166.605C31.8331 166.644 31.945 166.795 32.0513 166.907C32.2359 167.097 32.4094 167.304 32.5828 167.5C32.6948 167.623 32.8179 167.713 32.9801 167.752C33.0753 167.774 33.1592 167.83 33.2487 167.88C33.5844 168.054 33.7915 168.351 33.9649 168.692C34.0656 168.893 34.1832 169.084 34.3063 169.274C34.5021 169.582 34.6308 169.917 34.7259 170.27C34.7539 170.37 34.7707 170.477 34.8043 170.578C34.8826 170.801 34.8658 171.025 34.8043 171.249C34.7539 171.456 34.6924 171.657 34.642 171.864C34.5693 172.155 34.4126 172.385 34.1999 172.575C34.0768 172.681 33.9649 172.799 33.8306 172.883C33.5285 173.073 33.3159 173.364 33.0864 173.633C32.7339 174.052 32.387 174.472 31.9673 174.824C31.6372 175.104 31.3518 175.451 31.0441 175.77C31.0497 175.787 31.0497 175.826 31.0609 175.843C31.4078 176.095 31.4861 176.514 31.6316 176.895C31.7044 177.079 31.7547 177.27 31.8219 177.449C31.8946 177.65 31.9338 177.846 31.8554 178.07C31.7323 178.406 31.7827 178.764 31.7771 179.111C31.7715 179.508 31.7939 179.905 31.8163 180.297C31.8778 181.349 31.9506 182.395 32.0065 183.447C32.0177 183.626 32.0121 183.816 31.9673 183.99C31.8442 184.477 31.7883 184.975 31.7435 185.478C31.6988 185.987 31.5085 186.413 31.1896 186.782C30.893 187.129 30.5965 187.481 30.3223 187.806C29.9586 187.907 29.6396 187.834 29.3151 187.756C29.2591 187.744 29.1976 187.722 29.1584 187.683C28.7611 187.297 28.3303 186.939 28.1344 186.368C28.0673 186.167 28.0001 185.965 28.0057 185.752C28.0169 185.327 28.0225 184.896 28.0561 184.471C28.1009 183.923 28.1121 183.374 28.0113 182.832C27.9946 182.748 27.9778 182.647 27.9274 182.585C27.8155 182.451 27.8211 182.317 27.8715 182.16C27.8882 182.115 27.8211 182.037 27.7875 181.964C27.8882 181.752 28.0897 181.567 28.1065 181.282C28.1121 181.215 28.1624 181.136 28.2128 181.097C28.3918 180.963 28.4142 180.778 28.4198 180.571C28.4254 180.297 28.4366 180.023 28.4254 179.749C28.3806 178.758 28.3247 177.773 28.2687 176.761C28.1177 176.744 27.9889 176.738 27.877 176.794C27.6812 176.889 27.491 176.872 27.3007 176.749C27.2056 176.811 27.1105 176.878 27.0097 176.934C26.9482 176.968 26.8755 177.024 26.8139 177.012C26.5901 176.962 26.4278 177.096 26.2544 177.191C26.1424 177.253 26.0249 177.292 25.9074 177.342C25.6556 177.438 25.4262 177.6 25.1912 177.74C24.9786 177.863 24.7715 178.008 24.5533 178.109C23.9098 178.4 23.2888 178.753 22.6956 179.144C21.8339 179.721 20.9051 180.157 20.0322 180.705C19.9315 180.767 19.8307 180.828 19.7132 180.789L19.7188 180.8C19.6797 180.689 19.7468 180.621 19.8195 180.577C20.1217 180.381 20.4127 180.168 20.726 179.989C21.2016 179.715 21.6437 179.368 22.0969 179.055C22.6285 178.691 23.0985 178.243 23.535 177.757C23.6748 177.6 23.8147 177.454 23.8539 177.231C23.8595 177.191 23.8875 177.13 23.921 177.119C24.1057 177.063 24.2064 176.945 24.2903 176.749C24.3575 176.598 24.5477 176.52 24.7212 176.475C24.7716 176.464 24.8163 176.408 24.8555 176.363C25.1017 176.072 25.4038 175.843 25.6165 175.518C25.8235 175.211 26.0305 174.903 26.2488 174.601C26.3327 174.483 26.439 174.377 26.5397 174.271C27.0601 173.7 27.4854 173.051 27.9498 172.435C28.6324 171.529 29.1752 170.527 29.7012 169.514C29.8914 169.151 29.9977 168.759 30.0984 168.356C30.1376 168.194 30.1488 168.026 30.0705 167.864C29.9474 167.606 29.8243 167.349 29.7012 167.097V167.108Z" fill="#D9D9D9"/>
<path d="M15.9581 135.757C16.154 135.701 16.3051 135.656 16.4841 135.6C16.5289 135.516 16.5848 135.416 16.6352 135.315C16.8086 135.231 16.9765 135.237 17.15 135.281C17.8998 135.466 18.6552 135.438 19.4106 135.404C19.5952 135.399 19.7743 135.365 19.9477 135.27C20.1436 135.164 20.3618 135.158 20.5744 135.231C20.8878 135.337 21.1955 135.449 21.5144 135.544C21.7606 135.617 22.0124 135.673 22.2642 135.723C22.4769 135.762 22.6727 135.835 22.863 135.953C23.0812 136.087 23.333 136.171 23.5568 136.3C24.0212 136.563 24.4912 136.826 24.9053 137.173C24.9501 137.212 24.9948 137.245 25.0452 137.279C25.269 137.419 25.4537 137.603 25.6103 137.822C25.7111 137.967 25.8565 138.073 25.9629 138.213C26.1587 138.476 26.3713 138.728 26.5112 139.025C26.6343 139.288 26.6847 139.601 26.7183 139.903C26.763 140.261 26.7686 140.631 26.7742 140.994C26.7742 141.145 26.7406 141.296 26.7183 141.448C26.6903 141.627 26.6511 141.806 26.6231 141.985C26.6007 142.119 26.5784 142.253 26.4609 142.343C26.4273 142.371 26.3937 142.404 26.3769 142.444C26.2818 142.69 26.1028 142.852 25.9293 143.037C25.7614 143.216 25.5824 143.395 25.4257 143.585C25.3026 143.742 25.1459 143.842 24.9781 143.932C24.9277 143.96 24.8605 143.965 24.8214 143.999C24.5752 144.223 24.2842 144.217 24.0212 144.105C23.7694 143.999 23.54 144.072 23.305 144.094C23.2267 144.1 23.1371 144.156 23.0812 144.212C22.9133 144.374 22.7343 144.531 22.5944 144.721C22.1803 145.28 21.783 145.857 21.5144 146.528C21.3857 146.847 21.1955 147.138 21.0276 147.44C20.787 147.877 20.5688 148.319 20.3953 148.789C20.373 148.85 20.3226 148.895 20.2443 149.001C20.3674 148.414 20.4905 147.899 20.5744 147.379C20.7814 146.131 20.9325 144.878 20.9045 143.607C20.8933 142.981 20.899 142.354 20.8094 141.733C20.7591 141.386 20.7031 141.039 20.6248 140.703C20.5744 140.485 20.4681 140.278 20.3842 140.071C20.3338 139.942 20.2443 139.847 20.1324 139.769C19.9869 139.668 19.8414 139.567 19.7183 139.444C19.4945 139.226 19.2315 139.086 18.9461 138.974C18.7111 138.879 18.5041 138.7 18.2859 138.56C18.1516 138.476 18.0117 138.404 17.883 138.308C17.7039 138.18 17.5305 138.051 17.3682 137.906C17.1723 137.732 16.9541 137.575 16.7975 137.363C16.5401 137.021 16.3274 136.641 16.098 136.277C16.0197 136.149 16.0365 136.031 16.126 135.902C16.1708 135.83 16.0812 135.79 15.9581 135.757Z" fill="#D9D9D9"/>
<path d="M39.8117 62.635C39.4032 62.1538 38.95 61.7621 38.5863 61.2697C38.2226 60.7829 37.7414 60.4024 37.4448 59.8541C37.5175 59.5016 37.7638 59.4064 38.0435 59.3953C38.3289 59.3841 38.6143 59.3953 38.8996 59.412C39.2633 59.4344 39.5879 59.5967 39.9236 59.7254C40.2034 59.8317 40.4832 59.9436 40.7685 60.0275C41.1378 60.1339 41.4792 60.3409 41.7645 60.6319C41.9771 60.8557 42.2178 61.0515 42.4304 61.2753C42.671 61.5327 42.9004 61.8013 43.1354 62.0699C43.1746 62.1147 43.2082 62.1706 43.2137 62.2266C43.2305 62.3553 43.2026 62.5007 43.2417 62.6182C43.2753 62.719 43.404 62.7749 43.404 62.9204C43.404 63.0043 43.432 63.1107 43.4823 63.1666C43.6782 63.3904 43.7062 63.6534 43.6726 63.9332C43.6614 64.0563 43.6446 64.1514 43.7062 64.2801C43.8125 64.4927 43.8125 64.7333 43.639 64.9124C43.4879 65.0747 43.5047 65.3097 43.3984 65.4999C43.1522 65.6342 42.9004 65.7182 42.6262 65.6062C42.5871 65.5895 42.5423 65.5783 42.5031 65.5895C42.1282 65.651 41.8988 65.3936 41.6582 65.1586C41.468 64.974 41.3169 64.7445 41.2162 64.4927C41.149 64.3305 41.0595 64.213 40.9196 64.1178C40.8357 64.0619 40.7406 64.0003 40.6902 63.9164C40.5783 63.7206 40.4104 63.6758 40.2034 63.6478C39.9852 63.7765 39.7222 63.8381 39.5039 64.0283C39.4032 64.1122 39.2354 64.1234 39.1011 64.1234C38.9612 64.1234 38.8661 64.185 38.7486 64.2521C38.2282 64.5711 37.747 64.9516 37.249 65.3041C37.2042 65.3377 37.1482 65.3544 37.0587 65.3992C37.0755 65.3041 37.0643 65.2425 37.0923 65.209C37.1426 65.1362 37.2154 65.0803 37.2825 65.0243C37.7581 64.6158 38.245 64.213 38.715 63.7933C39.0227 63.5191 39.3081 63.2226 39.5991 62.9316C39.6718 62.8477 39.7334 62.7413 39.8117 62.635Z" fill="#D9D9D9"/>
<path d="M13.1661 209.875C13.0318 209.942 12.8808 209.992 12.7521 210.082C12.5506 210.21 12.3436 210.283 12.0918 210.25C12.1198 210.21 12.1366 210.16 12.1701 210.149C12.4052 210.042 12.6402 209.936 12.8248 209.74C12.864 209.696 12.9535 209.696 13.015 209.679C13.099 209.662 13.1829 209.656 13.2669 209.645L13.2557 209.634C13.2221 209.712 13.1941 209.796 13.1661 209.875Z" fill="#D9D9D9"/>
<path d="M27.5631 84.2562L27.5575 84.2506C27.3393 84.4352 27.2666 84.4128 27.1994 84.1442L27.1882 84.1554C27.2554 84.1051 27.3393 84.0659 27.3953 83.9988C27.5463 83.8253 27.6918 83.6406 27.8317 83.4728C27.9324 83.5064 27.9436 83.5679 27.8989 83.6183C27.7869 83.7358 27.8093 83.8589 27.8653 83.9932L27.8765 83.9764C27.675 83.9484 27.6359 84.1163 27.5631 84.2562Z" fill="#D9D9D9"/>
<path d="M25.9794 85.6718C25.9682 85.683 25.9514 85.6886 25.9402 85.6998C25.8899 85.6886 25.8339 85.6718 25.75 85.655C25.8675 85.4256 26.0354 85.2801 26.2312 85.0563C26.1976 85.2353 26.1753 85.3416 26.1529 85.4536L26.1641 85.4368C26.0186 85.4368 25.9962 85.5543 25.9794 85.6718Z" fill="#D9D9D9"/>
<path d="M36.0289 50.3921C36.2079 50.0955 36.2863 50.0396 36.5437 50.0284L36.5381 50.0172C36.4206 50.2298 36.2303 50.3194 36.0177 50.3809L36.0289 50.3921Z" fill="#D9D9D9"/>
<path d="M18.918 167.494C18.8564 167.662 18.7725 167.802 18.5319 167.886C18.6494 167.674 18.6885 167.472 18.9235 167.5L18.918 167.494Z" fill="#D9D9D9"/>
<path d="M36.0181 50.3868C35.9621 50.6107 35.7663 50.6219 35.6096 50.7002C35.7103 50.5379 35.8222 50.3924 36.0237 50.398C36.0293 50.3924 36.0181 50.3868 36.0181 50.3868Z" fill="#D9D9D9"/>
<path d="M28.0444 231.574C28.0052 231.384 28.0052 231.384 28.1339 231.221C28.1731 231.406 28.1731 231.406 28.0444 231.574Z" fill="#D9D9D9"/>
<path d="M19.0579 167.802C19.0859 167.797 19.1194 167.786 19.1418 167.791C19.2593 167.819 19.2817 167.881 19.209 167.965C19.1922 167.987 19.1642 168.004 19.1418 168.021C19.1194 168.037 19.0915 168.049 19.0691 168.06C19.0579 168.054 19.0299 168.054 19.0299 168.049C19.0411 167.965 19.0523 167.886 19.0579 167.802Z" fill="#D9D9D9"/>
<path d="M18.6164 169.688C18.6164 169.688 18.622 169.688 18.6164 169.688C18.678 169.671 18.7339 169.671 18.7507 169.738C18.7563 169.772 18.7395 169.834 18.7115 169.85C18.6444 169.89 18.5717 169.912 18.4821 169.945C18.4709 169.794 18.5269 169.733 18.6164 169.688Z" fill="#D9D9D9"/>
<path d="M19.349 169.24C19.3098 169.318 19.2819 169.402 19.2315 169.47C19.2147 169.486 19.1476 169.458 19.0748 169.447C19.1644 169.324 19.2315 169.229 19.3602 169.251C19.3546 169.251 19.349 169.24 19.349 169.24Z" fill="#D9D9D9"/>
<path d="M19.7801 200.29C19.6514 200.312 19.5842 200.223 19.5171 200.122C19.685 200.144 19.685 200.144 19.7745 200.301L19.7801 200.29Z" fill="#D9D9D9"/>
<path d="M29.1858 232.133C29.1858 232.15 29.1802 232.167 29.1802 232.178C29.1467 232.167 29.1075 232.156 29.0795 232.133C29.0683 232.128 29.0851 232.089 29.0851 232.061C29.1187 232.083 29.1523 232.111 29.1858 232.133Z" fill="#D9D9D9"/>
<path d="M28.2065 231.748C28.2457 231.72 28.2905 231.686 28.3296 231.658C28.3464 231.692 28.3688 231.725 28.3856 231.759C28.3408 231.781 28.2961 231.798 28.2513 231.82C28.2345 231.798 28.2233 231.77 28.2065 231.748Z" fill="#D9D9D9"/>
<path d="M23.7805 296.191C23.7805 296.23 23.7805 296.275 23.7805 296.314C23.7749 296.314 23.7749 296.314 23.7693 296.314C23.7693 296.275 23.7693 296.23 23.7693 296.191C23.7749 296.191 23.7749 296.191 23.7805 296.191Z" fill="#D9D9D9"/>
<path d="M27.2051 84.1385C27.1436 84.1441 27.0652 84.2001 27.0373 84.0882C27.0317 84.077 27.0428 84.0546 27.054 84.049C27.1548 83.9986 27.1604 84.0994 27.1995 84.1497C27.1939 84.1497 27.2051 84.1385 27.2051 84.1385Z" fill="#D9D9D9"/>
<path d="M20.5519 207.586C20.6078 207.536 20.647 207.497 20.6918 207.463C20.7086 207.452 20.7421 207.463 20.7645 207.48C20.7701 207.485 20.7645 207.53 20.7533 207.547C20.7086 207.609 20.6526 207.631 20.5519 207.586Z" fill="#D9D9D9"/>
<path d="M16.3052 171.305C16.322 171.473 16.322 171.473 16.1317 171.529C16.2101 171.439 16.266 171.378 16.3164 171.316C16.3108 171.316 16.3052 171.305 16.3052 171.305Z" fill="#D9D9D9"/>
<path d="M23.0312 177.936C23.0032 177.953 22.9752 177.975 22.9472 177.992C22.9416 177.981 22.9304 177.964 22.9304 177.958C22.9584 177.93 22.9864 177.908 23.0088 177.885C23.0144 177.902 23.02 177.913 23.0312 177.936Z" fill="#D9D9D9"/>
<path d="M22.7177 178.137C22.7289 178.143 22.7457 178.148 22.7457 178.154C22.7457 178.165 22.7401 178.188 22.7289 178.188C22.7177 178.193 22.7065 178.176 22.6953 178.171C22.7065 178.16 22.7121 178.148 22.7177 178.137Z" fill="#D9D9D9"/>
<path d="M23.1711 298.882C23.1767 298.893 23.1824 298.905 23.1824 298.916C23.1824 298.927 23.1711 298.933 23.1654 298.944C23.1597 298.933 23.1541 298.922 23.1541 298.91C23.1541 298.899 23.1654 298.888 23.1711 298.882Z" fill="#D9D9D9"/>
<path d="M23.1595 297.769C23.1707 297.769 23.1875 297.769 23.1875 297.774C23.1931 297.797 23.1931 297.825 23.1931 297.853C23.1763 297.853 23.1595 297.847 23.1427 297.847C23.1539 297.819 23.1539 297.797 23.1595 297.769Z" fill="#D9D9D9"/>
<path d="M24.4916 21.3906C24.5139 21.3906 24.5419 21.3906 24.5643 21.385C24.5755 21.385 24.5867 21.3794 24.5979 21.3794C24.5923 21.385 24.5867 21.3962 24.5811 21.3962C24.5475 21.3906 24.5195 21.385 24.486 21.3794L24.4916 21.3906Z" fill="#D9D9D9"/>
<path d="M18.9239 167.506C18.9183 167.478 18.9071 167.439 18.9183 167.422C18.9351 167.394 18.9743 167.383 19.0022 167.366C18.9967 167.405 19.0023 167.444 18.9855 167.483C18.9799 167.495 18.9407 167.495 18.9127 167.495C18.9183 167.495 18.9239 167.506 18.9239 167.506Z" fill="#D9D9D9"/>
<path d="M24.4854 21.3794C24.4966 21.4689 24.5301 21.5696 24.3511 21.6256C24.4182 21.5193 24.4518 21.4577 24.491 21.3906L24.4854 21.3794Z" fill="#D9D9D9"/>
<path d="M29.8635 253.24C29.8522 253.235 29.8408 253.229 29.8352 253.223C29.8295 253.212 29.8352 253.195 29.8352 253.184C29.8522 253.189 29.8635 253.201 29.8805 253.206C29.8748 253.218 29.8692 253.229 29.8635 253.24Z" fill="#D9D9D9"/>
<path d="M31.1777 79.4945L31.1665 79.4833C31.1944 79.4833 31.2112 79.5057 31.2168 79.5336L31.2056 79.5392C31.1777 79.5392 31.1497 79.5448 31.1217 79.5448C31.1385 79.5336 31.1609 79.5113 31.1777 79.4945Z" fill="#D9D9D9"/>
<path d="M27.4456 83.6854C27.412 83.7134 27.384 83.7358 27.3616 83.7582C27.3616 83.7582 27.3336 83.7358 27.3392 83.7302C27.3448 83.7022 27.356 83.6743 27.3784 83.6575C27.3784 83.6519 27.4064 83.6687 27.4456 83.6854Z" fill="#D9D9D9"/>
<path d="M23.3783 166.431C23.3783 166.359 23.3783 166.286 23.3783 166.208C23.4958 166.303 23.4958 166.303 23.3783 166.431Z" fill="#D9D9D9"/>
<path d="M13.6472 218.676C13.5521 218.716 13.5241 218.626 13.4794 218.576L13.4738 218.564C13.5297 218.604 13.5801 218.643 13.636 218.682L13.6472 218.676Z" fill="#D9D9D9"/>
<path d="M13.3409 218.806C13.3182 218.795 13.2899 218.783 13.2672 218.778C13.2842 218.766 13.2955 218.755 13.3125 218.744C13.3182 218.766 13.3239 218.795 13.3295 218.817C13.3352 218.812 13.3409 218.806 13.3409 218.806Z" fill="#D9D9D9"/>
<path d="M13.4803 218.576C13.4577 218.576 13.435 218.576 13.4124 218.576C13.418 218.587 13.418 218.599 13.4237 218.61C13.4407 218.593 13.4577 218.576 13.469 218.559C13.469 218.565 13.4803 218.576 13.4803 218.576Z" fill="#D9D9D9"/>
<path d="M26.92 84.3063C26.9088 84.3119 26.9032 84.3119 26.8921 84.3175C26.8921 84.3063 26.8809 84.2951 26.8865 84.2895C26.892 84.2839 26.9032 84.2839 26.9144 84.2783C26.9144 84.2895 26.92 84.3007 26.92 84.3063Z" fill="#D9D9D9"/>
<path d="M10.1047 211.441C10.0935 211.447 10.0823 211.453 10.0711 211.453C10.0655 211.436 10.0655 211.419 10.0599 211.402C10.0711 211.402 10.0879 211.402 10.0991 211.408C10.0991 211.419 10.0991 211.43 10.1047 211.441Z" fill="#D9D9D9"/>
<path d="M39.2652 210.037V210.066L39.23 210.055L39.2652 210.037Z" fill="#D9D9D9"/>
<path d="M22.9469 166.717V166.728C23.0084 166.711 23.07 166.694 23.1371 166.677C23.1371 166.677 23.1315 166.666 23.1371 166.666C23.07 166.683 23.0084 166.7 22.9469 166.717Z" fill="#D9D9D9"/>
<path d="M29.6954 167.103C29.701 167.081 29.701 167.053 29.7066 167.03C29.7066 167.058 29.701 167.081 29.701 167.108L29.6954 167.103Z" fill="#D9D9D9"/>
<path d="M18.1967 168.278C18.1967 168.289 18.1967 168.3 18.1911 168.306C18.1855 168.311 18.1687 168.311 18.1631 168.311C18.1631 168.295 18.1687 168.278 18.1687 168.261C18.1799 168.272 18.1911 168.272 18.1967 168.278Z" fill="#D9D9D9"/>
<path d="M25.191 20.4899C25.191 20.5011 25.1966 20.5178 25.1966 20.529C25.1966 20.5346 25.191 20.5346 25.1854 20.5402C25.191 20.529 25.1966 20.5178 25.2022 20.5011C25.1966 20.5011 25.191 20.4899 25.191 20.4899Z" fill="#D9D9D9"/>
<path d="M22.2142 297.478C22.2198 297.483 22.2366 297.483 22.2366 297.489C22.2366 297.5 22.231 297.511 22.2254 297.522C22.2198 297.517 22.203 297.517 22.203 297.511C22.203 297.5 22.2086 297.489 22.2142 297.478Z" fill="#D9D9D9"/>
<path d="M23.2883 177.717C23.2939 177.706 23.2939 177.689 23.2995 177.689C23.3107 177.689 23.3219 177.695 23.3331 177.695C23.3275 177.706 23.3275 177.723 23.3219 177.723C23.3107 177.729 23.2995 177.723 23.2883 177.717Z" fill="#D9D9D9"/>
<path d="M19.7024 180.789C19.6854 180.801 19.6684 180.818 19.6458 180.829C19.6684 180.818 19.6854 180.806 19.7081 180.801L19.7024 180.789Z" fill="#D9D9D9"/>
</svg>
