<svg viewBox="0 0 22 144" fill="none" xmlns="http://www.w3.org/2000/svg">
<path d="M11.6552 9.48335C11.6992 9.42381 11.7432 9.36428 11.7872 9.30216C11.7691 9.25298 11.7381 9.26075 11.7122 9.29181C11.5569 9.48335 11.3912 9.66712 11.2644 9.88195C11.2437 9.91819 11.21 9.94407 11.1867 9.97772C11.1013 10.102 11.0004 10.2133 10.9124 10.3349C10.7364 10.5679 10.5733 10.8163 10.3662 11.0182C10.3067 11.0752 10.3145 11.1761 10.2342 11.2227C10.1721 11.2589 10.1203 11.3133 10.0246 11.391C10.097 11.3832 10.1281 11.3858 10.1514 11.3754C10.2239 11.3418 10.2964 11.3055 10.3662 11.2667C10.8399 11.0001 11.3058 10.7206 11.7562 10.41C12.3567 9.99843 12.9675 9.605 13.5784 9.21416C13.6664 9.15721 13.744 9.08215 13.8631 9.08215C13.92 9.08215 13.9847 9.03039 14.0365 8.98638C14.1064 8.92685 14.1685 8.85956 14.2695 8.8492C14.3005 8.84661 14.329 8.79743 14.3575 8.76637C14.4196 8.69908 14.4714 8.61625 14.5827 8.62919C14.6085 8.63178 14.6396 8.59554 14.6655 8.57743C14.7742 8.49719 14.8829 8.41695 14.9916 8.33671C15.0434 8.29788 15.0926 8.2487 15.1702 8.29012C15.1909 8.30047 15.2349 8.25906 15.2634 8.24353C15.2737 8.17106 15.2271 8.14517 15.1961 8.11411C15.0149 7.93034 14.8285 7.74916 14.6448 7.56538C14.6085 7.52915 14.5749 7.48773 14.5438 7.44891C14.5645 7.42302 14.5775 7.40749 14.593 7.38679C14.4895 7.29361 14.3885 7.19784 14.2772 7.09689C14.3031 7.07878 14.3212 7.05807 14.3316 7.06066C14.7405 7.14348 15.1573 7.16678 15.561 7.2962C15.8587 7.38938 16.1589 7.46962 16.4463 7.60421C16.5653 7.65857 16.6999 7.68186 16.8267 7.71551C16.9743 7.75692 17.1115 7.82422 17.2435 7.90705C17.4531 8.03905 17.6731 8.15553 17.8828 8.29012C18.0821 8.41695 18.2529 8.58002 18.3927 8.77932C18.4755 8.89579 18.5506 9.02262 18.6619 9.1158C18.6774 9.12874 18.6955 9.14427 18.7007 9.16239C18.7525 9.33581 18.8793 9.45487 18.9647 9.605C18.9828 9.63606 19.0139 9.66453 19.0139 9.69559C19.0242 9.91301 19.1355 10.1123 19.1123 10.3375C19.0993 10.4747 19.0424 10.5937 18.9984 10.718C18.9828 10.7568 18.9362 10.7956 18.8974 10.8112C18.7266 10.8862 18.5558 10.9432 18.3642 10.9199C18.2477 10.9043 18.1339 10.8811 18.0122 10.894C17.9061 10.9043 17.7896 10.8759 17.699 10.7905C17.6602 10.7542 17.6136 10.718 17.5567 10.7361C17.4868 10.7594 17.4479 10.7102 17.3988 10.6766C17.3444 10.6377 17.3522 10.5808 17.3444 10.5264C17.3444 10.5213 17.3367 10.5135 17.3263 10.4954C17.2409 10.542 17.1503 10.5834 17.0649 10.6352C16.8707 10.7542 16.6792 10.8785 16.4903 11.0053C16.3608 11.0907 16.2444 11.1942 16.102 11.2564C16.0658 11.2719 16.0269 11.3211 16.0166 11.3651C15.9804 11.4867 15.9493 11.6084 15.9338 11.7326C15.9208 11.8517 15.9234 11.9733 15.9338 12.0924C15.9597 12.3461 15.9985 12.5945 16.0244 12.8482C16.0554 13.1277 16.0761 13.4099 16.1072 13.6894C16.1357 13.956 16.1693 14.22 16.2055 14.4866C16.2211 14.5901 16.2547 14.6911 16.2754 14.7946C16.3298 15.056 16.3764 15.3201 16.4307 15.5815C16.5136 15.9827 16.63 16.3709 16.8449 16.7204C16.9613 16.9093 17.0752 17.1008 17.1865 17.2898C17.259 17.414 17.3599 17.502 17.4842 17.5616C17.5929 17.6133 17.699 17.6755 17.8103 17.7143C18.1572 17.8333 18.504 17.9446 18.8534 18.0559C18.988 18.0974 19.1252 18.0999 19.265 18.0818C19.441 18.0611 19.6222 18.0585 19.7982 18.0663C20.0104 18.0766 20.1994 18.1621 20.3469 18.3277C20.4297 18.4209 20.5229 18.4985 20.6187 18.571C20.7843 18.6979 20.937 18.8428 21.1312 18.9282C21.3305 19.0162 21.4547 19.1845 21.522 19.4045C21.5298 19.4304 21.5349 19.4666 21.5505 19.4795C21.7084 19.5934 21.7575 19.7824 21.8404 19.948C21.8533 19.9739 21.8585 20.0101 21.8766 20.0205C21.9724 20.0774 21.9698 20.1758 21.9491 20.2586C21.918 20.388 21.9413 20.5045 21.975 20.6262C22.0216 20.7944 22.0112 20.9471 21.874 21.0662C21.8637 21.0739 21.8481 21.0843 21.8455 21.0947C21.7964 21.2888 21.6074 21.338 21.5013 21.4751C21.4883 21.4907 21.4702 21.5114 21.4547 21.5114C21.2968 21.501 21.1545 21.6071 20.994 21.5735C20.8904 21.5528 20.7843 21.5399 20.6808 21.5191C20.5669 21.4984 20.4582 21.5088 20.3521 21.5631C20.2201 21.6304 20.0881 21.69 19.9586 21.7495C19.9043 21.7107 19.8603 21.6589 19.8085 21.6511C19.7464 21.6434 19.6765 21.6641 19.617 21.69C19.4151 21.7754 19.2158 21.8712 19.0139 21.9592C18.8974 22.0109 18.7835 22.0627 18.6619 22.0989C18.5014 22.1507 18.3642 22.2491 18.2219 22.3371C17.9941 22.4794 17.7663 22.6218 17.5282 22.746C17.3755 22.8263 17.2409 22.9453 17.0959 23.0437C17.0364 23.0851 16.982 23.142 16.9018 23.142L16.9044 23.1472C16.8966 23.0773 16.9484 23.0489 16.9872 23.0178C17.1917 22.8496 17.3988 22.6865 17.6032 22.5208C17.6602 22.4742 17.7171 22.4225 17.7715 22.3733C17.7844 22.3604 17.787 22.3396 17.7974 22.3189C17.6731 22.3396 17.6421 22.3552 17.5515 22.4302C17.4324 22.5312 17.3134 22.6295 17.1917 22.7279C17.1684 22.7486 17.1425 22.7641 17.0985 22.759C17.1141 22.7408 17.127 22.7201 17.1451 22.7046C17.4971 22.4044 17.8233 22.0756 18.1313 21.7262C18.2529 21.589 18.3823 21.4544 18.46 21.2784C18.4729 21.2474 18.4807 21.2137 18.4936 21.1749C18.4496 21.1542 18.416 21.1231 18.3797 21.1205C18.2607 21.1154 18.1546 21.0507 18.0381 21.0299C17.8595 20.9989 17.6964 20.9238 17.5308 20.8565C17.4091 20.8074 17.303 20.7142 17.1891 20.6417C17.127 20.6029 17.0623 20.564 17.0002 20.5252C16.7802 20.3777 16.5809 20.2069 16.4437 19.9661C16.2263 19.5882 16.0321 19.1974 15.8898 18.7781C15.8225 18.5788 15.7474 18.3847 15.6775 18.1879C15.5921 17.955 15.5636 17.7117 15.5326 17.4658C15.4963 17.1863 15.4549 16.9067 15.429 16.6272C15.3954 16.2752 15.3721 15.9231 15.354 15.5711C15.3229 15.0069 15.2996 14.4452 15.266 13.8809C15.2349 13.3607 15.1935 12.8404 15.1547 12.3202C15.1443 12.1933 15.1184 12.0717 15.077 11.9604C14.9942 11.9449 14.9528 11.9992 14.901 12.0277C14.8544 12.0536 14.8363 12.139 14.7431 12.1053C14.8467 12.0096 14.9373 11.9216 15.033 11.8336C15.0071 11.7533 14.9761 11.686 14.9088 11.6343C14.8001 11.6783 14.7198 11.7611 14.6344 11.8362C14.4843 11.9682 14.3808 12.1416 14.2824 12.3176C14.1142 12.6152 13.9796 12.9284 13.8631 13.2494C13.8165 13.3736 13.757 13.4927 13.7078 13.6169C13.669 13.7127 13.6379 13.8136 13.6043 13.912C13.5965 13.9379 13.5913 13.9664 13.581 13.9922C13.4723 14.2563 13.361 14.5203 13.2574 14.7869C13.2341 14.849 13.1901 14.9085 13.2289 14.9862C13.2419 15.0095 13.2289 15.0561 13.2134 15.0845C13.1772 15.1673 13.1332 15.245 13.0918 15.3252C13.0271 15.4495 12.9675 15.5737 12.9002 15.6928C12.8588 15.7704 12.8433 15.8507 12.8485 15.9361C12.864 16.2104 12.8588 16.4874 12.8303 16.7618C12.8122 16.9352 12.8407 17.1034 12.9261 17.251C13.0167 17.414 13.0478 17.5926 13.0866 17.7686C13.1228 17.9265 13.1358 18.0844 13.1021 18.2475C13.0892 18.3044 13.1073 18.3717 13.1125 18.452C13.0633 18.527 13.0038 18.6176 13.0089 18.7393C13.0115 18.8091 12.9623 18.8609 12.9183 18.8972C12.7682 19.0214 12.6673 19.1845 12.5793 19.3579C12.5068 19.5028 12.3877 19.5184 12.2609 19.5184C12.1962 19.5184 12.1315 19.4976 12.0642 19.4899C11.9865 19.4795 11.9089 19.4718 11.8105 19.4614C11.751 19.42 11.6863 19.3475 11.5828 19.3501C11.5232 19.3501 11.3783 19.1819 11.3524 19.1094C11.3213 19.0162 11.2851 18.9256 11.2618 18.8324C11.2411 18.7522 11.2256 18.6694 11.2152 18.5866C11.1997 18.4753 11.1893 18.364 11.1609 18.2552C11.135 18.1647 11.1427 18.0585 11.1583 17.9628C11.1842 17.7945 11.1272 17.6418 11.078 17.4917C11.0573 17.4244 10.9874 17.3726 10.9357 17.3209C10.8891 17.2768 10.858 17.2251 10.8503 17.1423C10.8787 17.1034 10.915 17.0568 10.9486 17.0128C10.946 16.9145 10.8684 16.8368 10.9124 16.7359C10.9409 16.7359 10.9719 16.7359 11.0107 16.7359C11.0107 16.6323 11.0107 16.5314 11.0107 16.4279C11.0289 16.3968 11.0547 16.3683 11.0651 16.3373C11.0962 16.2389 11.1634 16.1768 11.2333 16.1147C11.2592 16.0914 11.2929 16.0707 11.3006 16.0422C11.3472 15.874 11.4844 15.7937 11.5931 15.685C11.6086 15.6721 11.6242 15.6617 11.6345 15.654C11.6397 15.5478 11.6449 15.4572 11.6501 15.377C11.6682 15.3563 11.6759 15.3408 11.6863 15.3356C11.8261 15.2631 11.8752 15.1337 11.8959 14.9784C11.9374 14.6652 11.9865 14.352 12.0305 14.0362C12.0383 13.9819 12.0383 13.9249 12.0409 13.8758C12.0021 13.8369 11.9684 13.8499 11.9477 13.8758C11.9063 13.9301 11.8675 13.9016 11.8209 13.8784C11.7614 13.9534 11.7122 14.0311 11.7355 14.1372C11.7484 14.1967 11.7277 14.2355 11.6811 14.2795C11.6293 14.3261 11.6061 14.4064 11.5595 14.4866C11.4611 14.4892 11.4171 14.5901 11.3731 14.6833C11.2696 14.9189 11.1401 15.1389 11.0185 15.3641C10.8684 15.6384 10.7286 15.9206 10.6095 16.2104C10.4905 16.5029 10.3378 16.7747 10.2084 17.0568C10.0971 17.2976 9.94433 17.5124 9.86151 17.7686C9.83304 17.8618 9.80457 17.955 9.78645 18.0534C9.75798 18.2138 9.7295 18.3717 9.65185 18.5141C9.63632 18.5451 9.62338 18.5762 9.61303 18.6098C9.47326 19.0628 9.23772 19.4614 9.01512 19.8704C8.865 20.1447 8.6657 20.3622 8.43534 20.5537C8.34733 20.6262 8.25156 20.6935 8.1972 20.8022C8.19203 20.8151 8.18167 20.8281 8.17132 20.8332C7.99272 20.9394 7.85554 21.1128 7.65365 21.1775C7.56047 21.2085 7.45953 21.2241 7.37411 21.1412C7.356 21.1231 7.32753 21.1154 7.30423 21.1102C7.19811 21.0869 7.10752 21.0299 7.01951 20.9678C6.94963 20.9161 6.88233 20.8591 6.79691 20.7892C6.7762 20.7168 6.75032 20.6236 6.72444 20.5304C6.69855 20.432 6.71926 20.3389 6.73479 20.2405C6.77362 20.0076 6.88233 19.8057 6.97033 19.5934C7.03763 19.4355 7.05316 19.2776 7.00398 19.1249C6.94186 18.9386 6.99104 18.7936 7.09458 18.6538C7.12822 18.6098 7.15928 18.571 7.16187 18.5089C7.16446 18.4287 7.21104 18.3691 7.2654 18.3122C7.38964 18.1802 7.53718 18.0844 7.69507 18.0197C7.77789 17.9861 7.83743 17.9188 7.91508 17.8825C7.99014 17.8489 8.04708 17.7919 8.09367 17.722C8.13767 17.6522 8.20497 17.6263 8.28262 17.6289C8.31627 17.6289 8.34991 17.6315 8.38098 17.6289C8.44568 17.6263 8.49487 17.5952 8.52593 17.5357C8.58546 17.4166 8.64499 17.3001 8.69934 17.1785C8.8417 16.8549 8.909 16.5107 8.95041 16.1587C8.96853 16.0034 8.97889 15.8507 8.99183 15.6954C9.01512 15.4184 8.97112 15.1466 8.93229 14.88C8.96594 14.8283 9.05654 14.8567 9.05136 14.7687C9.0643 14.7713 9.07983 14.7687 9.085 14.7765C9.27395 14.9965 9.43961 15.2295 9.54573 15.509C9.65962 15.8118 9.73727 16.1224 9.75798 16.4512C9.76574 16.5547 9.78903 16.6556 9.80456 16.7514C9.8641 16.7618 9.88739 16.7255 9.91069 16.6919C9.98316 16.5832 10.053 16.4719 10.1203 16.3606C10.4698 15.786 10.8166 15.2113 11.1634 14.6367C11.3213 14.3753 11.4741 14.1139 11.6294 13.8499C11.707 13.7153 11.7562 13.5703 11.7355 13.4073C11.7303 13.3659 11.7355 13.3219 11.7406 13.2804C11.7562 13.1976 11.8183 13.1122 11.9192 13.1174C11.9684 13.12 12.0228 13.1044 12.0694 13.0863C12.1496 13.0527 12.2247 13.0113 12.2557 12.9129C12.2635 12.8896 12.2894 12.8715 12.3127 12.843C12.411 12.8534 12.5146 12.8223 12.6155 12.8741C12.6466 12.8896 12.6932 12.8741 12.732 12.8767C12.7786 12.8793 12.8252 12.8767 12.8692 12.8922C12.9908 12.931 13.0555 13.0346 13.0296 13.1691C12.9908 13.3684 12.9649 13.5703 12.9442 13.7748C12.9235 13.9715 12.9028 14.1657 12.8847 14.3624C12.8821 14.3883 12.8899 14.4141 12.8899 14.4426C12.9468 14.44 12.9598 14.396 12.9805 14.3624C13.0736 14.1915 13.1668 14.0207 13.2548 13.8473C13.3972 13.5678 13.537 13.2882 13.6767 13.0087C13.7699 12.8223 13.8631 12.6359 13.9563 12.4496C13.9951 12.3745 14.0365 12.3046 14.0779 12.2322C14.1866 12.0458 14.3057 11.8698 14.4403 11.7041C14.4791 11.6576 14.5076 11.6006 14.5335 11.5437C14.593 11.422 14.6681 11.3185 14.7845 11.2538C14.8907 11.1942 14.9942 11.1321 15.1055 11.0674C15.1133 11.0415 15.121 11.0079 15.134 10.9768C15.1702 10.8862 15.2453 10.8422 15.3229 10.8811C15.473 10.9561 15.6309 10.9251 15.7862 10.938C16.0037 10.6714 16.1822 10.3841 16.2702 10.045C16.2987 9.93631 16.3143 9.82501 16.322 9.71112C16.3298 9.59465 16.2987 9.49111 16.2211 9.40052C16.0477 9.19863 15.8768 8.99156 15.7086 8.7819C15.6491 8.70684 15.5921 8.6266 15.5455 8.54378C15.4912 8.44283 15.429 8.35742 15.3359 8.29789C15.1521 8.43248 15.1107 8.48166 15.0149 8.67837C14.9942 8.72237 14.9683 8.76638 14.9347 8.79744C14.8648 8.86214 14.813 8.94238 14.7638 9.02521C14.7431 9.05886 14.7302 9.10545 14.681 9.10286C14.5568 9.28404 14.3626 9.39275 14.2462 9.58429C14.109 9.80948 13.8967 9.94148 13.7104 10.1045C13.4723 10.3116 13.2186 10.5032 13.0089 10.749C12.952 10.8163 12.8821 10.8707 12.8614 10.9639C12.8562 10.982 12.8381 10.9975 12.8226 11.0105C12.688 11.1269 12.6026 11.2848 12.4939 11.4324C12.5042 11.4531 12.5171 11.4764 12.5327 11.5074C12.4706 11.7067 12.3411 11.8594 12.1988 12.0018C11.8882 12.3098 11.5802 12.6178 11.2747 12.931C11.1324 13.076 10.9978 13.2339 10.858 13.3814C10.8166 13.4254 10.7674 13.4642 10.7208 13.503C10.6147 13.5859 10.506 13.6635 10.3999 13.7463C10.3481 13.7878 10.3015 13.8369 10.2394 13.8939C10.2032 13.8991 10.1514 13.9146 10.0996 13.912C9.9314 13.8991 9.77092 13.9353 9.61044 13.9793C9.49914 14.0104 9.39043 14.0078 9.27913 13.9922C9.18595 13.9793 9.11348 13.9379 9.0643 13.8551C8.97889 13.7127 8.90124 13.5652 8.821 13.4202C8.76923 13.327 8.7977 13.2028 8.69158 13.1226C8.60875 13.0604 8.55957 12.9491 8.49486 12.8611C8.46898 12.8275 8.4431 12.7964 8.41722 12.7654C8.33957 12.6825 8.28262 12.5919 8.28521 12.4703C8.28521 12.4574 8.28262 12.4418 8.27744 12.4289C8.22826 12.2943 8.25415 12.1804 8.3551 12.0872C8.38357 12.0613 8.38356 12.0303 8.38098 11.994C8.3758 11.8931 8.37839 11.8931 8.46122 11.8594C8.49746 11.8439 8.53369 11.831 8.56475 11.8206C8.56993 11.7973 8.58028 11.7818 8.57769 11.7714C8.53369 11.5928 8.55181 11.5566 8.70452 11.5152C8.74334 11.5048 8.78476 11.5048 8.821 11.4919C8.88312 11.4712 8.96077 11.4608 9.00218 11.4168C9.11607 11.2978 9.24549 11.29 9.38784 11.3185C9.40079 11.3211 9.41373 11.3185 9.4422 11.3185C9.46549 11.2952 9.50432 11.2667 9.53279 11.2305C9.57938 11.1709 9.62597 11.1114 9.66738 11.0467C9.99351 10.5679 10.3171 10.0838 10.6458 9.605C10.9641 9.13651 11.2903 8.67319 11.6086 8.20729C11.7329 8.02352 11.8494 7.83716 11.9684 7.64821C11.9891 7.61715 11.9995 7.57574 12.0254 7.50844C11.9607 7.53691 11.9192 7.54209 11.8934 7.56538C11.7795 7.66633 11.6449 7.72586 11.5129 7.78798C11.4533 7.81645 11.399 7.85787 11.3369 7.88634C11.1867 7.95622 11.0444 8.04423 10.8761 8.07529C10.7545 8.09858 10.6484 8.18141 10.5215 8.20212C10.3662 8.22541 10.2135 8.27459 10.0582 8.2953C9.9754 8.30565 9.88998 8.28236 9.80456 8.26941C9.74503 8.25906 9.6855 8.24871 9.63115 8.228C9.53797 8.19176 9.44738 8.15553 9.34643 8.17623C9.32313 8.18141 9.28948 8.17365 9.27137 8.15812C9.1523 8.05976 9.00994 7.99764 8.909 7.87081C8.77699 7.70515 8.63464 7.54727 8.5311 7.35573C8.49487 7.28584 8.4431 7.23666 8.37063 7.2056C8.2438 7.15125 8.1532 7.05548 8.08591 6.92347C8.04191 6.83806 7.97719 6.76559 7.92025 6.68794C7.82966 6.56628 7.80378 6.43428 7.87625 6.29451C7.89955 6.24792 7.90214 6.20391 7.89437 6.15474C7.87884 6.03567 7.85555 5.9192 7.80637 5.8079C7.78308 5.75096 7.76495 5.69142 7.74424 5.62413C7.79342 5.60342 7.83484 5.58789 7.87108 5.57236C8.07038 5.69401 8.2671 5.81049 8.46122 5.93214C8.55699 5.99167 8.65275 6.01238 8.76405 5.99944C9.03583 5.96838 9.29467 5.88814 9.55091 5.78978C9.81751 5.68625 10.0815 5.57495 10.3455 5.46624C10.4077 5.44035 10.4698 5.41447 10.5241 5.37823C10.5655 5.34976 10.607 5.30835 10.6328 5.26176C10.7183 5.11163 10.7907 4.95116 10.8787 4.80362C11.0107 4.58103 11.0987 4.33772 11.1945 4.097C11.3602 3.68287 11.4404 3.24803 11.4352 2.79766C11.4326 2.57765 11.399 2.36281 11.3265 2.15575C11.2773 2.01856 11.2074 1.90985 11.0858 1.8322C10.9434 1.74161 10.8296 1.60961 10.7234 1.47501C10.6535 1.38701 10.5811 1.31195 10.4905 1.24983C10.2964 1.11523 10.1255 0.946991 9.97799 0.755454C9.92363 0.685568 9.86928 0.61827 9.80198 0.527678C9.85116 0.522501 9.88222 0.519914 9.92363 0.514738C9.89516 0.465559 9.87186 0.418968 9.83821 0.362024C9.8848 0.341318 9.92363 0.315434 9.96505 0.30508C10.2291 0.235195 10.4905 0.167898 10.7545 0.100601C10.8192 0.0850709 10.8813 0.0669533 10.946 0.0488349C11.1842 -0.026227 11.4145 -0.0184614 11.6397 0.0980141C11.795 0.178253 11.9529 0.248137 12.1134 0.315434C12.191 0.349082 12.2764 0.374967 12.3593 0.38532C12.6336 0.41638 12.8795 0.535443 13.1202 0.66486C13.1435 0.677802 13.1642 0.701098 13.1875 0.708863C13.3506 0.752865 13.4308 0.890047 13.5059 1.03241C13.5188 1.0557 13.5266 1.08676 13.5447 1.10229C13.6276 1.17735 13.6664 1.28865 13.7311 1.37407C13.8605 1.53972 13.8683 1.7442 13.9123 1.93833C13.9226 1.97974 13.92 2.02374 13.9356 2.05998C13.9977 2.20234 13.9692 2.33434 13.9097 2.46376C13.8967 2.48964 13.8864 2.51294 13.8734 2.53882C13.8398 2.55176 13.8113 2.5647 13.7777 2.57247C13.713 2.588 13.6586 2.60871 13.6017 2.65789C13.537 2.71483 13.4438 2.73295 13.3791 2.7873C13.3144 2.84166 13.2755 2.93225 13.1901 2.96849C13.1668 2.97884 13.1435 2.99696 13.1306 3.02025C13.0814 3.10567 13.0038 3.13673 12.9158 3.16261C12.8795 3.11861 12.8433 3.07978 12.8019 3.03061C12.7579 3.03578 12.7087 3.04355 12.6492 3.05131C12.6362 2.99955 12.6259 2.95037 12.6103 2.90637C12.587 2.84166 12.5249 2.82354 12.4861 2.87272C12.4084 2.96849 12.323 3.06167 12.2635 3.16779C12.16 3.35156 12.015 3.49651 11.8856 3.65699C11.7691 3.80193 11.6526 3.94688 11.5543 4.10477C11.4068 4.34548 11.223 4.55773 11.0573 4.78809C10.9616 4.9201 10.858 5.04693 10.7855 5.22035C10.8295 5.21258 10.858 5.21258 10.8787 5.20223C11.3912 4.97186 11.8985 4.73115 12.3851 4.44643C12.6983 4.26266 13.0115 4.08406 13.3221 3.89511C13.4774 3.79934 13.6224 3.68805 13.7699 3.58192C13.8424 3.53016 13.8967 3.46545 13.9123 3.3645C13.9304 3.24803 14.0029 3.1652 14.0935 3.10049C14.1349 3.06943 14.1815 3.03319 14.2073 2.9866C14.3057 2.80283 14.4558 2.69671 14.637 2.63718C14.7043 2.61647 14.7509 2.58541 14.7897 2.51811C14.8829 2.36023 14.9864 2.39905 15.0641 2.48964C15.1417 2.57765 15.222 2.65789 15.3384 2.68636C15.3643 2.69153 15.3928 2.70965 15.4161 2.70189C15.5895 2.63718 15.7707 2.74848 15.9441 2.68118C16.0813 2.69412 16.2211 2.69412 16.335 2.79507C16.3608 2.81836 16.3893 2.83648 16.4204 2.84683C16.5446 2.89342 16.6766 2.91931 16.7905 2.98402C16.9199 3.05649 17.0649 3.12379 17.0959 3.31015C17.1063 3.37744 17.1373 3.43698 17.1813 3.49651C17.2512 3.5871 17.2331 3.66993 17.1477 3.72946C16.9484 3.86664 16.7491 3.99865 16.5498 4.13324C16.5394 4.14101 16.5265 4.15136 16.5161 4.15136C16.3608 4.16171 16.2547 4.2756 16.1357 4.35843C16.0192 4.43867 15.9027 4.51632 15.7785 4.58102C15.6801 4.63279 15.6076 4.71044 15.5455 4.80362C15.5093 4.85539 15.4782 4.90716 15.4394 4.95633C15.3876 5.02622 15.3333 5.09352 15.2582 5.14787C15.1831 5.19964 15.1288 5.28764 15.0693 5.3627C14.9838 5.46883 14.9114 5.5853 14.7949 5.66295C14.7095 5.7199 14.6215 5.79755 14.6034 5.92179C14.4817 6.07968 14.4299 6.28415 14.2979 6.43687C14.2798 6.45757 14.2721 6.48863 14.2513 6.50416C14.096 6.61546 14.0365 6.81735 13.8838 6.93124C13.8579 6.94936 13.8398 6.98818 13.832 7.01924C13.7906 7.17196 13.6897 7.28326 13.6094 7.41008C13.5292 7.5395 13.4386 7.66115 13.3558 7.78539C13.2807 7.89928 13.2057 8.01576 13.1332 8.13482C12.9753 8.40401 12.7734 8.63955 12.6 8.89579C12.5922 8.90615 12.5844 8.91909 12.5741 8.92685C12.411 9.04333 12.2997 9.20898 12.1781 9.36687C12.1496 9.4057 12.1185 9.44711 12.0797 9.4704C11.9814 9.53253 11.8985 9.61018 11.8286 9.70336C11.7976 9.74477 11.7562 9.76548 11.6967 9.72665C11.7251 9.63088 11.8571 9.54288 11.751 9.41864C11.707 9.43934 11.6682 9.45746 11.6294 9.47558L11.6552 9.48335ZM13.7414 6.66982C13.5784 6.93642 13.392 7.15125 13.2341 7.39197C13.1772 7.47479 13.1642 7.55762 13.1642 7.67668C13.2419 7.6068 13.304 7.5628 13.3506 7.49032C13.449 7.33243 13.5525 7.17972 13.6534 7.02183C13.6897 6.96489 13.7233 6.90277 13.7596 6.84324C13.7854 6.79665 13.7854 6.75006 13.7414 6.66982ZM16.0295 11.0131C16.1874 10.9509 16.19 10.9458 16.1978 10.8319C16.1357 10.8992 16.0839 10.9561 16.0295 11.0131ZM11.9995 13.6687C12.0072 13.6583 12.0176 13.648 12.0202 13.635C12.0202 13.6247 12.0098 13.6143 12.0047 13.604C11.9969 13.6143 11.9865 13.6247 11.984 13.635C11.9814 13.6454 11.9917 13.6558 11.9995 13.6687Z" fill="currentColor"/>
<path d="M14.4221 36.7722C14.404 36.7515 14.3884 36.7308 14.3625 36.7023C14.4842 36.604 14.6033 36.5159 14.7146 36.4176C14.8051 36.3374 14.8854 36.2416 14.9682 36.1536C15.0045 36.1148 15.0381 36.0682 15.0717 36.0242C15.1572 36.0656 15.2219 36.0242 15.2943 35.9672C15.2969 35.9336 15.2995 35.8922 15.3021 35.8456C15.4807 35.7524 15.6231 35.6074 15.7499 35.447C15.944 35.434 16.1252 35.4547 16.2986 35.535C16.3944 35.579 16.4902 35.5867 16.5885 35.5816C16.6998 35.5764 16.8137 35.579 16.925 35.5712C17.2356 35.5505 17.5126 35.6514 17.7636 35.8326C17.8672 35.9051 17.9552 36.0035 18.0665 36.0682C18.0949 36.0837 18.1208 36.1148 18.1338 36.1432C18.1855 36.2649 18.2735 36.3632 18.2865 36.5056C18.2916 36.5651 18.3331 36.6221 18.3564 36.679C18.4004 36.7955 18.3952 36.9016 18.3382 37.0207C18.2295 37.2381 18.0613 37.3494 17.8387 37.383C17.6704 37.4089 17.5048 37.4503 17.3391 37.4892C17.321 37.4943 17.3003 37.5047 17.2874 37.5202C17.1554 37.6885 16.9509 37.7635 16.8266 37.9421C16.8085 37.968 16.7749 37.9835 16.7464 38.0042C16.6636 38.0638 16.5808 38.1207 16.5238 38.2113C16.5109 38.2346 16.4824 38.245 16.4565 38.2683C16.4436 38.2501 16.4306 38.2372 16.4229 38.2217C16.4151 38.2035 16.4125 38.1803 16.4073 38.157C16.2676 38.1337 16.1485 38.1595 16.0734 38.3019C15.944 38.5478 15.7965 38.7807 15.6515 39.0163C15.5558 39.1716 15.5713 39.358 15.6153 39.5314C15.6904 39.8368 15.8301 40.1034 16.045 40.3286C16.4306 40.7298 16.8732 41.0274 17.3857 41.2008C17.5954 41.2733 17.7869 41.3794 17.9759 41.5011C18.0846 41.571 18.1959 41.6305 18.3227 41.6538C18.3874 41.6642 18.4547 41.6719 18.5168 41.6642C18.6255 41.6486 18.7161 41.6849 18.7808 41.7729C18.8559 41.8764 18.9491 41.9489 19.0423 42.0291C19.138 42.1119 19.2234 42.2103 19.3166 42.3035C19.4124 42.3993 19.5211 42.4821 19.6013 42.5882C19.7359 42.7616 19.8628 42.9428 19.9715 43.1318C20.0284 43.2301 20.0414 43.3595 20.0698 43.4734C20.0931 43.5692 20.1113 43.665 20.132 43.7607C20.1578 43.8876 20.176 44.0144 20.0698 44.1127C20.0051 44.2887 19.8472 44.3871 19.7515 44.5398C19.6997 44.6201 19.6143 44.6692 19.5108 44.6537C19.3995 44.6382 19.2856 44.6149 19.1769 44.6252C19.0733 44.6356 18.9724 44.6641 18.8663 44.6718C18.7291 44.6822 18.61 44.6201 18.4832 44.5864C18.4262 44.5709 18.3667 44.5476 18.3124 44.5553C18.2011 44.5761 18.0898 44.5761 17.9785 44.5631C17.9112 44.5553 17.8465 44.5579 17.7843 44.5942C17.7559 44.6097 17.7222 44.6226 17.6911 44.6252C17.4038 44.6589 17.1502 44.8012 16.8914 44.9229C16.8008 44.9643 16.7128 45.0161 16.6273 45.0652C16.3685 45.218 16.1071 45.3707 15.8508 45.5311C15.4962 45.7512 15.1468 45.9789 14.7974 46.2041C14.7249 46.2507 14.6654 46.2688 14.5981 46.1834C14.6861 46.1006 14.7637 46.0048 14.8621 45.9401C15.0899 45.7926 15.2892 45.6062 15.4936 45.4328C15.7732 45.1947 16.0501 44.9539 16.309 44.6925C16.6506 44.3483 16.9638 43.9781 17.2304 43.564C17.3573 43.3673 17.4789 43.1628 17.5229 42.9221C17.5281 42.8885 17.5307 42.8522 17.5359 42.8108C17.3806 42.6917 17.2227 42.5753 17.0699 42.4536C16.9276 42.3397 16.7956 42.2129 16.6558 42.0964C16.573 42.0265 16.4876 41.9618 16.4022 41.8997C16.2805 41.8117 16.1718 41.7159 16.076 41.5943C15.9751 41.4649 15.8534 41.3536 15.7447 41.2319C15.4005 40.8488 15.2012 40.3855 15.0899 39.8756C14.9967 39.4563 15.0329 39.0344 15.1158 38.6151C15.2038 38.1725 15.3487 37.748 15.5144 37.3339C15.6127 37.088 15.7033 36.8369 15.7939 36.5884C15.8068 36.5522 15.8094 36.5082 15.8198 36.4538C15.7758 36.4538 15.7421 36.4512 15.7137 36.4538C15.2607 36.5159 14.8466 36.6868 14.4713 36.9715C14.2098 37.1708 14.0079 37.427 13.8293 37.7066C13.775 37.792 13.7543 37.8904 13.762 38.0042C13.7776 38.3511 13.8268 38.6927 13.8708 39.0344C13.8915 39.1949 13.9018 39.3554 13.9199 39.5184C13.9381 39.6944 13.9588 39.8679 13.9717 40.0439C14.0131 40.5356 14.0519 41.0274 14.0934 41.5192C14.127 41.9333 14.1632 42.3475 14.1995 42.7616C14.2279 43.0774 14.2642 43.3932 14.2849 43.709C14.3004 43.9186 14.2978 44.1334 14.2978 44.3431C14.2978 44.7521 14.3004 45.161 14.2823 45.57C14.272 45.7952 14.2254 46.0152 14.1943 46.2404C14.1581 46.4914 14.0701 46.7295 14.0028 46.9703C13.9562 47.1385 13.9225 47.3119 13.8837 47.4802C13.8759 47.5138 13.8708 47.5526 13.85 47.5759C13.7646 47.6743 13.7362 47.7959 13.7284 47.9176C13.6766 47.9331 13.6197 47.9331 13.5938 47.9642C13.4954 48.0781 13.3557 48.1091 13.234 48.179C13.1564 48.223 13.0684 48.223 12.9855 48.179C12.9622 48.1661 12.9364 48.1557 12.9131 48.148C12.7371 48.0884 12.6051 47.972 12.4886 47.8192C12.3902 47.6924 12.3152 47.5552 12.2634 47.3999C12.2246 47.2809 12.1469 47.1773 12.1495 47.0453C12.1495 47.0039 12.1469 46.9625 12.1443 46.9185C12.1366 46.7865 12.1392 46.6571 12.0796 46.5303C12.0434 46.4552 12.0123 46.362 12.0512 46.2662C12.0615 46.2455 12.0537 46.2093 12.046 46.186C12.002 46.0695 11.9657 45.9479 11.8881 45.8469C11.8389 45.7822 11.8053 45.702 11.7742 45.6269C11.7561 45.5829 11.7405 45.5311 11.7483 45.4846C11.7613 45.4147 11.7457 45.3603 11.7069 45.3086C11.6448 45.2231 11.5956 45.1351 11.6215 45.0187C11.6267 44.9954 11.6137 44.9643 11.6034 44.9384C11.5671 44.8556 11.5309 44.7728 11.4921 44.6925C11.4532 44.6175 11.417 44.5424 11.3678 44.4751C11.1478 44.1826 10.9459 43.8798 10.7544 43.5666C10.7466 43.5562 10.7337 43.5485 10.713 43.5304C10.6871 43.5537 10.6457 43.5744 10.6327 43.6054C10.449 44.0351 10.1461 44.3535 9.81741 44.6511C9.79153 44.6744 9.76823 44.6977 9.73717 44.7288C9.7087 44.7184 9.67764 44.7106 9.64917 44.6977C9.57152 44.6641 9.49645 44.6692 9.41621 44.6925C9.34115 44.7158 9.26092 44.721 9.18326 44.7262C9.09008 44.7314 8.99949 44.7288 8.9089 44.7624C8.81831 44.7961 8.72513 44.7935 8.63713 44.7546C8.54654 44.7158 8.44559 44.7029 8.36535 44.6304C8.34205 44.6097 8.30582 44.6045 8.27217 44.5968C8.21523 44.5786 8.15828 44.5631 8.10134 44.545C7.90463 44.4803 7.89945 44.4699 7.91757 44.237C7.8891 44.2163 7.85804 44.193 7.8218 44.1749C7.79333 44.1593 7.76226 44.1516 7.71826 44.136C7.77779 44.048 7.82957 43.9704 7.88651 43.885C7.95381 43.8746 8.03404 43.9238 8.10651 43.8668C8.17122 43.8177 8.2437 43.7814 8.3084 43.7323C8.51288 43.5744 8.68371 43.3751 8.85972 43.1835C9.01243 43.0179 9.16515 42.8522 9.31527 42.684C9.36704 42.627 9.41621 42.5727 9.46539 42.5157C9.52751 42.4433 9.59223 42.376 9.67247 42.3216C9.76047 42.2621 9.8407 42.1844 9.85364 42.0576C9.85623 42.0265 9.88212 41.9955 9.90024 41.9696C9.93389 41.9256 9.96754 41.8842 10.0038 41.8428C10.04 41.8013 10.0426 41.7548 10.0271 41.7056C9.99083 41.5917 9.9546 41.4778 9.91577 41.3665C9.88989 41.294 9.82 41.2785 9.776 41.338C9.65693 41.5063 9.54046 41.6771 9.42657 41.8505C9.35151 41.967 9.2868 42.0887 9.21432 42.2077C9.17032 42.2802 9.17033 42.2802 9.05903 42.3423C9.09785 42.2621 9.12891 42.1948 9.16256 42.1301C9.37222 41.7263 9.51976 41.2966 9.62588 40.8514C9.64141 40.7841 9.6414 40.7117 9.64658 40.6418C9.65435 40.5175 9.61034 40.4192 9.5094 40.3596C9.4214 40.3053 9.37739 40.2276 9.36186 40.1241C9.35668 40.0904 9.34375 40.0568 9.32563 40.0283C9.23504 39.9067 9.15221 39.7773 9.04867 39.6686C8.9322 39.5469 8.88043 39.4045 8.87267 39.2389C8.93479 39.1612 8.9969 39.0914 9.05385 39.0137C9.16773 38.8636 9.32045 38.7859 9.4861 38.729C9.57929 38.6953 9.67506 38.7264 9.75529 38.773C9.86142 38.8351 9.96495 38.8325 10.0788 38.8196C10.3428 38.7911 10.5887 38.8688 10.8243 38.9878C10.8476 38.9982 10.8735 39.0163 10.8838 39.0396C10.9226 39.1172 10.9899 39.1405 11.065 39.1535C11.1194 39.1612 11.1685 39.1897 11.1944 39.2415C11.241 39.3398 11.3031 39.4408 11.3161 39.5443C11.329 39.6427 11.3652 39.7126 11.4403 39.7798C11.4118 39.829 11.3963 39.886 11.3627 39.9041C11.2772 39.9533 11.1944 40.0076 11.1064 40.0516C11.0391 40.0853 10.9511 40.093 10.8735 40.0879C10.6094 40.0723 10.4464 40.2354 10.304 40.4399C10.2678 40.4916 10.2704 40.5434 10.3014 40.5978C10.392 40.7531 10.4826 40.9084 10.581 41.0766C10.6172 41.043 10.6483 41.0223 10.6742 40.9938C10.8372 40.81 11.0003 40.6237 11.1659 40.4425C11.2384 40.3622 11.3161 40.2846 11.3989 40.2173C11.4947 40.1396 11.5723 40.0464 11.6422 39.9429C11.6551 39.9222 11.6862 39.9144 11.7095 39.8989C11.725 39.9481 11.7457 39.9584 11.7638 39.93C11.7716 39.917 11.769 39.8937 11.7716 39.8756C11.7613 39.8782 11.7483 39.8782 11.738 39.8808C11.725 39.886 11.7173 39.8963 11.7043 39.9041C11.7354 39.8471 11.7664 39.7876 11.8027 39.7333C11.8208 39.7022 11.8519 39.71 11.8803 39.7074C11.9243 39.7022 11.9631 39.6608 12.0046 39.6323C12.0123 39.6297 12.0175 39.6245 12.0227 39.6194C12.0511 39.5831 12.0796 39.5443 12.1081 39.5081L12.1029 39.5158C12.1547 39.477 12.209 39.4434 12.2582 39.402C12.2763 39.3864 12.2945 39.3605 12.2996 39.3372C12.3307 39.2259 12.4032 39.1483 12.4808 39.0629C12.5093 39.0758 12.5404 39.0862 12.5688 39.0991C12.6594 39.1431 12.6957 39.1328 12.7319 39.037C12.7422 39.0111 12.7474 38.9852 12.7526 38.9593L12.7552 38.9619C12.7862 38.949 12.8147 38.9361 12.8484 38.9852C12.7759 39.0888 12.6931 39.1897 12.6258 39.301C12.5352 39.4511 12.429 39.5831 12.3074 39.7022C12.2841 39.7255 12.2505 39.7514 12.2453 39.7824C12.2246 39.8782 12.1599 39.9403 12.1133 40.0154C12.0693 40.0853 12.0149 40.1552 11.9916 40.2328C11.9424 40.3985 11.8519 40.5356 11.7613 40.6728C11.681 40.7945 11.6085 40.9187 11.5283 41.0404C11.4507 41.1568 11.4041 41.2837 11.3911 41.426C11.3859 41.4752 11.3678 41.5218 11.3575 41.5684C11.3212 41.7392 11.285 41.9101 11.2514 42.0835C11.2462 42.1145 11.2539 42.1534 11.2669 42.1844C11.3575 42.3811 11.4532 42.5727 11.5878 42.7409C11.6267 42.7901 11.6525 42.8444 11.6732 42.904C11.7069 43.0023 11.7561 43.0955 11.8337 43.168C11.8726 43.2042 11.9036 43.2534 11.9398 43.2922C12.1055 43.4657 12.2686 43.6391 12.4394 43.8073C12.5145 43.8824 12.6076 43.9367 12.7189 43.9756C12.7267 43.9264 12.7345 43.8927 12.7371 43.8591C12.7526 43.6468 12.7681 43.4372 12.7811 43.2249C12.7992 42.9221 12.8173 42.6193 12.8328 42.3164C12.8561 41.8661 12.8794 41.4157 12.9027 40.9627C12.9105 40.7997 12.9157 40.6392 12.9208 40.4761C12.9364 39.9973 12.9493 39.5158 12.97 39.037C12.9726 38.9516 12.9493 38.8869 12.9027 38.8273L12.8975 38.8351C12.97 38.7833 12.9623 38.6979 12.9648 38.628C12.983 38.1 12.983 37.572 12.9519 37.0414C12.9338 36.7023 12.9441 36.3632 12.9312 36.0242C12.9208 35.7058 12.8975 35.39 12.8794 35.0742C12.8742 34.9836 12.8665 34.8905 12.8587 34.7999C12.8535 34.7378 12.8484 34.6756 12.8406 34.5954C12.7992 34.6083 12.7655 34.6083 12.7422 34.6265C12.5714 34.7481 12.3954 34.862 12.2401 35.0018C11.9735 35.2399 11.6965 35.4599 11.4274 35.6954C11.2332 35.8689 11.0106 35.9828 10.7466 36.0009C10.5758 36.0138 10.405 36.0086 10.2367 35.9983C10.0348 35.9828 9.82776 35.9491 9.65435 35.8171C9.5534 35.7394 9.43175 35.7006 9.33857 35.6023C9.24539 35.5013 9.15479 35.4056 9.07973 35.2865C8.94773 35.0768 8.80278 34.8775 8.66819 34.6679C8.54136 34.4712 8.40158 34.2848 8.30064 34.07C8.29546 34.057 8.28511 34.0467 8.28253 34.0311C8.24888 33.8577 8.17899 33.6972 8.11687 33.5342C8.10134 33.4954 8.09875 33.4514 8.0884 33.4099C8.08064 33.3763 8.07028 33.3426 8.05992 33.309C8.04957 33.2728 8.02369 33.2391 8.01851 33.1822C8.05216 33.1951 8.07546 33.1977 8.08581 33.2106C8.16605 33.3064 8.25923 33.3789 8.355 33.4539C8.45077 33.529 8.53618 33.617 8.6216 33.705C8.74584 33.8344 8.89338 33.8732 9.05903 33.8318C9.18845 33.8008 9.31786 33.7671 9.43952 33.7179C9.67506 33.6248 9.91059 33.529 10.141 33.4229C10.8372 33.0993 11.5335 32.7706 12.2298 32.4445C12.3695 32.3798 12.5093 32.3177 12.6491 32.2529C12.7086 32.2245 12.7681 32.1934 12.8251 32.1649C12.8354 32.1132 12.8484 32.0718 12.851 32.0329C12.8587 31.7922 12.8639 31.5541 12.8665 31.3134C12.8691 30.9536 12.8691 30.5938 12.8665 30.234C12.8665 29.8872 12.8639 29.543 12.8587 29.1961C12.8561 28.9269 12.8561 28.6603 12.8484 28.3911C12.8432 28.2281 12.8251 28.0676 12.8147 27.9045C12.8095 27.8372 12.7862 27.7829 12.7448 27.7363C12.6672 27.6509 12.5973 27.5551 12.5171 27.4723C12.3643 27.3144 12.2375 27.1358 12.1314 26.9365C12.0977 26.8718 12.0486 26.8123 11.989 26.7242C11.989 26.6958 11.989 26.6362 11.989 26.5767C12.002 26.5689 12.0149 26.5586 12.0253 26.5586C12.1236 26.5767 12.2194 26.5948 12.3178 26.6129C12.4109 26.6337 12.5015 26.6285 12.5921 26.6052C12.7785 26.5612 13.0037 26.6155 13.1564 26.7294C13.2599 26.8071 13.3634 26.8795 13.4696 26.9494C13.5524 27.0038 13.6456 27.04 13.7051 27.1358C13.7284 27.1746 13.7776 27.2005 13.819 27.216C13.9665 27.2678 14.083 27.3739 14.2021 27.4749C14.3211 27.5732 14.4505 27.6612 14.5593 27.7751C14.6473 27.8657 14.7249 27.9796 14.7819 28.0961C14.8595 28.2565 14.932 28.4248 14.976 28.6008C15.0277 28.8027 15.0381 29.002 15.007 29.2065C14.9812 29.3721 14.8957 29.4886 14.7637 29.5714C14.7353 29.5895 14.7042 29.6051 14.6757 29.618C14.6007 29.6568 14.5075 29.6568 14.4661 29.7552C14.4298 29.838 14.3341 29.8691 14.303 29.9623C14.2875 30.0114 14.2435 30.0554 14.2072 30.0943C14.127 30.1797 14.0468 30.2625 13.9614 30.3402C13.9174 30.3816 13.8785 30.4308 13.8138 30.4385C13.7388 30.4463 13.6999 30.5032 13.674 30.5731C13.6223 30.7025 13.5653 30.8294 13.555 30.9743C13.5472 31.0571 13.5162 31.14 13.511 31.2228C13.4954 31.4299 13.4903 31.6395 13.4799 31.8673C13.5472 31.8414 13.5964 31.8285 13.6456 31.8078C13.9277 31.6835 14.2072 31.5567 14.4894 31.435C14.611 31.3807 14.7353 31.3315 14.8621 31.2875C14.9449 31.259 14.9993 31.2047 15.0252 31.1193C15.0407 31.0649 15.0536 31.0105 15.0717 30.9588C15.0873 30.9044 15.1028 30.8501 15.1287 30.8009C15.152 30.7543 15.1934 30.731 15.2426 30.7284C15.2555 30.7284 15.2685 30.7284 15.2814 30.731C15.4393 30.7698 15.5325 30.687 15.592 30.5291C15.7188 30.5757 15.8379 30.6223 15.9544 30.6844C16.089 30.7569 16.221 30.8371 16.3582 30.9044C16.4539 30.951 16.5575 30.9691 16.6662 30.9743C16.8163 30.9847 16.969 31.0131 17.114 31.0571C17.321 31.1218 17.5358 31.1736 17.717 31.3134C17.7817 31.3626 17.8568 31.3988 17.8749 31.4946C17.8775 31.5127 17.8982 31.5256 17.9137 31.5386C18.0095 31.6292 18.0742 31.7353 18.1027 31.875C18.1234 31.976 18.1804 32.0692 18.214 32.1675C18.302 32.4057 18.2218 32.6334 18.0095 32.7577C17.9759 32.7784 17.9422 32.7991 17.9086 32.8198C17.8309 32.8664 17.7481 32.8871 17.6601 32.8586C17.5591 32.825 17.453 32.8198 17.3495 32.7965C17.1864 32.7577 17.0104 32.7396 16.8862 32.592C16.8655 32.5661 16.8344 32.5454 16.8059 32.5325C16.6921 32.4781 16.5756 32.429 16.4591 32.3798C16.3815 32.3461 16.309 32.3487 16.2313 32.3979C15.9311 32.5868 15.6282 32.7758 15.3228 32.9544C15.0925 33.0916 14.8569 33.2184 14.6214 33.3452C14.3263 33.5031 14.0442 33.6869 13.7646 33.8707C13.7155 33.9043 13.6689 33.9457 13.6275 33.982C13.6275 34.1166 13.6249 34.2408 13.6275 34.3676C13.6326 34.5566 13.6456 34.7481 13.6482 34.9371C13.6533 35.2477 13.6533 35.5583 13.6559 35.8689C13.6559 36.0319 13.6559 36.1924 13.6611 36.3555C13.6689 36.6298 13.6844 36.9068 13.6948 37.1812C13.6948 37.207 13.7025 37.2329 13.7103 37.2717C13.8086 37.2459 13.8552 37.163 13.9199 37.1113C13.9795 37.0621 14.0338 37.0051 14.1141 36.9301C14.0882 37.0207 14.0726 37.0776 14.0545 37.1372C13.9691 37.1734 13.9691 37.1734 13.9639 37.2588C14.0002 37.207 14.0261 37.1682 14.0519 37.132C14.1115 37.0828 14.171 37.0336 14.228 36.9818C14.3004 36.9171 14.3703 36.8473 14.4428 36.78L14.448 36.7774C14.4505 36.7618 14.4531 36.7463 14.4557 36.7308C14.4454 36.7385 14.435 36.7463 14.4247 36.7541L14.4221 36.7722ZM12.3954 39.3735C12.3902 39.3761 12.3825 39.3761 12.3799 39.3812C12.3566 39.4045 12.3566 39.4589 12.3825 39.4718C12.3902 39.477 12.4161 39.4667 12.4161 39.4641C12.4187 39.4382 12.4161 39.4123 12.4135 39.3864C12.4109 39.3812 12.4006 39.3761 12.3954 39.3735ZM12.1547 39.6944L12.165 39.6789L12.1521 39.6763L12.1547 39.6944Z" fill="currentColor"/>
<path d="M15.5429 119.977C15.5714 120.086 15.5869 120.195 15.5869 120.308C15.5869 120.435 15.605 120.562 15.618 120.686C15.6464 120.945 15.6775 121.204 15.7008 121.463C15.7137 121.603 15.706 121.618 15.6413 121.768C15.6076 121.704 15.5791 121.644 15.5455 121.574C15.5015 121.639 15.5067 121.693 15.5118 121.748C15.53 121.937 15.5403 122.125 15.5662 122.314C15.5791 122.4 15.574 122.477 15.5377 122.576C15.5015 122.503 15.4963 122.436 15.4885 122.374C15.4342 121.934 15.2892 121.528 15.1262 121.124C14.9139 120.601 14.7017 120.076 14.4894 119.553C14.4791 119.527 14.4687 119.501 14.4584 119.475C14.1271 118.831 13.8631 118.152 13.5395 117.505C13.4593 117.345 13.3816 117.182 13.2936 117.026C13.1228 116.724 12.9856 116.403 12.851 116.082C12.763 115.875 12.7527 115.885 12.5741 115.986C12.3541 116.11 12.1341 116.24 11.9089 116.353C11.4093 116.607 10.9124 116.874 10.3766 117.039C10.2756 117.07 10.1747 117.099 10.0737 117.13C9.9262 117.174 9.7709 117.151 9.62077 117.161C9.5923 117.164 9.55348 117.143 9.53277 117.12C9.46806 117.047 9.393 116.995 9.31794 116.941C9.21441 116.863 9.19369 116.729 9.13416 116.62C9.0591 116.48 9.00734 116.33 8.97887 116.17C8.94004 115.965 8.83392 115.792 8.72521 115.626C8.63461 115.489 8.54143 115.352 8.47414 115.186C8.52849 115.15 8.57508 115.116 8.62426 115.083C8.62943 115.07 8.63979 115.057 8.64238 115.044C8.64755 115.01 8.65791 114.974 8.65273 114.94C8.64238 114.821 8.67862 114.715 8.74333 114.624C8.84686 114.482 8.89086 114.327 8.83909 114.148C8.9038 114.037 8.96592 113.936 9.06687 113.858C9.16264 113.786 9.2377 113.682 9.34641 113.623C9.37229 113.607 9.393 113.571 9.40594 113.543C9.55348 113.216 9.75796 112.932 9.96243 112.647C10.2937 112.189 10.6199 111.728 10.9486 111.267C10.9822 111.221 11.0159 111.179 10.9771 111.107C10.9305 111.107 10.8787 111.097 10.8295 111.109C10.5396 111.179 10.2523 111.153 9.96761 111.068C9.7916 111.014 9.60266 110.993 9.43959 110.895C9.15229 110.724 8.85722 110.563 8.65532 110.266C8.5932 110.175 8.50778 110.105 8.43013 110.03C8.36025 109.965 8.28778 109.906 8.21013 109.849C7.95129 109.652 7.76235 109.393 7.62775 109.088C7.55528 108.925 7.43103 108.806 7.33268 108.666C7.2395 108.537 7.14373 108.412 7.05055 108.283C7.02725 108.252 7.00913 108.213 6.98584 108.172C7.04537 108.148 7.0609 108.198 7.0842 108.218C7.12043 108.249 7.1489 108.288 7.18514 108.322C7.21361 108.35 7.24726 108.376 7.27832 108.402C7.31456 108.433 7.35079 108.464 7.38703 108.495C7.41809 108.521 7.44915 108.55 7.48021 108.573C7.51645 108.601 7.55787 108.63 7.5941 108.658C7.62516 108.684 7.65622 108.71 7.68987 108.736C7.72611 108.767 7.76234 108.796 7.80117 108.824C7.83223 108.847 7.86329 108.868 7.90212 108.881C7.77011 108.622 7.52422 108.467 7.36115 108.185C7.56304 108.304 7.69763 108.462 7.92282 108.56C7.80376 108.415 7.71317 108.306 7.62775 108.192C7.54234 108.081 7.42586 107.998 7.36115 107.861C7.39221 107.879 7.42586 107.897 7.45692 107.918C7.78564 108.156 8.13765 108.35 8.49743 108.529C8.7485 108.653 9.00993 108.708 9.28429 108.702C9.48877 108.7 9.69324 108.687 9.89514 108.648C9.9262 108.643 9.95725 108.63 9.9909 108.62C9.99349 108.594 10.0038 108.57 9.99608 108.555C9.85631 108.244 9.71913 107.931 9.57677 107.623C9.46548 107.382 9.32311 107.165 9.14969 106.966C8.99957 106.792 8.85204 106.608 8.73297 106.404C8.64756 106.256 8.51296 106.142 8.40166 106.016C8.31625 105.92 8.23084 105.824 8.14542 105.728L8.14024 105.734C8.17906 105.734 8.2153 105.734 8.25413 105.734C8.26189 105.736 8.27225 105.741 8.28001 105.744C8.26966 105.741 8.25931 105.739 8.24895 105.736C8.26189 105.715 8.27224 105.692 8.28519 105.671L8.28001 105.674C8.44049 105.664 8.59061 105.705 8.73815 105.772C8.80285 105.801 8.88051 105.811 8.95039 105.811C9.28429 105.801 9.56642 105.956 9.83561 106.137C9.87961 106.168 9.91844 106.194 9.97279 106.21C10.0608 106.233 10.1462 106.277 10.2342 106.311C10.3999 106.378 10.5759 106.425 10.7286 106.523C10.8502 106.601 11.0004 106.624 11.1013 106.743C11.1091 106.753 11.122 106.758 11.135 106.764C11.2437 106.808 11.3524 106.849 11.4611 106.896C11.5284 106.924 11.5879 106.955 11.6293 107.03C11.6656 107.092 11.7329 107.139 11.7898 107.186C11.8649 107.245 11.9399 107.299 11.9658 107.406C11.9736 107.437 12.0021 107.46 12.0202 107.486C12.103 107.463 12.1574 107.411 12.2065 107.356C12.2505 107.307 12.2712 107.222 12.323 107.191C12.4032 107.142 12.3722 107.051 12.4136 106.989C12.5042 106.955 12.5974 106.924 12.6931 106.89C12.732 106.955 12.7837 106.986 12.8536 106.937C12.8976 106.906 12.939 106.872 12.9804 106.841C13.0633 106.782 13.1461 106.766 13.2393 106.818C13.3118 106.859 13.3946 106.878 13.4722 106.911C13.5499 106.947 13.6249 107.004 13.7052 107.025C13.7854 107.046 13.8786 107.051 13.9588 107.033C14.0572 107.012 14.1504 106.994 14.2513 106.991C14.3367 106.991 14.4247 106.984 14.505 106.96C14.6137 106.929 14.712 106.945 14.8078 106.994C14.8156 107.007 14.8259 107.017 14.8259 107.03C14.8259 107.064 14.8078 107.111 14.8233 107.131C14.8518 107.165 14.8932 107.193 14.9372 107.206C14.9864 107.222 15.0434 107.217 15.0925 107.232C15.1288 107.243 15.1598 107.274 15.1909 107.297C15.2116 107.356 15.209 107.408 15.1676 107.457C15.1339 107.496 15.121 107.548 15.0563 107.563C14.9761 107.582 14.901 107.633 14.8156 107.672C14.8363 107.716 14.8492 107.76 14.8725 107.789C14.9295 107.856 14.9269 107.931 14.9113 108.006C14.8881 108.123 14.8466 108.236 14.8233 108.353C14.8078 108.438 14.7638 108.493 14.6965 108.529C14.6266 108.568 14.5645 108.614 14.5024 108.669C14.3782 108.78 14.2254 108.837 14.065 108.855C13.9071 108.873 13.7699 108.925 13.6767 109.072C13.5395 109.153 13.467 109.303 13.3557 109.412C13.2496 109.518 13.1383 109.616 13.027 109.72C13.0037 109.743 12.983 109.769 12.9597 109.792C12.9597 109.818 12.9546 109.841 12.9597 109.859C13.0659 110.217 13.1332 110.584 13.2341 110.941C13.3506 111.361 13.4308 111.788 13.5628 112.202C13.612 112.354 13.6534 112.512 13.7 112.665C13.7104 112.696 13.7311 112.725 13.7544 112.769C13.7777 112.74 13.8009 112.725 13.8087 112.701C13.8268 112.65 13.8398 112.593 13.8527 112.546C13.9071 112.476 13.9795 112.499 14.0417 112.497C14.1064 112.494 14.1685 112.502 14.2384 112.505C14.2332 112.479 14.228 112.455 14.2228 112.424C14.2746 112.378 14.3186 112.448 14.3678 112.435C14.4118 112.424 14.4584 112.43 14.4998 112.427C14.5464 112.396 14.505 112.36 14.5127 112.331C14.5205 112.3 14.5386 112.272 14.5542 112.235C14.6137 112.259 14.6706 112.241 14.7276 112.155C14.7146 112.225 14.7069 112.259 14.6991 112.298C14.7923 112.31 14.8026 112.204 14.8958 112.184C14.9812 112.202 15.0899 112.222 15.1961 112.254C15.2711 112.274 15.3255 112.248 15.3747 112.197C15.4187 112.15 15.4342 112.093 15.4031 112.031C15.442 112.002 15.4653 112.028 15.4885 112.054C15.5093 112.075 15.5377 112.09 15.5843 112.122C15.574 112.057 15.5688 112.018 15.561 111.966C15.605 111.977 15.6568 111.971 15.6749 111.997C15.75 112.093 15.8535 112.096 15.957 112.122C16.0683 112.052 16.1822 111.982 16.322 112.008C16.4799 111.94 16.6481 111.964 16.8112 111.94C16.9458 111.922 17.0778 111.935 17.2072 112.018C17.2926 112.072 17.3858 112.129 17.4919 112.155C17.6576 112.194 17.7585 112.349 17.8931 112.445C17.9086 112.562 18.0381 112.631 18.007 112.766C17.9837 112.857 18.0795 112.898 18.0872 112.983C18.0639 113.064 17.9811 113.071 17.9164 113.121C17.9035 113.159 17.8828 113.203 17.875 113.25C17.8569 113.338 17.8077 113.408 17.7456 113.457C17.6265 113.548 17.5282 113.662 17.4246 113.768C17.4013 113.791 17.3729 113.809 17.3444 113.827C17.3159 113.845 17.2771 113.858 17.2616 113.884C17.1839 114.024 17.0467 114.039 16.9199 114.065C16.674 114.115 16.4307 114.187 16.177 114.172C16.089 114.166 16.0088 114.192 15.9312 114.236C15.7733 114.324 15.6128 114.41 15.4523 114.492C15.1779 114.635 14.9036 114.772 14.6318 114.912C14.6085 114.925 14.5878 114.94 14.5697 114.951C14.5438 115.028 14.5619 115.098 14.58 115.165C14.637 115.375 14.6965 115.582 14.756 115.792C14.7664 115.825 14.7819 115.862 14.7768 115.895C14.7638 116.03 14.8233 116.141 14.8648 116.258C14.9036 116.369 14.9424 116.48 14.9838 116.592C15.0097 116.664 15.0434 116.731 15.0692 116.804C15.1081 116.907 15.1521 117.008 15.1728 117.122C15.1883 117.21 15.2297 117.293 15.2608 117.376C15.2504 117.404 15.1961 117.397 15.2064 117.446C15.2168 117.487 15.2142 117.531 15.2271 117.57C15.3591 118.013 15.4911 118.453 15.6205 118.895C15.6464 118.981 15.6697 119.076 15.662 119.164C15.6542 119.263 15.6827 119.343 15.7111 119.426C15.737 119.503 15.7733 119.584 15.7577 119.672C15.7551 119.692 15.7551 119.716 15.7629 119.734C15.8432 119.998 15.8276 120.275 15.8509 120.547C15.8639 120.715 15.8768 120.883 15.8509 121.051C15.8483 121.072 15.8406 121.09 15.838 121.106C15.7888 121.113 15.7733 121.082 15.7681 121.046C15.75 120.914 15.7396 120.78 15.7163 120.648C15.6879 120.482 15.6542 120.316 15.618 120.151C15.605 120.091 15.5662 120.039 15.5403 119.982C15.5403 119.92 15.5429 119.858 15.5429 119.796C15.5196 119.734 15.4989 119.669 15.4704 119.607C15.4601 119.586 15.4394 119.568 15.4238 119.55C15.4187 119.498 15.4161 119.444 15.4109 119.392C15.3928 119.333 15.3772 119.273 15.354 119.216C15.3462 119.195 15.3177 119.185 15.2996 119.172C15.3048 119.159 15.3151 119.149 15.3151 119.136C15.3151 119.128 15.3022 119.12 15.2944 119.113C15.2918 119.118 15.2892 119.126 15.2892 119.131C15.2918 119.144 15.297 119.157 15.3022 119.17C15.3203 119.229 15.3358 119.289 15.3591 119.346C15.3669 119.366 15.3928 119.377 15.4109 119.392C15.3824 119.449 15.3902 119.498 15.4264 119.547C15.442 119.612 15.4575 119.679 15.4704 119.744C15.4782 119.788 15.5144 119.788 15.5429 119.799C15.5118 119.856 15.517 119.918 15.5429 119.977ZM11.135 111.562C11.091 111.594 11.0444 111.612 11.0159 111.648C10.8942 111.798 10.7674 111.943 10.6639 112.103C10.5189 112.331 10.3248 112.518 10.2135 112.771C10.2083 112.784 10.198 112.795 10.1902 112.805C10.0504 112.991 9.91067 113.178 9.77348 113.367C9.55089 113.675 9.49135 114.027 9.52241 114.404C9.53277 114.524 9.56901 114.565 9.6829 114.58C9.78125 114.593 9.87961 114.599 9.98056 114.596C10.33 114.593 10.6742 114.505 11.0237 114.487C11.0366 114.487 11.0495 114.48 11.0625 114.474C11.2307 114.415 11.4016 114.355 11.5698 114.301C11.6837 114.265 11.7976 114.239 11.9115 114.203C11.9529 114.19 11.9891 114.161 12.0331 114.135C11.7562 113.323 11.4844 112.523 11.2126 111.723C11.1945 111.669 11.1634 111.619 11.135 111.562Z" fill="currentColor"/>
<path d="M9.14715 95.2015C9.19633 95.2119 9.24551 95.2248 9.31022 95.2403C9.34646 95.186 9.38528 95.1316 9.41893 95.0695C9.72435 94.4923 10.0401 93.9203 10.33 93.3353C10.5915 92.8125 10.8063 92.2663 10.9538 91.6917C10.9745 91.6115 10.9978 91.5287 10.9926 91.4407C10.8917 91.3604 10.7804 91.3242 10.6665 91.2957C10.5785 91.275 10.4983 91.3009 10.4284 91.3656C10.2757 91.5028 10.1488 91.6658 10.022 91.8263C9.76836 92.1499 9.55611 92.5096 9.32057 92.8487C9.31539 92.8539 9.31281 92.8591 9.31022 92.8668C9.25845 92.9548 9.26104 92.9781 9.3361 93.0998C9.27915 93.1956 9.19374 93.2887 9.17045 93.3974C9.14198 93.5269 9.01256 93.6356 9.08503 93.7883C9.04103 93.8815 9.07986 93.9643 9.1135 94.0471C9.13421 94.1041 9.13162 94.1532 9.08762 94.2024C9.01773 94.2775 8.97373 94.3732 8.94267 94.4742C8.92197 94.5363 8.89608 94.5907 8.85208 94.6347C8.79255 94.6942 8.69678 94.7227 8.70454 94.8391C8.70454 94.8443 8.69937 94.8521 8.69419 94.8573C8.44054 95.0902 8.17135 95.2869 7.80898 95.2481C7.78309 95.2455 7.75721 95.2352 7.73133 95.2403C7.54238 95.2688 7.37414 95.1963 7.19554 95.1472C6.96518 95.0825 6.78658 94.9272 6.58211 94.8133C6.51999 94.777 6.46563 94.7201 6.41645 94.6631C6.32586 94.5518 6.23526 94.438 6.15761 94.3163C6.04373 94.1403 5.89619 93.9979 5.74089 93.8711C5.57265 93.7313 5.44841 93.5683 5.38111 93.3534C5.36558 93.2991 5.34487 93.2473 5.3164 93.2007C5.16628 92.9445 5.02392 92.6805 4.84274 92.4449C4.8065 92.3983 4.75732 92.3569 4.75991 92.2767C4.85309 92.2586 4.89968 92.3466 4.96698 92.3776C5.03169 92.4113 5.0964 92.4449 5.16111 92.4812C5.19734 92.4423 5.16628 92.4139 5.14816 92.3906C5.09639 92.3259 5.04204 92.2663 4.99028 92.2016C4.96957 92.1757 4.94627 92.1473 4.98251 92.1033C4.99804 92.1059 5.01875 92.1059 5.03169 92.1136C5.22064 92.243 5.41735 92.3569 5.62183 92.4605C5.81337 92.5562 5.99973 92.6624 6.1835 92.7737C6.44233 92.9315 6.71928 92.9574 7.00659 92.929C7.3146 92.9005 7.59933 92.7995 7.87887 92.6624C8.23347 92.4889 8.56218 92.2663 8.8909 92.0412C8.93491 92.0127 8.9815 91.9842 9.03068 91.9687C9.07985 91.9531 9.11351 91.9324 9.13163 91.8781C9.1368 91.86 9.1575 91.8315 9.16786 91.8341C9.28951 91.8626 9.33093 91.7331 9.41375 91.6865C9.49399 91.6425 9.5587 91.5675 9.62858 91.5028C9.70623 91.4303 9.75541 91.3294 9.83047 91.2517C9.87706 91.2051 9.89777 91.1352 9.88742 91.0576C9.88224 91.0032 9.90036 90.9489 9.90554 90.8919C9.91071 90.8143 9.95471 90.7599 10.0091 90.7211C10.1178 90.6434 10.2317 90.571 10.343 90.4959C10.3585 90.4856 10.3792 90.4752 10.3973 90.47C10.5682 90.4364 10.682 90.3328 10.7286 90.1413C10.8011 90.1594 10.8658 90.1724 10.9279 90.1905C10.9823 90.206 11.0315 90.206 11.0781 90.1698C11.1842 90.0869 11.3188 90.0973 11.4352 90.0507C11.4534 90.0429 11.4767 90.0404 11.4948 90.0455C11.6216 90.0947 11.7536 90.0766 11.8856 90.0766C11.9193 90.0766 11.9529 90.0818 11.9814 90.0973C12.1082 90.1594 12.2402 90.1957 12.3774 90.2319C12.4318 90.2448 12.4784 90.294 12.5275 90.3303C12.5974 90.3846 12.6569 90.4493 12.7294 90.4985C12.9417 90.6434 13.1384 90.8117 13.3662 90.9282C13.4179 90.9541 13.4671 91.0006 13.4956 91.0524C13.537 91.1275 13.6017 91.1741 13.6586 91.231C13.7803 91.3475 13.9097 91.4588 13.9925 91.6167C14.0055 91.64 14.0184 91.6658 14.0339 91.6865C14.1634 91.8496 14.1815 92.0386 14.1634 92.243C14.1478 92.4268 14.065 92.5769 13.9718 92.7219C13.9485 92.7555 13.9175 92.784 13.8993 92.8228C13.8579 92.9186 13.7906 92.9574 13.6975 92.9652C13.568 92.9755 13.4697 93.0428 13.3791 93.149C13.1306 93.4518 12.8718 93.7417 12.6155 94.0368C12.5845 94.073 12.5431 94.0963 12.5016 94.1222C12.3515 94.218 12.2376 94.3525 12.1367 94.5001C12.0357 94.6476 11.9244 94.7848 11.8054 94.9168C11.6993 95.0333 11.6009 95.1575 11.5129 95.2869C11.3731 95.4914 11.2437 95.7062 11.1091 95.9133C11.0392 96.022 10.9486 96.1204 10.9279 96.2653C11.0237 96.3973 11.1557 96.4905 11.2877 96.5837C11.5802 96.7908 11.8727 96.9952 12.1677 97.1945C12.4292 97.3706 12.6958 97.5414 12.9624 97.7148C13.1047 97.8054 13.2497 97.8908 13.3894 97.9814C13.5913 98.1134 13.8036 98.2299 14.0236 98.3282C14.2488 98.4292 14.4636 98.5534 14.6914 98.6518C14.9968 98.7838 15.31 98.9003 15.618 99.0219C15.8484 99.1125 16.0761 99.2083 16.3065 99.2937C16.7181 99.4464 17.1374 99.5706 17.567 99.6509C17.7146 99.6793 17.8647 99.6975 18.0485 99.7259C17.9449 99.7492 17.8776 99.7622 17.8052 99.7803C17.8077 99.8191 17.8052 99.8476 17.8103 99.8735C17.8129 99.8942 17.8259 99.9123 17.8362 99.9408C17.9035 99.9511 17.9734 99.9641 18.0614 99.9796C17.9838 100 17.9216 100.016 17.8543 100.034C17.9009 100.112 17.976 100.062 18.0226 100.109C17.9216 100.161 17.8259 100.213 17.7172 100.267C17.7379 100.285 17.7508 100.295 17.7715 100.313C17.7638 100.324 17.756 100.347 17.743 100.35C17.4894 100.438 17.2694 100.596 17.039 100.73C16.9665 100.772 16.907 100.826 16.8941 100.919C16.8837 100.997 16.8294 101.025 16.7672 101.028C16.6948 101.03 16.6249 101.043 16.5421 101.072C16.5653 101.113 16.5861 101.144 16.6042 101.178C16.5395 101.271 16.4566 101.331 16.3453 101.351C16.2755 101.364 16.2082 101.398 16.1434 101.432C16.0399 101.483 15.939 101.525 15.8225 101.525C15.6801 101.525 15.5559 101.597 15.4342 101.667C15.3385 101.724 15.2427 101.755 15.1314 101.742C15.0589 101.732 14.9865 101.734 14.914 101.74C14.7716 101.745 14.6422 101.688 14.5076 101.657C14.4662 101.646 14.43 101.605 14.3963 101.571C14.3109 101.489 14.2229 101.429 14.0987 101.434C14.0132 101.439 13.933 101.406 13.8605 101.346C13.7441 101.253 13.6224 101.168 13.5266 101.051C13.5059 101.025 13.4749 101.007 13.449 100.989C13.4205 100.968 13.3894 100.955 13.3662 100.932C13.172 100.722 12.9494 100.544 12.7864 100.301C12.6233 100.062 12.4499 99.8321 12.2739 99.6017C12.1005 99.3713 11.9219 99.1436 11.7433 98.9184C11.4094 98.4965 11.0781 98.0772 10.7416 97.6604C10.6587 97.5595 10.5733 97.4611 10.4827 97.368C10.4258 97.3084 10.3559 97.3317 10.33 97.412C10.3274 97.4197 10.3274 97.4249 10.3274 97.4327C10.3067 97.6061 10.2187 97.7303 10.0893 97.8287C10.0453 97.8623 10.0065 97.896 9.99095 97.9555C9.98318 97.9788 9.96248 98.0099 9.94178 98.0176C9.84601 98.0539 9.80718 98.1496 9.74247 98.2273C9.76835 98.2506 9.79165 98.2713 9.82013 98.2972C9.79424 98.336 9.77094 98.3774 9.74247 98.4137C9.73212 98.4292 9.70623 98.4421 9.69329 98.4395C9.56387 98.4111 9.50176 98.512 9.43705 98.5974C9.38269 98.6673 9.35422 98.7553 9.28175 98.8123C9.26622 98.8252 9.27657 98.8744 9.27398 98.908C9.11092 99.0452 8.92973 99.1591 8.79773 99.3377C8.73302 99.4257 8.6476 99.4982 8.56478 99.5655C8.31888 99.7674 8.08334 99.9848 7.81157 100.145C7.70286 100.21 7.58638 100.262 7.47508 100.319C7.40778 100.282 7.34825 100.251 7.28354 100.218C7.25507 100.246 7.2266 100.272 7.19554 100.298C7.18001 100.311 7.15931 100.337 7.14895 100.332C7.06613 100.295 7.02212 100.383 6.95224 100.396C6.88235 100.409 6.81764 100.451 6.74776 100.471C6.6934 100.487 6.63387 100.484 6.57175 100.492C6.57434 100.458 6.57693 100.433 6.58211 100.399C6.56658 100.396 6.54587 100.383 6.53034 100.389C6.33621 100.456 6.14726 100.541 5.94278 100.567C5.72795 100.684 5.48723 100.71 5.26205 100.787C5.21287 100.805 5.15851 100.816 5.10675 100.826C4.84015 100.87 4.57355 100.917 4.30436 100.955C4.21377 100.968 4.12059 100.974 4.02999 100.974C3.70128 100.976 3.36997 100.981 3.04125 100.976C2.93254 100.974 2.82383 100.942 2.72029 100.927C2.70476 100.849 2.74359 100.834 2.785 100.834C2.84453 100.834 2.90407 100.844 2.96619 100.849C3.00501 100.813 3.04125 100.777 3.08267 100.738C3.26644 100.785 3.45021 100.79 3.63398 100.777C3.72716 100.769 3.81775 100.764 3.90317 100.715C3.97047 100.676 4.04035 100.681 4.10506 100.681C4.12318 100.71 4.13612 100.733 4.15683 100.764C4.19824 100.73 4.23448 100.702 4.27848 100.666C4.39237 100.707 4.50366 100.676 4.61237 100.619C4.80909 100.521 5.02134 100.456 5.19993 100.319C5.25946 100.272 5.31381 100.223 5.37335 100.179C5.44841 100.122 5.52088 100.062 5.60112 100.018C5.78231 99.9149 5.95055 99.7932 6.10326 99.6509H6.10067C6.12138 99.6353 6.14209 99.6198 6.1602 99.6017C6.20162 99.5655 6.17573 99.5499 6.14208 99.537L6.14727 99.5422C6.14727 99.5085 6.14727 99.4749 6.14727 99.4283C6.24562 99.4024 6.30256 99.3403 6.36209 99.26C6.4501 99.1384 6.56916 99.0478 6.67528 98.9391C6.81764 98.7941 6.95483 98.6414 7.10237 98.4991C7.20072 98.4059 7.30942 98.3256 7.41037 98.2351C7.47508 98.1781 7.54238 98.1212 7.5372 98.0125C7.53462 97.9788 7.57085 97.94 7.59673 97.9089C7.85039 97.5854 8.10146 97.2567 8.32147 96.9047C8.61137 96.4439 8.8935 95.9754 9.17821 95.5095C9.20669 95.4629 9.23257 95.4164 9.25845 95.3698C9.22739 95.3154 9.19633 95.2662 9.16527 95.2145L9.14715 95.2015ZM6.61316 99.1798C6.43457 99.2704 6.43457 99.2704 6.40868 99.3506C6.46563 99.3092 6.51222 99.2756 6.55881 99.2367C6.57952 99.2212 6.59505 99.2005 6.61316 99.1798Z" fill="currentColor"/>
<path d="M10.7777 77.016C10.7518 77.0419 10.7259 77.0703 10.7 77.0962V77.1014C10.6353 77.047 10.6353 77.047 10.612 77.1247V77.1195C10.4334 77.1687 10.3066 77.3059 10.1824 77.4353C10.1151 77.5052 10.0322 77.5466 9.96754 77.6165C9.9546 77.6294 9.93131 77.645 9.91578 77.6398C9.85107 77.6243 9.81483 77.6657 9.78377 77.7097C9.67506 77.8494 9.54823 77.9607 9.38516 78.0358C9.26351 78.0927 9.16256 78.1963 9.05385 78.2817C9.01762 78.3102 8.98397 78.3153 8.94515 78.2895L8.94773 78.2946C8.95291 78.2299 8.9995 78.2066 9.0435 78.1756C9.10821 78.129 9.17292 78.0798 9.22468 78.0203C9.27386 77.9633 9.30493 77.8909 9.39034 77.896C9.4654 77.7847 9.6207 77.7614 9.65952 77.6087C9.66988 77.5725 9.7113 77.5492 9.73718 77.5181C9.78118 77.469 9.84071 77.4301 9.85365 77.3576C9.87177 77.3525 9.89248 77.3551 9.90542 77.3447C9.91577 77.3369 9.91318 77.3137 9.91836 77.2981C9.90283 77.3033 9.88212 77.3007 9.87177 77.3111C9.86142 77.324 9.86142 77.3447 9.85883 77.3628C9.79412 77.3602 9.75012 77.4042 9.70612 77.4457C9.56376 77.5777 9.4214 77.7071 9.26351 77.821C9.20656 77.8624 9.16257 77.9271 9.10821 77.9789C8.97362 78.1109 8.83385 78.2377 8.70184 78.3697C8.6656 78.4059 8.63713 78.4551 8.60607 78.4991H8.60348C8.47407 78.5535 8.36535 78.6415 8.26958 78.745C8.10393 78.9262 7.90204 79.053 7.7105 79.1954C7.65873 79.2342 7.60438 79.2834 7.53191 79.2471L7.53709 79.2523C7.79333 79.0504 8.04699 78.8511 8.27994 78.6208C8.48442 78.4189 8.69407 78.2247 8.89338 78.0203C9.09268 77.8158 9.28422 77.601 9.47575 77.3887C9.50164 77.3602 9.51717 77.3214 9.55599 77.2515C9.49905 77.2722 9.47575 77.2748 9.45763 77.2904C9.43175 77.3111 9.40587 77.3344 9.38258 77.3602C9.28163 77.4871 9.14962 77.5052 9.00726 77.4741C9.00468 77.4741 9.00209 77.4638 8.99433 77.4482C9.00209 77.4379 9.01244 77.4224 9.02538 77.4094C9.06162 77.3784 9.10562 77.3551 9.13151 77.3162C9.22986 77.1739 9.32046 77.0289 9.41364 76.884C9.41881 76.7934 9.52752 76.7882 9.54305 76.6976C9.53011 76.6847 9.51199 76.6692 9.49387 76.6536C9.49646 76.6407 9.49646 76.6226 9.50164 76.6122C9.79671 76.2395 10.0555 75.8409 10.3014 75.4293C10.6043 74.9246 10.8864 74.4069 11.1789 73.8919C11.3834 73.5295 11.5904 73.1671 11.7923 72.8048C11.8726 72.6598 11.9528 72.5123 12.0253 72.3621C12.3851 71.6141 12.7474 70.8687 13.0968 70.1181C13.2521 69.7842 13.3816 69.4347 13.5213 69.0931C13.5886 68.93 13.6145 68.7566 13.6456 68.5832C13.6637 68.4796 13.6326 68.402 13.5524 68.3476C13.423 68.2596 13.2961 68.1742 13.1641 68.0914C13.1072 68.0551 13.0477 68.0241 12.9881 67.9956C12.7862 67.9024 12.5999 67.9723 12.4161 68.0577C12.1832 68.1664 11.9813 68.3217 11.8027 68.5133C11.6551 68.6738 11.5102 68.8394 11.3575 68.9947C11.0805 69.2717 10.8605 69.5926 10.6612 69.9369C10.5991 70.0456 10.524 70.1439 10.4567 70.2475C10.4283 70.2941 10.3869 70.3407 10.3817 70.3924C10.3687 70.527 10.2963 70.6228 10.2264 70.7263C10.0918 70.9256 9.97013 71.1379 9.83295 71.3346C9.61035 71.6555 9.41104 71.9972 9.16774 72.3052C9.06162 72.4398 8.97103 72.5873 8.85973 72.7167C8.81055 72.7737 8.75101 72.8229 8.70442 72.8798C8.63195 72.9704 8.56725 73.0662 8.49995 73.1568C8.42489 73.2551 8.34982 73.3509 8.27735 73.4441C8.27735 73.5942 8.27476 73.7417 8.27735 73.8893C8.27994 74.0368 8.23853 74.1662 8.15311 74.2801C8.12723 74.3138 8.10134 74.3448 8.08322 74.3811C7.96675 74.614 7.78298 74.702 7.54485 74.6761C7.4672 74.6684 7.38696 74.6684 7.30672 74.658C7.16177 74.6399 7.0246 74.5907 6.90036 74.5001C6.89 74.4924 6.87964 74.4768 6.86929 74.4768C6.62857 74.4561 6.50434 74.2439 6.33351 74.1067C6.16268 73.9695 6.0462 73.778 5.92714 73.5916C5.89867 73.5476 5.8676 73.5191 5.82619 73.4958C5.68124 73.4078 5.54924 73.3043 5.43276 73.1775C5.35252 73.0921 5.28782 72.9963 5.2464 72.8824C5.22569 72.8255 5.19981 72.7633 5.16099 72.7193C5.0471 72.5925 5.03415 72.445 5.07298 72.2871C5.08851 72.2276 5.11957 72.1706 5.14545 72.1137C5.19981 71.9868 5.21793 71.8626 5.17134 71.7254C5.04192 71.3553 4.91509 70.9851 4.79085 70.6124C4.71579 70.3872 4.64073 70.1595 4.56567 69.9343C4.54496 69.8747 4.52166 69.8178 4.50096 69.7583C4.44919 69.6082 4.39225 69.458 4.34825 69.3027C4.33272 69.2535 4.34307 69.1914 4.35601 69.1397C4.36378 69.1138 4.40001 69.0957 4.43108 69.0672C4.4026 69.0206 4.37154 68.9688 4.33789 68.9145C4.37413 68.8912 4.40001 68.8731 4.42848 68.8575C4.53461 68.8084 4.64332 68.8006 4.74685 68.8653C4.78568 68.8912 4.82968 68.9119 4.86591 68.9378C4.98757 69.0232 5.11181 69.0931 5.25417 69.1448C5.37064 69.1863 5.47935 69.2665 5.56994 69.3545C5.64759 69.427 5.73042 69.4813 5.82619 69.5072C6.0022 69.5538 6.1342 69.6625 6.25844 69.7919C6.3568 69.8955 6.46292 69.9938 6.56646 70.0896C6.6234 70.1413 6.66999 70.1983 6.70105 70.2708C6.80976 70.5193 6.91848 70.7677 7.02977 71.0162C7.03754 71.0343 7.05306 71.0499 7.06342 71.0628C7.12295 71.0939 7.17213 71.0576 7.21872 71.0369C7.63285 70.848 8.02111 70.6073 8.40159 70.3484C8.51807 70.2682 8.63713 70.1931 8.75102 70.1103C8.84938 70.0404 8.94255 69.9628 9.03832 69.8877C9.11339 69.8282 9.18327 69.7635 9.26092 69.7091C9.64918 69.4373 10.0064 69.1241 10.3636 68.8109C10.5887 68.6142 10.8217 68.4253 11.0417 68.2234C11.2721 68.0111 11.5309 67.8403 11.782 67.6591C11.9243 67.5556 12.0615 67.4495 12.2142 67.3692C12.2971 67.3252 12.3851 67.2916 12.4679 67.2502C12.5688 67.1984 12.6775 67.157 12.7681 67.0897C12.9441 66.9577 13.1434 66.924 13.3505 66.9059C13.4825 66.893 13.6119 66.8723 13.7439 66.8645C13.9018 66.8542 14.0597 66.8516 14.2176 66.8516C14.3289 66.8516 14.4428 66.8671 14.5541 66.8593C14.7146 66.8516 14.8699 66.8852 15.0226 66.9266C15.2503 66.9862 15.4548 67.1078 15.6334 67.2657C15.7706 67.3874 15.8974 67.5219 16.0268 67.6514C16.2003 67.8248 16.3659 68.006 16.5445 68.1742C16.6972 68.3192 16.8422 68.4719 16.9742 68.6401C17.0104 68.6893 17.0467 68.7436 17.0674 68.8006C17.1243 68.9429 17.1735 69.0879 17.2201 69.2354C17.2304 69.2665 17.2278 69.3053 17.2227 69.339C17.1968 69.4684 17.1787 69.6004 17.1683 69.735C17.1631 69.8256 17.1062 69.9213 17.0518 69.9964C16.9949 70.0741 16.9509 70.1569 16.9095 70.2449C16.8758 70.3199 16.8292 70.4002 16.7645 70.4416C16.6429 70.5244 16.5626 70.6435 16.4824 70.76C16.3737 70.9179 16.2546 71.068 16.177 71.2492C16.1537 71.3061 16.1123 71.3553 16.0786 71.407C15.8948 71.6892 15.7214 71.9843 15.5221 72.2509C15.3332 72.5045 15.1675 72.7763 14.9475 73.0066C14.8595 73.0998 14.7767 73.2034 14.6939 73.2991C14.6654 73.3302 14.6524 73.3276 14.5903 73.2784C14.5644 73.3017 14.5308 73.3224 14.5075 73.3535C14.3833 73.5088 14.2642 73.6693 14.1425 73.8272C14.127 73.8479 14.1141 73.8789 14.0908 73.8919C14.0468 73.9177 13.9847 73.9229 13.9536 73.9592C13.9174 74.0032 13.8863 74.0446 13.8345 74.0653C13.8112 74.0756 13.7802 74.0808 13.7646 74.1015C13.6508 74.2283 13.5394 74.3578 13.4282 74.4872C13.379 74.5441 13.3401 74.6088 13.291 74.6658C13.1848 74.79 13.0761 74.9117 12.9804 75.0463C12.9105 75.1446 12.8225 75.2404 12.7215 75.3025C12.5507 75.406 12.4239 75.5536 12.2919 75.7011C12.2789 75.7166 12.266 75.7322 12.253 75.7477C12.1806 75.771 12.1314 75.7244 12.0693 75.6856C11.9399 75.8978 11.7431 76.0428 11.5801 76.2265C11.417 76.4103 11.241 76.5786 11.0676 76.7572C11.0391 76.7339 11.021 76.7183 10.9951 76.695C10.9226 76.7494 10.8579 76.8167 10.8062 76.8995C10.7803 76.928 10.7466 76.9539 10.7259 76.9875C10.7156 77.0186 10.7544 77.0108 10.7777 77.016Z" fill="currentColor"/>
<path d="M7.74167 6.53011C7.66402 6.688 7.59672 6.81741 7.48801 6.92871C7.36118 7.05813 7.25506 7.20825 7.14635 7.35579C7.10752 7.41015 7.08423 7.48003 7.06093 7.54474C7.02729 7.63015 6.99881 7.71816 6.92375 7.77251C6.84092 7.83204 6.79951 7.91487 6.77881 8.01323C6.7581 8.11935 6.71409 8.20477 6.63903 8.28242C6.56397 8.36007 6.50702 8.45583 6.45008 8.5516C6.35172 8.71726 6.25854 8.88809 6.16536 9.05892C6.14207 9.10033 6.13172 9.1521 6.10324 9.19092C6.0023 9.33328 5.94018 9.49635 5.88582 9.662C5.80558 9.9079 5.70723 10.1486 5.68134 10.4126C5.67875 10.454 5.66581 10.4954 5.66322 10.5369C5.65805 10.6482 5.65546 10.7595 5.65028 10.8863C5.68911 10.8759 5.72534 10.8811 5.74605 10.863C5.88582 10.7362 6.05407 10.6663 6.22749 10.63C6.40608 10.5912 6.59503 10.5835 6.76068 10.7103C6.8021 10.7413 6.85386 10.7569 6.90563 10.7698C6.98846 10.7931 7.07128 10.8112 7.15411 10.8293C7.36894 10.8785 7.53201 11.0209 7.69507 11.1684C7.77013 11.1762 7.84779 11.1839 7.93061 11.1917C7.9565 11.2357 7.98756 11.2745 8.00309 11.3185C8.03932 11.4169 7.98497 11.5437 7.88662 11.5411C7.79344 11.5386 7.72355 11.6162 7.62002 11.5955C7.54754 11.58 7.46989 11.6421 7.42847 11.7197C7.31718 11.9216 7.16964 12.0925 7.01952 12.2607C6.96516 12.3228 6.91857 12.3927 6.86939 12.4574C6.85645 12.4729 6.85128 12.4962 6.83575 12.5092C6.67009 12.6412 6.5795 12.8457 6.43196 12.9958C6.32584 13.1019 6.2249 13.2158 6.11101 13.309C5.98936 13.4099 5.88841 13.5238 5.80299 13.6636C5.76935 13.7205 5.74864 13.7723 5.75641 13.8396C5.76935 13.9509 5.77711 14.0648 5.79264 14.1761C5.83146 14.4401 5.85735 14.7067 5.84958 14.9759C5.84699 15.038 5.85735 15.1001 5.86253 15.1804C5.90653 15.1571 5.93759 15.1493 5.9583 15.1286C6.13172 14.9655 6.31031 14.8076 6.47079 14.629C6.73221 14.3391 6.98328 14.0389 7.23694 13.7412C7.30682 13.6584 7.37412 13.5678 7.43366 13.4772C7.48025 13.4047 7.53977 13.3452 7.61483 13.3193C7.68472 13.296 7.72614 13.2494 7.76237 13.1899C7.81414 13.1097 7.87108 13.0372 7.94614 12.9751C7.95132 12.9958 7.96167 13.0139 7.9565 13.0217C7.92544 13.076 7.89956 13.133 7.86073 13.1796C7.77532 13.2805 7.72355 13.4022 7.65625 13.516C7.45177 13.8629 7.268 14.2201 7.09717 14.585C7.01175 14.7662 6.93669 14.9552 6.85128 15.1363C6.79433 15.2632 6.72962 15.3874 6.67009 15.5117C6.56138 15.7368 6.45008 15.962 6.34137 16.1872C6.32326 16.2235 6.29996 16.2649 6.29996 16.3037C6.30255 16.459 6.23784 16.591 6.17831 16.723C6.14984 16.7851 6.12913 16.8498 6.10324 16.9171C6.14466 16.9663 6.1783 17.0077 6.21454 17.0491C6.16018 17.2096 6.09807 17.3649 6.0023 17.5021C5.83147 17.7428 5.69688 18.012 5.48204 18.2191C5.43804 18.2631 5.37851 18.3097 5.37075 18.3873C5.23874 18.553 5.10156 18.716 4.99026 18.8998C4.84014 18.9826 4.7599 19.1431 4.64342 19.2648C4.57354 19.3398 4.50365 19.4097 4.44153 19.4925C4.37682 19.5779 4.28882 19.6452 4.21116 19.7229C4.0921 19.8445 3.95233 19.9455 3.86174 20.0956C3.8488 20.1189 3.82551 20.137 3.80221 20.15C3.70903 20.2043 3.64173 20.2897 3.57443 20.3752C3.43984 20.5486 3.26124 20.6495 3.05935 20.7039C2.98946 20.722 2.92217 20.7349 2.86005 20.7867C2.81864 20.8204 2.74875 20.8255 2.69181 20.8307C2.50027 20.8436 2.31132 20.8203 2.11979 20.8488C2.07579 20.8566 2.0292 20.8385 1.98261 20.8281C1.64353 20.7375 1.33811 20.5822 1.07669 20.3312C0.955033 20.2147 0.815261 20.1137 0.735022 19.9507C0.716904 19.9118 0.667724 19.886 0.628899 19.8627C0.481364 19.785 0.367474 19.6763 0.295001 19.5158C0.269117 19.4615 0.22512 19.4149 0.186295 19.3657C0.0957025 19.2492 0.0465205 19.112 0.0128721 18.9671C-0.0155997 18.8377 0.00769696 18.716 0.0387571 18.5918C0.0905239 18.3847 0.178529 18.1984 0.331241 18.0405C0.39595 18.0793 0.458067 18.1181 0.522776 18.1518C0.61078 18.2009 0.701369 18.2449 0.786784 18.2967C0.88773 18.3562 0.991269 18.3588 1.09221 18.32C1.24752 18.2631 1.4054 18.2035 1.55552 18.1337C2.0706 17.8903 2.56498 17.6108 3.05935 17.3261C3.29748 17.1889 3.54078 17.0595 3.77891 16.9223C3.91868 16.8421 4.05069 16.7489 4.18787 16.6583C4.18787 16.6143 4.19305 16.5781 4.18787 16.5444C4.14646 16.2364 4.1154 15.9284 4.12575 15.6178C4.12834 15.4884 4.0714 15.4055 3.97045 15.3227C3.81515 15.1959 3.68573 15.0328 3.57184 14.862C3.55373 14.8335 3.54338 14.7999 3.53561 14.7792C3.56667 14.6704 3.59514 14.5721 3.62879 14.4608C3.65726 14.4763 3.68832 14.4841 3.71162 14.5048C3.84621 14.6187 4.0041 14.6264 4.16458 14.6057C4.21376 14.6006 4.25776 14.5747 4.26294 14.5177C4.28105 14.2382 4.32246 13.9587 4.3147 13.6532C4.27587 13.6765 4.24999 13.6843 4.23446 13.7024C4.1801 13.7723 4.12575 13.8448 4.07657 13.9172C4.01445 14.0078 3.94198 14.0751 3.83327 14.0751C3.76338 14.0751 3.72455 14.1114 3.68314 14.1605C3.60549 14.2563 3.52525 14.3495 3.44243 14.4427C3.35442 14.541 3.2716 14.5384 3.17065 14.4401C3.03347 14.3081 2.89888 14.1735 2.71769 14.1088C2.66334 14.0881 2.61933 14.0415 2.56757 14.0078C2.53392 13.9871 2.50027 13.9535 2.46662 13.9483C2.3605 13.9354 2.29838 13.8603 2.2492 13.7801C2.17932 13.6636 2.08873 13.573 1.99037 13.4927C1.90237 13.4229 1.87389 13.3426 1.91272 13.2365C1.92048 13.2158 1.92825 13.1977 1.93084 13.177C1.94119 13.0786 1.99037 13.0061 2.07578 12.9828C2.13014 12.9673 2.1146 12.9155 2.15343 12.8819C2.21037 12.9207 2.26991 12.9621 2.32685 13.0061C2.39156 13.0553 2.45627 13.0709 2.52874 13.0269C2.60898 12.9777 2.69439 12.9388 2.76946 12.8845C3.11112 12.6438 3.45019 12.3953 3.79186 12.1546C3.96786 12.0303 4.14904 11.9113 4.33023 11.7974C4.41305 11.7456 4.45188 11.6731 4.45964 11.5748C4.47776 11.3574 4.49847 11.1399 4.51659 10.9199C4.52953 10.7595 4.54506 10.5964 4.55283 10.4333C4.55542 10.379 4.54506 10.3246 4.53988 10.2703C4.51141 10.2599 4.49329 10.2496 4.47517 10.2496C4.33799 10.2625 4.19563 10.2599 4.06363 10.2987C3.92903 10.3401 3.79185 10.335 3.65726 10.3738C3.52525 10.41 3.38031 10.3738 3.2483 10.3272C3.16806 10.2987 3.09041 10.2573 3.00759 10.2314C2.75652 10.1512 2.53909 10.0114 2.33203 9.84319C2.28026 9.80177 2.22073 9.76812 2.16896 9.72412C2.11719 9.68271 2.06025 9.6413 2.02143 9.58694C1.93343 9.45752 1.81177 9.3747 1.70047 9.27893C1.6487 9.23493 1.59953 9.19092 1.55811 9.13657C1.49599 9.05633 1.44681 8.96056 1.37952 8.88291C1.2061 8.68361 1.14139 8.43254 1.06374 8.17112C1.10774 8.09347 1.15433 8.01064 1.19833 7.9304C1.29669 7.89416 1.37434 7.93817 1.4494 7.97699C1.60988 8.05982 1.77036 8.14523 1.93084 8.22806C1.97225 8.24877 2.01366 8.26947 2.05766 8.28759C2.19226 8.33677 2.32426 8.34971 2.46144 8.28759C2.60639 8.2203 2.75911 8.17112 2.90146 8.10123C3.23795 7.93817 3.57185 7.76734 3.88245 7.54733C3.99116 7.46968 4.10504 7.39461 4.21893 7.32214C4.53988 7.11766 4.80389 6.83812 5.0912 6.58964C5.14038 6.54564 5.17403 6.48352 5.21544 6.42657C5.25427 6.36963 5.28791 6.30751 5.33191 6.25574C5.40956 6.16774 5.48981 6.09009 5.5131 5.96067C5.52863 5.88043 5.60629 5.8442 5.67876 5.82349C5.74088 5.80796 5.80558 5.79761 5.8677 5.76913C5.95053 5.73031 6.03853 5.75102 6.09289 5.84161C6.17313 5.97879 6.30514 5.9995 6.43714 6.01244C6.53032 6.0202 6.62092 6.0202 6.7141 6.02279C6.82281 6.02538 6.91857 6.05903 7.00657 6.1315C7.06869 6.18327 7.14117 6.21692 7.21105 6.26092C7.26282 6.29457 7.31977 6.31786 7.38189 6.29975C7.48542 6.26869 7.56048 6.31786 7.63036 6.39034C7.6666 6.43952 7.70026 6.48093 7.74167 6.53011ZM5.76417 13.3452C5.79264 13.3271 5.81335 13.3193 5.82112 13.3064C5.92465 13.1433 6.03336 12.9828 6.12913 12.8146C6.26372 12.5791 6.3569 12.3202 6.40608 12.0485C6.42938 11.9268 6.43973 11.8 6.41126 11.6835C6.39314 11.6757 6.38537 11.6706 6.3802 11.6706C6.18607 11.756 6.0023 11.8673 5.83664 12.007C5.75641 12.0769 5.71241 12.1701 5.71758 12.284C5.72535 12.4186 5.73311 12.5506 5.73829 12.6852C5.74346 12.7913 5.74864 12.8948 5.74864 13.001C5.75382 13.1123 5.74088 13.2236 5.76417 13.3452Z" fill="currentColor"/>
<path d="M7.47486 32.2633C7.40239 32.2892 7.32733 32.3306 7.25227 32.3358C7.15132 32.3435 7.08144 32.3927 7.00896 32.4548C6.93131 32.5195 6.84072 32.5661 6.76307 32.6283C6.58965 32.7654 6.40588 32.8897 6.25317 33.0579C6.1807 33.1382 6.08492 33.1951 5.99692 33.252C5.85456 33.3452 5.76915 33.4798 5.72515 33.6507C5.71738 33.6765 5.71997 33.7154 5.70444 33.7309C5.61902 33.8137 5.64232 33.9431 5.58278 34.0363C5.56725 34.0622 5.56726 34.1036 5.56208 34.1373C5.5569 34.1787 5.56208 34.2253 5.54655 34.2615C5.47408 34.4297 5.46632 34.6161 5.41973 34.7921C5.37572 34.9526 5.37831 35.1286 5.33172 35.2891C5.28254 35.4521 5.27218 35.6178 5.24371 35.7964C5.28254 35.799 5.3136 35.8067 5.34466 35.8042C5.42231 35.7964 5.50255 35.7705 5.5802 35.7731C5.86492 35.7757 6.14446 35.8042 6.41106 35.9258C6.49388 35.9646 6.55859 36.0138 6.58965 36.107C6.61036 36.1639 6.63624 36.2131 6.70354 36.239C6.79413 36.2726 6.82001 36.3684 6.81225 36.4668C6.80448 36.5651 6.78637 36.6609 6.77084 36.7567C6.76566 36.7825 6.75272 36.811 6.73719 36.8317C6.68025 36.9068 6.61812 36.9819 6.56118 37.0569C6.53788 37.0906 6.51718 37.1242 6.49906 37.163C6.48094 37.1993 6.46283 37.2381 6.45506 37.2795C6.43177 37.3856 6.30752 37.4374 6.3127 37.5487C6.31788 37.6574 6.25575 37.7351 6.22211 37.8231C6.16257 37.9784 6.07716 38.1233 6.00987 38.276C5.93739 38.4443 5.85715 38.6022 5.7588 38.7549C5.73809 38.7885 5.72515 38.8325 5.71479 38.8713C5.68373 38.9826 5.63973 39.081 5.56208 39.1638C5.49478 39.2363 5.46631 39.3321 5.46372 39.433C5.45855 39.6944 5.45337 39.9533 5.44819 40.2147C5.44561 40.3182 5.44819 40.4243 5.44819 40.546C5.48961 40.5305 5.53102 40.5227 5.55691 40.502C5.76398 40.3286 5.9788 40.1603 6.17552 39.974C6.43176 39.7281 6.67507 39.4692 6.91837 39.2104C7.05814 39.0603 7.17721 38.8895 7.31957 38.7445C7.44122 38.6229 7.54993 38.4805 7.69746 38.3925C7.70523 38.408 7.71299 38.4158 7.71299 38.4184C7.66123 38.5167 7.61205 38.6151 7.55511 38.7083C7.52405 38.7626 7.48263 38.8092 7.4438 38.8584C7.39721 38.9205 7.36098 38.9878 7.3558 39.0681C7.34804 39.1664 7.30662 39.2518 7.26521 39.3372C7.18756 39.5003 7.11768 39.6686 7.04521 39.8342C7.04003 39.8471 7.02967 39.8627 7.03226 39.873C7.09438 40.0516 6.94685 40.1552 6.90026 40.2975C6.86661 40.4036 6.81484 40.502 6.76049 40.6004C6.69578 40.722 6.62589 40.8411 6.55083 40.9575C6.44212 41.1258 6.32564 41.2863 6.21952 41.4571C6.17293 41.5347 6.10046 41.602 6.12116 41.7185C6.12634 41.7522 6.07457 41.7988 6.05127 41.8402C6.00727 41.923 5.92704 41.9981 6.00728 42.1042C5.98916 42.1715 5.9788 42.2414 5.95033 42.3009C5.89339 42.42 5.82609 42.5338 5.76656 42.6503C5.74586 42.6866 5.72773 42.7254 5.71479 42.7642C5.69409 42.8263 5.71479 42.8703 5.78468 42.8962C5.74844 42.9894 5.69926 43.0722 5.64232 43.1473C5.42231 43.4475 5.18936 43.7348 4.9797 44.0428C4.78817 44.3224 4.57592 44.5786 4.36368 44.8375C4.21614 45.0161 4.0479 45.174 3.88742 45.3396C3.84601 45.3836 3.79942 45.425 3.75541 45.4664C3.56129 45.6632 3.33352 45.8107 3.08763 45.9116C2.90385 45.9867 2.70196 45.997 2.50266 45.966C2.30594 45.9375 2.11958 45.865 1.93581 45.7874C1.90475 45.7745 1.8711 45.7615 1.84781 45.7382C1.65886 45.5312 1.41555 45.3966 1.20849 45.2102C1.06613 45.0808 0.926362 44.9358 0.752943 44.8426C0.662351 44.7935 0.605405 44.7106 0.556226 44.6123C0.496694 44.4958 0.419042 44.3897 0.351745 44.2758C0.302566 44.193 0.263742 44.105 0.263742 43.9988C0.263742 43.9548 0.237861 43.9083 0.217154 43.8643C0.199036 43.828 0.17315 43.7995 0.14209 43.7607C0.18868 43.7271 0.224917 43.6986 0.255978 43.6753C0.34657 43.6934 0.431985 43.7038 0.514812 43.7271C0.576932 43.7426 0.633874 43.7581 0.690817 43.8047C0.809881 43.8979 0.952239 43.9367 1.10236 43.8643C1.18778 43.8228 1.27578 43.7944 1.35602 43.7426C1.73651 43.4993 2.10664 43.2431 2.46901 42.9687C2.92197 42.6244 3.3801 42.2931 3.83565 41.9515C3.97025 41.8505 4.10225 41.7418 4.23167 41.6331C4.29379 41.5813 4.29638 41.5089 4.23943 41.4519C4.19543 41.4079 4.14885 41.3691 4.09967 41.3354C3.9159 41.2086 3.74507 41.0714 3.61565 40.8773C3.58977 40.8385 3.55094 40.8074 3.51729 40.7738C3.42411 40.6806 3.34905 40.5771 3.29469 40.4528C3.27657 40.4088 3.25069 40.3622 3.21704 40.3338C3.11092 40.2432 3.0488 40.1189 2.96856 40.0102C2.83915 39.8316 2.69938 39.6634 2.57255 39.4822C2.5156 39.402 2.43795 39.3735 2.35254 39.3605C2.32665 39.3554 2.30077 39.3502 2.27488 39.3528C2.19464 39.3605 2.14288 39.3165 2.08852 39.2596C1.97463 39.1457 1.97463 39.0163 2.01605 38.8713C2.03934 38.7989 2.06005 38.7238 2.08335 38.6513C2.12994 38.5038 2.12217 38.364 2.03158 38.2191C2.05487 38.1854 2.07558 38.1207 2.10664 38.113C2.2723 38.069 2.36289 37.9214 2.48454 37.8153C2.56995 37.7376 2.65019 37.6574 2.75114 37.5979C2.81326 37.5616 2.86244 37.4995 2.91162 37.4426C3.10833 37.2148 3.31281 36.9948 3.54576 36.8084C3.6933 36.6894 3.8486 36.5832 4.0039 36.4719C4.03237 36.4512 4.06084 36.4357 4.08931 36.4176C4.19026 36.3581 4.23944 36.2701 4.23685 36.1406C4.23426 35.9232 4.23944 35.7032 4.24979 35.4858C4.26273 35.2244 4.28861 34.9655 4.30673 34.7041C4.31709 34.5695 4.32226 34.4375 4.33003 34.3029C4.33003 34.277 4.32226 34.2511 4.3145 34.2149C4.22391 34.2149 4.13849 34.2175 4.05566 34.2149C3.98319 34.2123 3.90813 34.2123 3.84083 34.1916C3.71918 34.1528 3.59494 34.145 3.46811 34.1476C3.39046 34.1476 3.31022 34.1347 3.23257 34.1373C3.07727 34.1424 2.93491 34.0726 2.79255 34.026C2.61137 33.9664 2.42242 33.9224 2.26194 33.8034C2.25159 33.7956 2.23864 33.7904 2.2257 33.7878C1.96428 33.6998 1.7831 33.4928 1.58121 33.3116C1.35861 33.1097 1.19813 32.869 1.06095 32.592C1.06871 32.504 1.07907 32.4108 1.08942 32.2944C1.14119 32.3228 1.1826 32.3384 1.21884 32.3668C1.3845 32.4911 1.57086 32.5584 1.76757 32.592C1.91252 32.6179 2.05488 32.5998 2.19724 32.5558C2.51301 32.46 2.79514 32.2918 3.0721 32.1132C3.46552 31.8647 3.82789 31.5696 4.19285 31.2746C4.29897 31.1891 4.4025 31.1011 4.51121 31.0235C4.60957 30.9562 4.66652 30.863 4.66652 30.7439C4.66911 30.5705 4.76746 30.4566 4.85805 30.3376C4.93053 30.2418 5.04183 30.2418 5.14277 30.3091C5.29807 30.4126 5.45855 30.5136 5.61643 30.6119C5.70961 30.6715 5.81056 30.6922 5.91927 30.7025C6.10822 30.7206 6.29976 30.7155 6.4887 30.731C6.56377 30.7362 6.63106 30.7569 6.69836 30.7828C6.8666 30.8475 7.01932 30.9407 7.16427 31.052C7.24968 31.1167 7.29627 31.2073 7.33251 31.3056C7.35321 31.3574 7.37133 31.4066 7.41534 31.4454C7.43863 31.4661 7.45675 31.4997 7.4671 31.5308C7.53957 31.7793 7.54216 32.0122 7.47486 32.2633ZM3.33351 38.2683C3.37493 38.2993 3.40599 38.3148 3.4267 38.3407C3.5587 38.4883 3.69329 38.6332 3.82012 38.7833C3.87448 38.848 3.94436 38.8895 4.01425 38.9257C4.0479 38.9412 4.08155 38.9723 4.13332 38.9335C4.13591 38.9024 4.14626 38.861 4.14626 38.8196C4.15143 38.4106 4.15402 38.0017 4.15661 37.5927C4.15661 37.5772 4.14108 37.5591 4.12814 37.528C3.82012 37.7169 3.52505 37.9111 3.33351 38.2683ZM5.52584 36.9404C5.43525 36.9404 5.35501 36.9146 5.27736 36.9922C5.2903 37.0906 5.29289 37.1967 5.31619 37.2976C5.33689 37.3805 5.34208 37.4633 5.34725 37.5461C5.36019 37.7144 5.3809 37.88 5.40161 38.0482C5.40678 38.0845 5.4249 38.1181 5.45078 38.1854C5.53102 37.7558 5.62937 37.3649 5.52584 36.9404Z" fill="currentColor"/>
<path d="M10.625 124.419C10.7104 124.455 10.7648 124.478 10.8165 124.499C10.8554 124.452 10.8942 124.416 10.9201 124.375C10.9485 124.328 10.9641 124.274 10.9874 124.225C11.0081 124.181 11.0288 124.137 11.0573 124.1C11.109 124.03 11.1582 124.02 11.2281 124.077C11.2721 124.113 11.3135 124.134 11.3679 124.137C11.5076 124.139 11.6319 124.206 11.7639 124.248C11.8053 124.261 11.8519 124.292 11.8778 124.326C11.9813 124.458 12.1159 124.561 12.2013 124.714C12.2272 124.76 12.2738 124.797 12.2997 124.846C12.4084 125.048 12.5844 125.172 12.7474 125.312C12.7785 125.338 12.8121 125.363 12.8303 125.397C12.8924 125.511 12.9907 125.578 13.0917 125.643C13.1357 125.671 13.1823 125.71 13.2056 125.757C13.2651 125.873 13.3505 125.974 13.3738 126.111C13.3816 126.163 13.4204 126.21 13.4515 126.259C13.4851 126.311 13.5239 126.36 13.5576 126.412C13.6327 126.528 13.6948 126.645 13.6896 126.8C13.687 126.924 13.7232 127.048 13.7362 127.175C13.7465 127.279 13.744 127.38 13.7103 127.486C13.6689 127.618 13.6611 127.76 13.6352 127.897C13.6275 127.947 13.6145 127.993 13.6016 128.042C13.5188 128.335 13.4903 128.635 13.4774 128.938C13.4722 129.049 13.4748 129.161 13.4463 129.274C13.4256 129.36 13.4359 129.456 13.4359 129.546C13.4385 129.96 13.4385 130.377 13.4463 130.791C13.4515 131.102 13.4748 131.41 13.4799 131.718C13.4877 132.29 13.4903 132.862 13.4903 133.434C13.4903 133.517 13.4774 133.602 13.4696 133.685C13.4282 134.122 13.4567 134.56 13.4437 134.997C13.4385 135.194 13.4204 135.391 13.4152 135.585C13.3997 136.146 13.3894 136.711 13.3712 137.272C13.3635 137.482 13.3738 137.697 13.3324 137.904C13.3428 138.287 13.2703 138.66 13.247 139.04C13.2341 139.25 13.2133 139.46 13.1926 139.705C13.1564 139.573 13.1771 139.475 13.1745 139.377C13.1693 139.271 13.1719 139.164 13.1719 139.058C13.1719 138.952 13.1693 138.846 13.1693 138.74C13.1693 138.634 13.1693 138.528 13.1564 138.422C13.115 138.499 13.1098 138.587 13.1046 138.673C13.0891 139.017 13.071 139.364 13.058 139.708C13.0529 139.827 13.0658 139.949 13.0477 140.065C13.0011 140.358 13.0192 140.653 13.0037 140.948C12.9985 141.051 13.0037 141.158 12.9856 141.264C12.9804 141.227 12.9674 141.194 12.9674 141.158C12.9778 140.629 12.9882 140.101 12.9985 139.571C13.0011 139.397 12.9985 139.224 12.9985 139.004C12.939 139.115 12.9493 139.19 12.9442 139.263C12.9364 139.369 12.9416 139.475 12.9364 139.581C12.9312 139.672 12.9183 139.762 12.9105 139.853C12.895 140.013 12.8769 140.174 12.8665 140.334C12.8536 140.547 12.8484 140.756 12.838 140.969C12.8329 141.108 12.7992 141.24 12.763 141.375C12.7241 141.522 12.7112 141.68 12.6931 141.833C12.6827 141.913 12.6853 141.996 12.6698 142.079C12.6646 141.962 12.6594 141.843 12.6543 141.724C12.5896 141.74 12.5921 141.786 12.5896 141.828C12.5818 142.004 12.574 142.18 12.5688 142.356C12.5637 142.496 12.5637 142.638 12.5611 142.778C12.5611 142.791 12.5611 142.806 12.5559 142.819C12.4498 143.042 12.499 143.29 12.4575 143.523C12.4342 143.655 12.4213 143.787 12.4032 143.919C12.4006 143.937 12.3825 143.953 12.3695 143.971C12.3333 143.811 12.3488 143.679 12.4213 143.528C12.4006 143.477 12.3721 143.422 12.3592 143.363C12.3488 143.308 12.3644 143.251 12.3644 143.195C12.3618 143.039 12.3566 142.887 12.354 142.731C12.3488 142.514 12.3514 142.294 12.3437 142.076C12.3359 141.887 12.3204 141.696 12.3048 141.507C12.3022 141.486 12.2919 141.468 12.279 141.434C12.2427 141.613 12.2997 141.784 12.2479 141.97C12.2298 141.934 12.2168 141.918 12.2168 141.903C12.2401 141.344 12.1987 140.787 12.1909 140.231C12.1858 139.92 12.1832 139.61 12.1702 139.299C12.1366 138.383 12.1004 137.467 12.0615 136.548C12.0331 135.906 12.002 135.264 11.9684 134.625C11.9373 134.047 11.9062 133.47 11.8674 132.893C11.8182 132.16 11.7613 131.431 11.7121 130.698C11.6655 130.007 11.6241 129.318 11.5801 128.627C11.5283 127.838 11.4766 127.051 11.4222 126.262C11.4119 126.127 11.3963 125.995 11.3756 125.863C11.3368 125.617 11.2669 125.382 11.1323 125.174C11.0055 124.975 10.8761 124.781 10.7467 124.584C10.7156 124.535 10.6483 124.517 10.625 124.419ZM12.4472 143.073C12.442 143.073 12.4342 143.073 12.4342 143.075C12.4317 143.088 12.4317 143.099 12.4291 143.112C12.4368 143.112 12.4472 143.109 12.455 143.109C12.4524 143.096 12.4498 143.083 12.4472 143.073Z" fill="currentColor"/>
<path d="M13.7387 77.3006C13.8111 77.2695 13.837 77.3575 13.8966 77.373C13.9147 77.2773 13.8319 77.2229 13.8137 77.1297C13.9173 77.153 13.982 77.2436 14.0803 77.2617C14.1114 77.241 14.0984 77.2152 14.0855 77.1919C14.0648 77.1556 14.0389 77.122 14.0182 77.0857C13.9949 77.0469 13.9846 76.9926 14.0182 76.9693C14.0803 76.9278 14.0182 76.8813 14.0363 76.8398C14.0881 76.8606 14.1424 76.8942 14.1968 76.8994C14.365 76.9175 14.5048 77.021 14.6627 77.0676C14.7248 77.0857 14.7766 77.1556 14.8258 77.2074C14.9112 77.2954 14.9914 77.3912 15.0717 77.4818C15.1234 77.5387 15.1804 77.5801 15.2554 77.5982C15.2994 77.6086 15.3383 77.6345 15.3797 77.6578C15.535 77.738 15.6307 77.8752 15.711 78.0331C15.7576 78.1263 15.8119 78.2143 15.8689 78.3023C15.9595 78.4446 16.019 78.5999 16.063 78.763C16.0759 78.8096 16.0837 78.8588 16.0992 78.9053C16.1355 79.0089 16.1277 79.1124 16.0992 79.2159C16.0759 79.3117 16.0475 79.4049 16.0242 79.5007C15.9905 79.6353 15.9181 79.7414 15.8197 79.8294C15.7628 79.8786 15.711 79.9329 15.6489 79.9717C15.5091 80.0597 15.4107 80.1943 15.3046 80.3186C15.1415 80.5127 14.9811 80.7068 14.7869 80.8699C14.6342 80.9993 14.5022 81.1598 14.3599 81.3073C14.3625 81.3151 14.3625 81.3332 14.3676 81.341C14.5281 81.4575 14.5644 81.6516 14.6317 81.8276C14.6653 81.913 14.6886 82.001 14.7197 82.0838C14.7533 82.177 14.7714 82.2676 14.7352 82.3711C14.6782 82.5264 14.7015 82.6921 14.6989 82.8526C14.6964 83.0363 14.7067 83.2201 14.7171 83.4013C14.7455 83.8879 14.7792 84.3719 14.8051 84.8585C14.8102 84.9414 14.8077 85.0294 14.7869 85.1096C14.73 85.3348 14.7041 85.5652 14.6834 85.7981C14.6627 86.0336 14.5747 86.2304 14.4272 86.4012C14.29 86.5617 14.1528 86.7247 14.026 86.8749C13.8577 86.9214 13.7102 86.8878 13.5601 86.8516C13.5342 86.8464 13.5057 86.836 13.4876 86.8179C13.3038 86.6393 13.1045 86.4737 13.0139 86.2097C12.9829 86.1165 12.9518 86.0233 12.9544 85.9249C12.9596 85.7282 12.9622 85.5289 12.9777 85.3322C12.9984 85.0785 13.0036 84.8249 12.957 84.5738C12.9492 84.535 12.9415 84.4884 12.9182 84.4599C12.8664 84.3978 12.869 84.3357 12.8923 84.2632C12.9001 84.2425 12.869 84.2063 12.8535 84.1726C12.9001 84.0743 12.9932 83.9889 13.001 83.8568C13.0036 83.8258 13.0269 83.7896 13.0502 83.7714C13.133 83.7093 13.1433 83.6239 13.1459 83.5281C13.1485 83.4013 13.1537 83.2745 13.1485 83.1476C13.1278 82.6895 13.1019 82.234 13.0761 81.7655C13.0062 81.7577 12.9466 81.7551 12.8949 81.781C12.8043 81.825 12.7163 81.8172 12.6283 81.7603C12.5843 81.7888 12.5403 81.8198 12.4937 81.8457C12.4652 81.8612 12.4316 81.8871 12.4031 81.8819C12.2996 81.8586 12.2245 81.9208 12.1443 81.9648C12.0925 81.9932 12.0381 82.0114 11.9838 82.0347C11.8673 82.0787 11.7612 82.1537 11.6525 82.2184C11.5541 82.2754 11.4583 82.3427 11.3574 82.3893C11.0597 82.5238 10.7724 82.6869 10.4981 82.8681C10.0995 83.1347 9.6698 83.3366 9.26601 83.5902C9.21942 83.6187 9.17283 83.6472 9.11848 83.6291L9.12107 83.6342C9.10295 83.5825 9.13401 83.5514 9.16766 83.5307C9.30743 83.4401 9.44202 83.3418 9.58697 83.2589C9.80697 83.1321 10.0115 82.9716 10.2211 82.8267C10.467 82.6584 10.6844 82.4514 10.8863 82.2262C10.951 82.1537 11.0157 82.0864 11.0338 81.9829C11.0364 81.9648 11.0494 81.9363 11.0649 81.9311C11.1503 81.9052 11.1969 81.8509 11.2357 81.7603C11.2668 81.6904 11.3548 81.6542 11.435 81.6335C11.4583 81.6283 11.479 81.6024 11.4972 81.5817C11.6111 81.4471 11.7508 81.341 11.8492 81.1909C11.945 81.0485 12.0407 80.9061 12.1417 80.7664C12.1805 80.712 12.2297 80.6628 12.2763 80.6137C12.517 80.3496 12.7137 80.0494 12.9285 79.7647C13.2443 79.3454 13.4954 78.8821 13.7387 78.4136C13.8267 78.2453 13.8759 78.0641 13.9224 77.8778C13.9406 77.8027 13.9457 77.7251 13.9095 77.65C13.8526 77.5309 13.7956 77.4119 13.7387 77.2954V77.3006Z" fill="currentColor"/>
<path d="M7.38184 62.798C7.47243 62.7721 7.54231 62.7514 7.62514 62.7255C7.64585 62.6867 7.67173 62.6401 7.69502 62.5935C7.77526 62.5547 7.85292 62.5573 7.93315 62.578C8.27999 62.6634 8.62942 62.6505 8.97885 62.635C9.06426 62.6324 9.14709 62.6168 9.22733 62.5728C9.31792 62.5237 9.41886 62.5211 9.51722 62.5547C9.66217 62.6039 9.80452 62.6557 9.95206 62.6997C10.0659 62.7333 10.1824 62.7592 10.2989 62.7825C10.3973 62.8006 10.4878 62.8343 10.5759 62.8886C10.6768 62.9507 10.7933 62.9896 10.8968 63.0491C11.1116 63.1707 11.3291 63.2924 11.5206 63.4529C11.5413 63.471 11.562 63.4865 11.5853 63.502C11.6888 63.5668 11.7743 63.6522 11.8467 63.7531C11.8933 63.8204 11.9606 63.8696 12.0098 63.9343C12.1004 64.056 12.1987 64.1724 12.2634 64.3096C12.3204 64.4313 12.3437 64.5762 12.3592 64.716C12.3799 64.8816 12.3825 65.0525 12.3851 65.2207C12.3851 65.2906 12.3696 65.3605 12.3592 65.4304C12.3463 65.5132 12.3282 65.596 12.3152 65.6788C12.3049 65.741 12.2945 65.8031 12.2402 65.8445C12.2246 65.8574 12.2091 65.873 12.2013 65.8911C12.1573 66.005 12.0745 66.08 11.9943 66.1655C11.9166 66.2483 11.8338 66.3311 11.7613 66.4191C11.7044 66.4916 11.6319 66.5382 11.5542 66.5796C11.5309 66.5925 11.4999 66.5951 11.4818 66.6106C11.3679 66.7142 11.2333 66.7116 11.1116 66.6598C10.9952 66.6106 10.889 66.6443 10.7803 66.6547C10.7441 66.6572 10.7027 66.6831 10.6768 66.709C10.5991 66.7841 10.5163 66.8565 10.4516 66.9445C10.2601 67.2034 10.0763 67.47 9.95206 67.7806C9.89253 67.9281 9.80452 68.0627 9.72687 68.2025C9.61558 68.4044 9.51463 68.6088 9.43439 68.8263C9.42404 68.8547 9.40074 68.8754 9.36451 68.9246C9.42145 68.6529 9.47839 68.4147 9.51722 68.174C9.61299 67.5968 9.68287 67.017 9.66993 66.4295C9.66475 66.1396 9.66735 65.8497 9.62593 65.5624C9.60264 65.4019 9.57675 65.2414 9.54051 65.0861C9.51722 64.9852 9.46804 64.8894 9.42922 64.7936C9.40592 64.7341 9.3645 64.6901 9.31274 64.6539C9.24544 64.6073 9.17815 64.5607 9.1212 64.5037C9.01767 64.4028 8.89602 64.3381 8.76401 64.2863C8.6553 64.2423 8.55953 64.1595 8.45859 64.0948C8.39647 64.056 8.33176 64.0223 8.27223 63.9783C8.1894 63.9188 8.10916 63.8592 8.0341 63.7919C7.9435 63.7117 7.84256 63.6392 7.77009 63.5409C7.65102 63.383 7.55267 63.207 7.44654 63.0387C7.41031 62.9792 7.41807 62.9248 7.45948 62.8653C7.48019 62.8317 7.43878 62.8135 7.38184 62.798Z" fill="currentColor"/>
<path d="M18.4163 28.9737C18.2273 28.751 18.0176 28.5698 17.8493 28.342C17.6811 28.1168 17.4584 27.9407 17.3212 27.687C17.3549 27.5239 17.4688 27.4799 17.5982 27.4747C17.7303 27.4696 17.8623 27.4747 17.9943 27.4825C18.1626 27.4929 18.3127 27.5679 18.4681 27.6275C18.5975 27.6767 18.727 27.7285 18.859 27.7673C19.0299 27.8165 19.1878 27.9123 19.3198 28.0469C19.4182 28.1504 19.5295 28.241 19.6279 28.3446C19.7392 28.4637 19.8454 28.588 19.9541 28.7122C19.9722 28.7329 19.9877 28.7588 19.9903 28.7847C19.9981 28.8442 19.9852 28.9116 20.0033 28.9659C20.0188 29.0125 20.0783 29.0384 20.0783 29.1057C20.0783 29.1446 20.0913 29.1937 20.1146 29.2196C20.2052 29.3232 20.2181 29.4449 20.2026 29.5743C20.1974 29.6313 20.1897 29.6753 20.2181 29.7348C20.2673 29.8332 20.2673 29.9445 20.1871 30.0274C20.1172 30.1024 20.125 30.2112 20.0758 30.2992C19.9619 30.3613 19.8454 30.4002 19.7185 30.3484C19.7004 30.3406 19.6797 30.3354 19.6615 30.3406C19.4881 30.3691 19.3819 30.25 19.2706 30.1413C19.1826 30.0558 19.1127 29.9497 19.0661 29.8332C19.035 29.7581 18.9936 29.7038 18.9289 29.6597C18.8901 29.6339 18.8461 29.6054 18.8228 29.5665C18.771 29.4759 18.6933 29.4552 18.5975 29.4423C18.4966 29.5018 18.3749 29.5303 18.2739 29.6183C18.2273 29.6572 18.1496 29.6623 18.0875 29.6623C18.0228 29.6623 17.9788 29.6908 17.9244 29.7219C17.6837 29.8694 17.461 30.0455 17.2306 30.2086C17.2099 30.2241 17.184 30.2319 17.1426 30.2526C17.1503 30.2086 17.1452 30.1801 17.1581 30.1646C17.1814 30.1309 17.2151 30.105 17.2461 30.0791C17.4662 29.8901 17.6914 29.7038 17.9089 29.5096C18.0513 29.3827 18.1833 29.2455 18.3179 29.1109C18.3516 29.0721 18.3801 29.0229 18.4163 28.9737Z" fill="currentColor"/>
<path d="M6.09033 97.0832C6.02819 97.1143 5.95829 97.1376 5.89875 97.179C5.80555 97.2386 5.70976 97.2722 5.59326 97.2567C5.60621 97.2386 5.61398 97.2153 5.62951 97.2101C5.73824 97.1609 5.84697 97.1117 5.9324 97.0211C5.95052 97.0004 5.99195 97.0004 6.02042 96.9926C6.05926 96.9849 6.09809 96.9823 6.13692 96.9771L6.13175 96.9719C6.11622 97.0082 6.10327 97.047 6.09033 97.0832Z" fill="currentColor"/>
<path d="M12.7501 38.975L12.7475 38.9724C12.6466 39.0578 12.6129 39.0475 12.5818 38.9232L12.5767 38.9284C12.6077 38.9051 12.6466 38.887 12.6724 38.8559C12.7423 38.7756 12.8097 38.6902 12.8744 38.6125C12.921 38.6281 12.9262 38.6566 12.9054 38.6799C12.8537 38.7342 12.864 38.7912 12.8899 38.8533L12.8951 38.8455C12.8019 38.8326 12.7838 38.9103 12.7501 38.975Z" fill="currentColor"/>
<path d="M12.0178 39.63C12.0126 39.6352 12.0048 39.6378 11.9996 39.6429C11.9763 39.6378 11.9505 39.63 11.9116 39.6222C11.966 39.5161 12.0436 39.4488 12.1343 39.3452C12.1187 39.4281 12.1084 39.4772 12.098 39.529L12.1032 39.5213C12.0359 39.5213 12.0255 39.5756 12.0178 39.63Z" fill="currentColor"/>
<path d="M16.6663 23.3102C16.7492 23.173 16.7854 23.1471 16.9045 23.1419L16.9019 23.1367C16.8475 23.2351 16.7595 23.2765 16.6611 23.305L16.6663 23.3102Z" fill="currentColor"/>
<path d="M8.7509 77.4791C8.72242 77.5568 8.68359 77.6215 8.57227 77.6603C8.62663 77.562 8.64475 77.4688 8.75348 77.4817L8.7509 77.4791Z" fill="currentColor"/>
<path d="M16.6612 23.3076C16.6353 23.4105 16.5447 23.4156 16.4722 23.4517C16.5188 23.3771 16.5705 23.3102 16.6637 23.3128C16.6663 23.3102 16.6612 23.3076 16.6612 23.3076Z" fill="currentColor"/>
<path d="M12.9725 107.121C12.9544 107.033 12.9544 107.033 13.0139 106.958C13.0321 107.043 13.0321 107.043 12.9725 107.121Z" fill="currentColor"/>
<path d="M8.81568 77.6215C8.82863 77.6189 8.84416 77.6137 8.85451 77.6163C8.90888 77.6292 8.91924 77.6575 8.88558 77.696C8.87781 77.7063 8.86487 77.714 8.85451 77.7218C8.84416 77.7295 8.83121 77.7346 8.82086 77.7398C8.81568 77.7372 8.80273 77.7372 8.80273 77.7346C8.80791 77.696 8.81309 77.66 8.81568 77.6215Z" fill="currentColor"/>
<path d="M8.61161 78.4938C8.61161 78.4938 8.6142 78.4938 8.61161 78.4938C8.64009 78.4861 8.66598 78.4861 8.67375 78.5169C8.67633 78.5324 8.66857 78.5607 8.65563 78.5684C8.62456 78.5864 8.59091 78.5967 8.54948 78.6121C8.54431 78.5427 8.57019 78.5144 8.61161 78.4938Z" fill="currentColor"/>
<path d="M8.95058 78.2866C8.93246 78.3229 8.91952 78.3617 8.89622 78.3928C8.88845 78.4005 8.85739 78.3876 8.82373 78.3824C8.86515 78.3255 8.89621 78.2814 8.95576 78.2918C8.95317 78.2918 8.95058 78.2866 8.95058 78.2866Z" fill="currentColor"/>
<path d="M9.15 92.6494C9.09045 92.6598 9.05939 92.6184 9.02832 92.5718C9.10599 92.5821 9.10599 92.5821 9.14741 92.6546L9.15 92.6494Z" fill="currentColor"/>
<path d="M13.5007 107.38C13.5007 107.387 13.4981 107.395 13.4981 107.4C13.4826 107.395 13.4644 107.39 13.4515 107.38C13.4463 107.377 13.4541 107.359 13.4541 107.346C13.4696 107.356 13.4851 107.369 13.5007 107.38Z" fill="currentColor"/>
<path d="M13.0479 107.201C13.066 107.188 13.0867 107.173 13.1048 107.16C13.1126 107.175 13.1229 107.191 13.1307 107.206C13.11 107.217 13.0893 107.224 13.0686 107.235C13.0608 107.224 13.0556 107.211 13.0479 107.201Z" fill="currentColor"/>
<path d="M11.0003 137.011C11.0003 137.029 11.0003 137.05 11.0003 137.068C10.9977 137.068 10.9977 137.068 10.9951 137.068C10.9951 137.05 10.9951 137.029 10.9951 137.011C10.9977 137.011 10.9977 137.011 11.0003 137.011Z" fill="currentColor"/>
<path d="M12.5842 38.9206C12.5557 38.9232 12.5195 38.9491 12.5065 38.8973C12.504 38.8921 12.5091 38.8817 12.5143 38.8792C12.5609 38.8559 12.5635 38.9025 12.5816 38.9258C12.579 38.9258 12.5842 38.9206 12.5842 38.9206Z" fill="currentColor"/>
<path d="M9.50684 96.0246C9.53272 96.0013 9.55085 95.9832 9.57156 95.9677C9.57932 95.9625 9.59486 95.9677 9.60521 95.9754C9.6078 95.978 9.60522 95.9987 9.60004 96.0065C9.57933 96.035 9.55344 96.0453 9.50684 96.0246Z" fill="currentColor"/>
<path d="M7.54217 79.2418C7.54993 79.3195 7.54994 79.3195 7.46191 79.3454C7.49816 79.304 7.52405 79.2755 7.54735 79.247C7.54476 79.247 7.54217 79.2418 7.54217 79.2418Z" fill="currentColor"/>
<path d="M10.6535 82.3089C10.6406 82.3167 10.6276 82.3271 10.6147 82.3348C10.6121 82.3297 10.6069 82.3219 10.6069 82.3193C10.6199 82.3064 10.6328 82.296 10.6432 82.2856C10.6458 82.2934 10.6484 82.2986 10.6535 82.3089Z" fill="currentColor"/>
<path d="M10.5087 82.4021C10.514 82.4048 10.522 82.4074 10.522 82.4101C10.522 82.4154 10.5193 82.426 10.514 82.426C10.5087 82.4287 10.5034 82.4207 10.498 82.4181C10.5034 82.4127 10.506 82.4074 10.5087 82.4021Z" fill="currentColor"/>
<path d="M10.7184 138.256C10.7211 138.261 10.7238 138.267 10.7238 138.272C10.7238 138.277 10.7184 138.28 10.7158 138.285C10.7131 138.28 10.7104 138.275 10.7104 138.269C10.7104 138.264 10.7158 138.259 10.7184 138.256Z" fill="currentColor"/>
<path d="M10.7133 137.741C10.7185 137.741 10.7263 137.741 10.7263 137.744C10.7289 137.754 10.7289 137.767 10.7289 137.78C10.7211 137.78 10.7133 137.777 10.7056 137.777C10.7107 137.764 10.7107 137.754 10.7133 137.741Z" fill="currentColor"/>
<path d="M11.3293 9.89483C11.3396 9.89483 11.3526 9.89483 11.3629 9.89224C11.3681 9.89224 11.3733 9.88965 11.3784 9.88965C11.3759 9.89224 11.3733 9.89742 11.3707 9.89742C11.3551 9.89483 11.3422 9.89224 11.3267 9.88965L11.3293 9.89483Z" fill="currentColor"/>
<path d="M8.75371 77.4843C8.75112 77.4713 8.74595 77.4532 8.75113 77.4454C8.75889 77.4325 8.77701 77.4273 8.78996 77.4196C8.78737 77.4377 8.78996 77.4558 8.78219 77.4739C8.7796 77.4791 8.76148 77.4791 8.74854 77.4791C8.75112 77.4791 8.75371 77.4843 8.75371 77.4843Z" fill="currentColor"/>
<path d="M11.3263 9.88965C11.3315 9.93107 11.347 9.97767 11.2642 10.0036C11.2952 9.95437 11.3108 9.92589 11.3289 9.89483L11.3263 9.88965Z" fill="currentColor"/>
<path d="M13.8143 117.144C13.809 117.141 13.8036 117.138 13.801 117.136C13.7983 117.13 13.801 117.122 13.801 117.117C13.809 117.12 13.8143 117.125 13.8223 117.128C13.8196 117.133 13.817 117.138 13.8143 117.144Z" fill="currentColor"/>
<path d="M14.4224 36.7723L14.4172 36.7671C14.4301 36.7671 14.4379 36.7774 14.4405 36.7904L14.4353 36.793C14.4224 36.793 14.4094 36.7956 14.3965 36.7956C14.4043 36.7904 14.4146 36.78 14.4224 36.7723Z" fill="currentColor"/>
<path d="M12.6955 38.711C12.68 38.7239 12.6671 38.7343 12.6567 38.7446C12.6567 38.7446 12.6437 38.7343 12.6463 38.7317C12.6489 38.7187 12.6541 38.7058 12.6645 38.698C12.6645 38.6954 12.6774 38.7032 12.6955 38.711Z" fill="currentColor"/>
<path d="M10.814 76.9873C10.814 76.9537 10.814 76.92 10.814 76.8838C10.8683 76.9278 10.8683 76.9278 10.814 76.9873Z" fill="currentColor"/>
<path d="M6.31268 101.155C6.26867 101.173 6.25572 101.131 6.23501 101.108L6.23242 101.103C6.25831 101.121 6.28161 101.139 6.3075 101.157L6.31268 101.155Z" fill="currentColor"/>
<path d="M6.17131 101.215C6.16067 101.21 6.14736 101.204 6.13672 101.202C6.1447 101.196 6.15002 101.191 6.158 101.186C6.16066 101.196 6.16332 101.21 6.16598 101.22C6.16864 101.218 6.17131 101.215 6.17131 101.215Z" fill="currentColor"/>
<path d="M6.23603 101.108C6.22539 101.108 6.21474 101.108 6.2041 101.108C6.20676 101.114 6.20676 101.119 6.20942 101.124C6.2174 101.116 6.22538 101.108 6.2307 101.1C6.2307 101.103 6.23603 101.108 6.23603 101.108Z" fill="currentColor"/>
<path d="M12.4527 38.9987C12.4474 39.0013 12.4448 39.0013 12.4394 39.004C12.4394 38.9987 12.4341 38.9933 12.4368 38.9907C12.4394 38.988 12.4448 38.988 12.4501 38.9854C12.4501 38.9907 12.4527 38.996 12.4527 38.9987Z" fill="currentColor"/>
<path d="M4.6751 97.8085C4.66978 97.8112 4.66446 97.8139 4.65914 97.8139C4.65647 97.8059 4.65647 97.7979 4.65381 97.7899C4.65913 97.7899 4.66711 97.7899 4.67244 97.7926C4.67244 97.7979 4.67244 97.8032 4.6751 97.8085Z" fill="currentColor"/>
<path d="M18.1629 97.1583V97.1716L18.147 97.1663L18.1629 97.1583Z" fill="currentColor"/>
<path d="M10.6147 77.1194V77.1245C10.6432 77.1168 10.6717 77.109 10.7028 77.1012C10.7028 77.1012 10.7002 77.0961 10.7028 77.0961C10.6717 77.1038 10.6432 77.1116 10.6147 77.1194Z" fill="currentColor"/>
<path d="M13.7363 77.2979C13.7389 77.2876 13.7389 77.2746 13.7415 77.2643C13.7415 77.2772 13.7389 77.2876 13.7389 77.3005L13.7363 77.2979Z" fill="currentColor"/>
<path d="M8.41782 77.8417C8.41782 77.847 8.41782 77.8524 8.41516 77.855C8.4125 77.8577 8.40452 77.8577 8.40186 77.8577C8.40186 77.8497 8.40452 77.8417 8.40452 77.8337C8.40984 77.8391 8.41516 77.8391 8.41782 77.8417Z" fill="currentColor"/>
<path d="M11.6526 9.47803C11.6526 9.48335 11.6552 9.49133 11.6552 9.49665C11.6552 9.49931 11.6526 9.49931 11.6499 9.50197C11.6526 9.49665 11.6552 9.49133 11.6579 9.48335C11.6552 9.48335 11.6526 9.47803 11.6526 9.47803Z" fill="currentColor"/>
<path d="M10.2758 137.606C10.2785 137.609 10.2865 137.609 10.2865 137.612C10.2865 137.617 10.2838 137.622 10.2812 137.628C10.2785 137.625 10.2705 137.625 10.2705 137.622C10.2705 137.617 10.2732 137.612 10.2758 137.606Z" fill="currentColor"/>
<path d="M10.7725 82.2084C10.7751 82.2031 10.7751 82.1951 10.7778 82.1951C10.7831 82.1951 10.7884 82.1977 10.7937 82.1977C10.7911 82.2031 10.7911 82.211 10.7884 82.211C10.7831 82.2137 10.7778 82.211 10.7725 82.2084Z" fill="currentColor"/>
<path d="M9.11401 83.629C9.10603 83.6343 9.09805 83.6423 9.0874 83.6477C9.09805 83.6423 9.10603 83.637 9.11668 83.6343L9.11401 83.629Z" fill="currentColor"/>
</svg>
